<svg height="35.00000000000023" overflow="visible" viewBox="0 0 34.9999999999998  35.00000000000023"
              width="34.9999999999998" xmlns="http://www.w3.org/2000/svg">
              <g>
                <defs>
                  <path id="path-162131667623491"
                    d="M0 0 C0 0 28.170731707317366 0 28.170731707317366 0 C28.170731707317366 0 28.170731707317366 28.170731707316882 28.170731707317366 28.170731707316882 C28.170731707317366 28.170731707316882 0 28.170731707316882 0 28.170731707316882 C0 28.170731707316882 0 0 0 0 Z">
                  </path>
                </defs>
                <path
                  d="M6.425053597385414 34.882706960846576 C6.425053597385414 34.882706960846576 2.5240625565390644 6.983380914777058 2.5240625565390644 6.983380914777058 C2.5240625565390644 6.983380914777058 30.423388602608128 3.082389873930765 30.423388602608128 3.082389873930765 C30.423388602608128 3.082389873930765 34.32437964345448 30.981715920000283 34.32437964345448 30.981715920000283 C34.32437964345448 30.981715920000283 6.425053597385414 34.882706960846576 6.425053597385414 34.882706960846576 Z"
                  style="
                    stroke: rgb(209, 222, 255);
                    stroke-width: 1;
                    stroke-linecap: butt;
                    stroke-linejoin: miter;
                    fill: rgb(209, 222, 255);
                  "></path>
              </g>
              <g>
                <defs>
                  <path id="path-162131667623389"
                    d="M0 0 C0 0 26.54355950764224 0 26.54355950764224 0 C26.54355950764224 0 26.54355950764224 26.543559507641262 26.54355950764224 26.543559507641262 C26.54355950764224 26.543559507641262 0 26.543559507641262 0 26.543559507641262 C0 26.543559507641262 0 0 0 0 Z">
                  </path>
                </defs>
                <path
                  d="M24.284561567843042 0 C24.284561567843042 0 34.9999999999998 24.28456156784398 34.9999999999998 24.28456156784398 C34.9999999999998 24.28456156784398 10.715438432156759 35.00000000000034 10.715438432156759 35.00000000000034 C10.715438432156759 35.00000000000034 0 10.715438432156361 0 10.715438432156361 C0 10.715438432156361 24.284561567843042 0 24.284561567843042 0 Z"
                  style="
                    stroke: rgb(114, 118, 232);
                    stroke-width: 1;
                    stroke-linecap: butt;
                    stroke-linejoin: round;
                    fill: rgb(114, 118, 232);
                  "></path>
              </g>
            </svg>