<?xml version="1.0" encoding="utf-8"?>
<!-- Generator: Adobe Illustrator 19.0.0, SVG Export Plug-In . SVG Version: 6.00 Build 0)  -->
<svg version="1.1" id="Layer_1" xmlns="http://www.w3.org/2000/svg" xmlns:xlink="http://www.w3.org/1999/xlink" x="0px" y="0px"
	 viewBox="0 0 1190.5 841.9" style="enable-background:new 0 0 1190.5 841.9;" xml:space="preserve">
<style type="text/css">
	.st0{display:none;}
	.st1{display:inline;}
	.st2{fill:#120E20;}
	.st3{fill:#120E20;stroke:#231F20;stroke-miterlimit:10;}
	.st4{fill:#FFFFFF;stroke:#231F20;stroke-miterlimit:10;}
	.st5{display:inline;fill:#120E20;}
	.st6{display:inline;fill:#FFFFFF;stroke:#231F20;stroke-miterlimit:10;}
	.st7{fill:#798533;}
	.st8{fill:#182F21;}
	.st9{fill:#95AB3D;}
	.st10{fill:#6B7224;}
	.st11{fill:#0A2319;}
	.st12{fill:#FBFBFB;stroke:#231F20;stroke-miterlimit:10;}
	.st13{fill:#527872;}
	.st14{fill:#FF7543;}
</style>
<g class="st0">
	<g class="st1">
		<rect x="670.6" y="247.4" class="st2" width="2" height="203.2"/>
		<g>
			<ellipse class="st3" cx="673.3" cy="494.8" rx="14.3" ry="12.2"/>
			<path class="st4" d="M736,493.1l-51.7-49.1c0-0.4,0.1-0.8,0.1-1.2v-18.3c0-6.7-5.5-12.2-12.2-12.2c-6.7,0-12.2,5.5-12.2,12.2
				v18.3c0,1,0.2,2,0.4,2.9c-9.8,9.3-47.7,45-51.3,47.3H736z"/>
		</g>
	</g>
	<g class="st1">
		<rect x="516" y="247.6" class="st2" width="2" height="114.2"/>
		<g>
			<ellipse class="st3" cx="518.7" cy="406" rx="14.3" ry="12.2"/>
			<path class="st4" d="M581.4,404.3l-51.7-49.1c0-0.4,0.1-0.8,0.1-1.2v-18.3c0-6.7-5.5-12.2-12.2-12.2c-6.7,0-12.2,5.5-12.2,12.2
				v18.3c0,1,0.2,2,0.4,2.9c-9.8,9.3-47.7,45-51.3,47.3H581.4z"/>
		</g>
	</g>
</g>
<g class="st0">
	<rect x="696.6" y="584.7" class="st5" width="2.2" height="80.3"/>
	<rect x="503.5" y="532" class="st5" width="142.6" height="2.2"/>
	<rect x="503.5" y="534.2" class="st6" width="142.6" height="13"/>
	<rect x="518.6" y="513.4" class="st5" width="2.2" height="142.6"/>
	<rect x="623.1" y="525" class="st5" width="2.2" height="131.2"/>
	<rect x="571.7" y="583.6" class="st5" width="142.6" height="2.2"/>
	<rect x="571.7" y="585.6" class="st6" width="142.6" height="13"/>
	<g class="st1">
		<g>
			<path class="st7" d="M596.6,422.2c-6-43.1,33.6-87.4,72.4-96.9C671.5,382.1,623.3,422.2,596.6,422.2z"/>
			<path class="st8" d="M578.6,392.2c-3.1-37,16.4-78.9,45-83.7C634.1,328.4,621.5,377.5,578.6,392.2z"/>
			<path class="st9" d="M530.2,247.2c33.8,10.4,69.1,95.7,35.7,149.1C523.6,366.4,507.1,292.2,530.2,247.2z"/>
			<path class="st10" d="M477.6,329.3c38,15.5,71.1,52.3,65.2,89C477,402.5,473,346.3,477.6,329.3z"/>
			<path class="st9" d="M476.3,408.3c17.3-2.7,52.3,6,61.6,27.8C494.1,441.4,479.8,420.3,476.3,408.3z"/>
			<path class="st8" d="M587.1,466.6c-7.6-28.4,17.9-60.6,38.3-86.4c1.8-2.3,3.6-4.6,5.4-6.8l1,0.8c-1.7,2.2-3.5,4.5-5.4,6.8
				c-20.3,25.6-45.5,57.6-38.1,85.3L587.1,466.6z"/>
			<path class="st8" d="M590.4,457.9c-28.1-55.3-7.7-82.2,5.9-100c1.7-2.2,3.3-4.3,4.6-6.3l1,0.7c-1.3,2-2.9,4.1-4.6,6.3
				c-13.3,17.6-33.5,44.2-5.7,98.8L590.4,457.9z"/>
			<path class="st8" d="M606.1,426.9c14.5-17.3,40.8-27.2,55.3-17C657.4,423,631,438.9,606.1,426.9z"/>
			<path class="st8" d="M583.1,460.3c11.5-35.9,31.9-38.9,45.3-40.8c1.7-0.2,3.3-0.5,4.7-0.7l0.1,0.7c-1.4,0.3-3,0.5-4.7,0.8
				c-13.3,1.9-33.4,4.8-44.8,40.3L583.1,460.3z"/>
			<path class="st8" d="M566.8,461.5l-1.9-0.4c9.7-48.4-7.8-103.4-13.4-119l1.8-0.6C559,357.3,576.6,412.6,566.8,461.5z"/>
			<path class="st8" d="M555.1,458.3c-4-35.4-24.6-60.3-44.3-79.9l1.1-1.1c19.9,19.8,40.7,45,44.7,80.8L555.1,458.3z"/>
			<path class="st8" d="M553.5,464.2c-2.8-27-27.1-35.2-45.1-39l0.3-1.2c18.4,3.9,43.2,12.3,46.1,40.1L553.5,464.2z"/>
		</g>
		<polygon class="st4" points="622.9,449.5 528.6,449.5 528.6,462.6 538.6,462.6 544.9,531.5 549.6,531.5 560.6,531.3 565.4,531.3 
			567.6,531.3 588.1,531.3 592.9,531.3 597.7,531.3 610.2,462.6 622.9,462.6 		"/>
	</g>
</g>
<g class="st0">
	<g class="st1">
		<path class="st11" d="M662.6,544.7c0,3-2.5,5.5-5.5,5.5h-131c-3,0-5.5-2.5-5.5-5.5l0,0c0-3,2.5-5.5,5.5-5.5h131
			C660.1,539.2,662.6,541.7,662.6,544.7L662.6,544.7z"/>
		
			<rect x="575.4" y="519.8" transform="matrix(0.7098 0.7044 -0.7044 0.7098 590.0192 -231.852)" class="st11" width="2" height="160.6"/>
		
			<rect x="600.6" y="519.8" transform="matrix(-0.7098 0.7044 -0.7044 -0.7098 1451.3953 602.2894)" class="st11" width="2" height="160.6"/>
	</g>
	<g class="st1">
		<path class="st11" d="M835.8,463.4c0,1.3-4.4,2.4-9.9,2.4H364.7c-5.5,0-9.9-1.1-9.9-2.4l0,0c0-1.3,4.4-2.4,9.9-2.4h461.2
			C831.3,461.1,835.8,462.1,835.8,463.4L835.8,463.4z"/>
		
			<rect x="397.8" y="460.4" transform="matrix(0.9677 0.2519 -0.2519 0.9677 154.3777 -82.35)" class="st11" width="2" height="202.6"/>
		
			<rect x="397.8" y="460.4" transform="matrix(-0.9677 0.2519 -0.2519 -0.9677 926.2234 1004.8318)" class="st11" width="2" height="202.6"/>
		
			<rect x="776.7" y="460.4" transform="matrix(0.9677 0.2519 -0.2519 0.9677 166.6106 -177.8302)" class="st11" width="2" height="202.6"/>
		
			<rect x="776.7" y="460.4" transform="matrix(-0.9677 0.2519 -0.2519 -0.9677 1671.9159 909.3482)" class="st11" width="2" height="202.6"/>
		<rect x="573.9" y="453.4" class="st11" width="129.6" height="4.9"/>
		<rect x="591.6" y="444.2" class="st11" width="129.6" height="4.9"/>
	</g>
	<g class="st1">
		<path class="st11" d="M555.2,279.5c-0.6-2.7,1.2-4.9,3.9-4.9h8c2.8,0,5.5,2.2,6.1,4.9l27.1,130.1c0.6,2.7-1,5.6-3.7,6.8l-4.7,3.7
			c-2.6,0.9-5.1-1.9-5.8-4.6L555.2,279.5z"/>
		<path class="st12" d="M391.2,284.4c-1.3-5.4,2.2-9.8,7.8-9.8h159c5.5,0,11,4.4,12.2,9.9l26.4,126.5c1.1,5.4-2.5,9.9-8,10
			l-154.8,1.3c-5.5,0-11.1-4.3-12.4-9.7L391.2,284.4z"/>
		<path class="st12" d="M511.1,369.2h-24.4l-12.3,81.5c0,0-1.2,9.7,7.4,11.4c0,0,0,0,0,0l29.2,0.7l-1.3-8L511.1,369.2z"/>
		<path class="st11" d="M511.1,369.2l-7.9,83.6c0,0,0.4,10,9.7,10.1l36.9-0.6c0,0,1-1.9-3.2-2.1l-35.5,0.4c0,0-7.9,0.4-4.5-22.2
			c2-13.4,6.7-67.6,6.7-67.6L511.1,369.2z"/>
	</g>
	<g class="st1">
		<polygon class="st13" points="755.7,411.5 754.1,406.1 755.5,416 756,416 		"/>
		<polygon class="st8" points="755,402.6 752.5,384.6 751.3,384.8 752.8,395.8 755.2,404.5 		"/>
		<polygon class="st8" points="760.3,387.8 759,388 760.3,416 761.6,416 		"/>
		<polygon class="st8" points="772.3,416 778.4,390.8 777.1,390.5 771.1,415.4 771,416 		"/>
		<polygon class="st8" points="767.7,405.1 768.1,383.8 766.8,384.1 766.3,416 766.4,416 		"/>
		<polygon class="st8" points="756.9,411.1 755.5,391 754.2,391 755,402.6 755.2,404.5 		"/>
		<polygon class="st14" points="755.7,411.8 756,416 756.8,416 		"/>
		<polygon class="st8" points="782.9,397.8 781.7,397.5 773.4,416 774.8,416 		"/>
		<polygon class="st8" points="767.7,416 771.3,387.9 770,387.6 767.7,405.2 766.4,416 		"/>
		<polygon class="st8" points="763.5,398.7 762.3,398.9 763.6,416 764.9,416 		"/>
		<polygon class="st8" points="771,416 771.1,415.3 773.6,382.6 772.3,382.7 769.7,416 		"/>
		<polygon class="st8" points="756.8,416 758.1,416 756.9,411.4 755.2,404.7 752.8,395.8 752.5,394.9 751.3,395.2 754.1,405.7 
			755.7,411.5 		"/>
		<polygon class="st12" points="773.4,416 772.3,416 771,416 769.7,416 767.7,416 766.4,416 766.3,416 764.9,416 763.6,416 
			761.6,416 760.3,416 758.1,416 756.8,416 756,416 755.5,416 753.2,416 757.1,461.8 773.9,461.8 777.8,416 774.8,416 		"/>
	</g>
	<g class="st1">
		<rect x="606.5" y="428.1" class="st10" width="107.4" height="15.4"/>
		<rect x="630.7" y="399.9" class="st9" width="81.4" height="12.8"/>
		<rect x="611.3" y="412.7" class="st8" width="107.5" height="15.4"/>
	</g>
</g>
<g>
	<g>
		<g>
			<path class="st11" d="M646.8,445c-3.3,1.6-6.5,1.9-9.6,0.8c-0.6,0.7-1.2,1.2-1.9,1.6c0,0,0,0,0,0c-4.8,2.4-11.5-3.5-13-9.6
				c-0.8-4.2-0.6-9.8-0.5-15.3c0.1-4.8,0.3-9.4-0.2-12.7c-1.4-8.3-2.5-15.4-3.5-22.3c-1-6.8-2.1-13.9-3.5-22.3
				c-0.2-1.7-0.5-3.3-0.8-4.9c-1.1-6.5-2.1-12.7-1-19.9c1.3-8.5,3-17.7,5-25.9c1.6-6.3,3.7-11.5,5.8-16.6c3-7.1,5.8-13.9,7-23.3
				c2-17.8-0.2-34.7-3.1-53.3c-0.3-2-0.7-4.1-1.1-6.3c-2.6-14.9-5.8-33.5-2.3-48c1.5-5.8,3.5-9.6,5.6-10.7c1.4-0.7,4-0.7,6.1,7.2
				c0.8,3.1,1.3,6.4,1.8,9.5c0.7,4.3,1.3,8.8,2.7,12.9c4.1,12.3,10.3,22.3,16.3,32c9.5,15.3,19.3,31.1,20.9,56
				c1.2,18.5-3.7,34.1-8.5,49.2c-4.4,14.1-9,28.8-8.6,45.8c0.2,6.2,1,12.5,1.9,18.5c1.4,9.8,2.8,20,1.2,30.3
				C661.7,429.6,654.6,441,646.8,445z M636.9,443.8l0.3,0.1c2.9,1.1,6,0.9,9.2-0.7c7.5-3.8,14.2-14.6,15.9-25.9
				c1.5-9.9,0.2-19.4-1.3-29.4c-0.9-6.1-1.7-12.5-1.9-18.8c-0.4-17.5,4.3-32.3,8.8-46.7c4.9-15.6,9.5-30.2,8.4-48.2
				c-1.6-24.3-10.8-39.2-20.6-54.9c-6.1-9.8-12.3-19.9-16.5-32.4c-1.5-4.3-2.2-8.9-2.8-13.3c-0.5-3.3-1-6.3-1.7-9.3
				c-0.9-3.4-2.4-7.3-4.6-6.2c-1.7,0.9-3.5,4.4-4.9,9.6c-3.3,14-0.2,32.2,2.4,46.9c0.4,2.2,0.8,4.3,1.1,6.4
				c2.8,18.2,5.1,35.9,3.1,54.1c-1.3,9.8-4.2,17-7.1,24c-2.1,5-4.2,10.2-5.7,16.3c-1.9,8.1-3.7,17.2-4.9,25.7c-1,6.8-0.1,12.4,1,19
				c0.3,1.6,0.5,3.2,0.8,4.9c1.4,8.3,2.5,15.4,3.5,22.3c1,6.8,2.1,13.9,3.5,22.2c0.5,3.6,0.4,8.3,0.3,13.2
				c-0.1,5.3-0.3,10.8,0.4,14.6c1.3,5.3,7.4,10.5,11.6,8.4h0c0.7-0.3,1.3-0.8,1.8-1.5L636.9,443.8z"/>
		</g>
		<g>
			<g>
				<path class="st2" d="M628.3,175.1c-3.1,22.6,4.4,45.4,11,64.5c3.3,9.4,6.2,19.2,8.2,29.5c2.2,11.3,3.3,23.3,3.9,35.1
					c1.1,24-1.8,47.7-8.4,69.3c-3.7,12-7,24-8.1,37.5c-1,12.9,1.1,26,2.2,38.7c1,11.7,1.1,23-0.3,34.6c-1.4,11.6-4.1,22.7-7.2,33.3
					c-3.3,11.1-7.4,21.5-11.7,31.6c-2,4.6-4.1,9.1-6.2,13.5c-2.4,5-5.1,10.1-7,15.6c-0.4,1.2-1.6,0.2-1.1-1
					c1.5-4.4,3.6-8.5,5.5-12.5c2.6-5.4,5.2-10.9,7.6-16.6c4.6-10.5,8.7-21.4,12.1-32.9c3.5-11.8,6.1-24.4,7.4-37.3
					c1.2-12.8-0.1-25.8-1.4-38.4c-1.2-12.3-2-24-0.4-36.3c1.6-12.4,5.4-23.4,8.7-34.7c6.8-23.4,8.4-49.2,6.3-74.6
					c-0.9-11.3-2.5-22.2-5.1-32.8c-2.5-10.4-6.1-19.9-9.5-29.7c-5.6-16.5-10.4-37.6-7.8-56.5C627.2,173.3,628.5,173.8,628.3,175.1
					L628.3,175.1z"/>
			</g>
		</g>
	</g>
	<g>
		<path class="st9" d="M582.1,426.1c22.9-1.3,40.6-27,39.5-47.1c-1.2-20.8-16.7-36.7-23.3-55.8c-14.2-41.7,15.6-81.6-1.3-122.4
			c-19.3-46.3-70.4-51.1-102-82.7c-7.4-7.2-10.7-16.8-16.7-24.1c-10.5-12.6-17.6-3.2-18.9,10.1c-1.6,21.7,15,44.4,25.7,61.9
			c11.5,19.5,22.4,39.1,25,61.9c1.9,20.8-8.5,35.3-10.2,54.9c-0.8,11.2-0.8,23-0.2,33.4c0.6,11.1,6.6,18.4,12,27.9
			c11.5,18.2,17.9,30.7,29.3,48.8c4.6,8.1,5.9,24.6,11.2,32.6C557.5,432.2,575.6,435.5,582.1,426.1"/>
		<g>
			<path class="st2" d="M469.4,111.2c2.1,28.6,24.5,51.4,43.8,70.2c9.6,9.3,18.6,19.3,26.1,30.4c8.3,12.1,14.6,25.8,19.9,39.5
				c10.7,27.8,13.7,57.6,8.6,87c-2.8,16.4-4.8,32.5-2.1,49.1c2.7,15.9,11.3,30.2,18,44.7c6.1,13.3,10.3,26.7,11.7,41.2
				c1.4,14.5,0.3,29.2-1.9,43.6c-2.3,15-6.4,29.7-11.1,44.2c-2.1,6.6-4.5,13.1-6.9,19.6c-2.8,7.3-6.1,14.8-7.8,22.5
				c-0.4,1.6-2.9,1.1-2.5-0.5c1.4-6.1,3.8-12.2,6.1-18.1c3.1-7.9,6-16,8.6-24c5-15,8.9-30.4,11.4-46c2.5-16,2.9-32.4,0.7-48.5
				c-2.2-15.9-9.4-30.5-16.3-44.8c-6.7-13.9-12.4-27.3-13.7-42.9c-1.3-15.6,1.9-30.8,4.2-46.1c4.7-31.7-1.5-63.1-14.5-92.1
				c-5.8-12.8-12.7-25-21.3-36c-8.6-10.9-18.8-20.1-28.6-29.9c-16.5-16.3-33.2-38.7-34.9-62.6C466.7,109.7,469.3,109.5,469.4,111.2
				L469.4,111.2z"/>
		</g>
	</g>
	<g>
		<path class="st8" d="M550.3,503.2c18.8-0.9,33.1-21.6,32.1-38c-1.1-16.9-13.8-29.8-19.4-45.3c-11.8-33.8,12.4-66.1-1.7-99.2
			c-16-37.6-57.9-41.8-84-67.6c-6.1-5.9-8.8-13.7-13.8-19.6c-8.6-10.3-14.4-2.7-15.5,8.1c-1.2,17.5,12.5,36.1,21.4,50.3
			c9.5,15.9,18.5,31.8,20.8,50.3c1.6,16.8-6.8,28.5-8,44.4c-0.6,9.1-0.5,18.6,0,27.1c0.6,9,5.5,21.1,10,28.8
			c9.5,14.8,14.8,18.8,24.3,33.6c3.8,6.6,5,19.9,9.4,26.5C530.2,507.9,545,510.7,550.3,503.2"/>
		<g>
			<path class="st9" d="M559.2,567.2c1-10.6,0.9-21.2-0.6-31.7c-1.9-12.9-7.8-24.8-13.6-36.4c-5.6-11.3-10.3-22.2-11.5-34.8
				c-1.2-12.7,1.4-24.9,3.2-37.4c3.7-25.6-1.6-51.2-12.4-74.7c-4.8-10.4-10.5-20.3-17.7-29.3c-7.1-8.9-15.5-16.4-23.6-24.3
				c-13.6-13.3-27.4-31.5-28.9-51c-0.1-1.4,2-1.5,2.1-0.1c1.8,23.2,20.3,41.8,36.3,57.1c7.9,7.6,15.3,15.7,21.5,24.7
				c6.8,9.9,12.1,21,16.5,32.1c8.9,22.6,11.5,46.8,7.5,70.6c-2.2,13.2-3.8,26.3-1.4,39.7c2.3,12.9,9.4,24.5,15,36.3
				c5.1,10.8,8.6,21.7,9.8,33.5c0.9,8.7,0.7,17.4-0.2,26.1C560.6,567.3,559.9,567.2,559.2,567.2z"/>
		</g>
	</g>
	<g>
		<path class="st7" d="M632,524.3c14.5,9.5,36.7,1.7,45-11c8.6-13.2,6.3-29.7,10.8-44.3c10-31.6,46-42.6,53.9-75
			c8.9-36.7-19.9-62.5-25.1-95.8c-1.2-7.7,1-15,0.7-22.1c-0.7-12.3-9.3-9.8-16-2.3c-10.6,12.5-10.7,33.7-12,49.1
			c-1.7,17-3.9,33.8-12.5,48.8c-8.2,13.5-20.9,17.6-30.7,28.8c-5.5,6.4-10.8,13.6-15.1,20.2c-4.6,7-7.6,18.7-8.6,26.9
			c-1.1,16.1,0.6,22.1-0.6,38.2c-0.8,7-7.4,17.6-7.8,24.8C614.3,517,623.9,527.1,632,524.3"/>
		<g>
			<path class="st2" d="M603.1,576.9c6.6-7.3,12.5-15.3,17.2-24c5.8-10.6,7.9-22.7,10.1-34.5c2.1-11.5,4.7-22.1,10.8-32.2
				c6.2-10.1,14.9-17.8,23.2-26.2c17-17.1,27.3-39.1,32.3-62.5c2.2-10.4,3.5-20.8,3.1-31.4c-0.3-10.5-2.4-20.6-4-30.9
				c-2.7-17.3-2.9-38.3,6.8-53.7c0.7-1.1,2.3,0,1.6,1.1c-11.5,18.3-8.1,42.2-4.7,62.2c1.7,10,2.7,20,2.3,30.1
				c-0.4,11.1-2.7,22.2-5.6,32.9c-5.9,21.7-17.4,41.1-33.6,56.7c-9,8.7-17.5,17.6-23.2,28.9c-5.5,10.9-6.6,23.4-9,35.2
				c-2.2,10.8-5.6,20.8-11.3,30.3c-4.2,7-9.2,13.4-14.6,19.3C604,577.8,603.5,577.3,603.1,576.9z"/>
		</g>
	</g>
	<g>
		<g>
			<path class="st11" d="M505.8,487.8c-0.9,4.2-2.4,8.1-4.4,11.5c0,0.8,0,1.7-0.2,2.6c0,0,0,0,0,0c-1.3,6.2-7.4,12.9-11.1,13.4
				c-2.4,0.1-5-1.2-7.5-2.5c-2.2-1.1-4.3-2.2-6.2-2.3c-4.7,0-8.6-0.2-12.4-0.3c-3.8-0.2-7.7-0.3-12.4-0.3c-0.9-0.1-1.8-0.1-2.7-0.1
				c-3.6-0.1-7.1-0.1-10-2.9c-3.4-3.2-6.9-7.2-9.9-11.1c-2.2-3.1-3.6-6.8-5-10.3c-1.9-5-3.7-9.6-7.6-13c-7.5-5.9-16.7-6.8-27-7.2
				c-1.1,0-2.3,0-3.6,0c-8.4,0-18.9,0.1-24.1-7c-2-2.9-2.8-6.1-2.3-8.8c0.4-1.8,1.7-4.8,6.5-5.7c1.9-0.3,3.7-0.2,5.4-0.2
				c2.4,0.1,4.9,0.2,7.5-0.6c7.9-2.4,15.8-7.7,23.5-12.9c12.1-8.1,24.6-16.5,37.3-13.4c9.4,2.4,14.4,11.3,19.3,20
				c4.5,8.1,9.2,16.5,17.5,19.5c3,1.1,6.5,1.3,9.8,1.5c5.4,0.4,11,0.7,15.1,4.7C506,467.1,507.9,477.7,505.8,487.8z M500.3,499.2
				l0.2-0.3c2-3.2,3.5-7,4.3-11.1c2-9.7,0.2-19.8-4.4-24.1c-4-3.8-9.2-4.1-14.7-4.5c-3.4-0.2-6.8-0.5-10-1.6
				c-8.5-3.1-13.3-11.6-17.9-19.8c-5-8.9-9.7-17.4-18.8-19.7c-12.4-3.1-24.1,4.9-36.6,13.2c-7.7,5.2-15.7,10.6-23.8,13
				c-2.8,0.9-5.3,0.8-7.8,0.7c-1.8-0.1-3.5-0.1-5.3,0.2c-2.1,0.4-4.7,1.4-5.3,4.2c-0.5,2.2,0.3,5.1,2.1,7.7c5,6.8,15.3,6.7,23.6,6.7
				c1.2,0,2.4,0,3.6,0c10.1,0.4,19.7,1.2,27.4,7.3c4,3.5,6,8.5,7.9,13.3c1.3,3.5,2.7,7,4.9,10.1c2.9,3.9,6.4,7.8,9.8,11
				c2.7,2.6,5.9,2.6,9.6,2.7c0.9,0,1.8,0,2.7,0.1c4.7,0,8.6,0.2,12.4,0.3c3.8,0.2,7.7,0.4,12.4,0.3c2,0.1,4.2,1.2,6.4,2.4
				c2.5,1.2,5,2.5,7.2,2.5c3.2-0.5,8.7-6.6,9.9-12h0c0.2-0.9,0.2-1.7,0.2-2.4L500.3,499.2z"/>
		</g>
		<g>
			<g>
				<path class="st2" d="M367.7,454.9c9.2,8.3,23.9,4,36.3,0.1c6.2-2,12.3-3.4,18.2-3.7c6.5-0.3,12.8,0.8,18.7,2.6
					c12,3.5,21.9,11.8,28.8,24c3.9,6.8,7.9,13.2,13.8,17.2c5.7,3.8,12.9,4,19.6,5.2c6.1,1.1,11.5,3.3,16.4,7.4
					c4.8,4,8.8,9.4,12.2,15.3c3.6,6.2,6.6,13.1,9.2,20.3c1.2,3.3,2.3,6.6,3.4,10c1.2,3.8,2.2,8.1,3.9,11.5c0.4,0.7-0.7,1.9-1.1,1.1
					c-1.3-2.7-2.3-6-3.2-9.1c-1.3-4.2-2.6-8.4-4.1-12.4c-2.7-7.5-5.9-14.6-9.6-21c-3.9-6.6-8.6-12.2-14.1-16.3
					c-5.5-4.1-12.4-5.1-19-6.2c-6.5-1-12.5-2.5-17.6-6.9c-5.1-4.4-8.5-11.1-12.2-17.3c-7.7-12.8-19.3-19.9-32.4-22.6
					c-5.8-1.2-11.9-1.6-18.2-0.7c-6.3,0.9-12.6,3.2-19,5.2c-10.7,3.3-23.2,4.7-30.9-2.3C366.3,455.8,367.2,454.4,367.7,454.9
					L367.7,454.9z"/>
			</g>
		</g>
	</g>
	<polygon class="st4" points="481.6,533.1 643.6,567.9 633.9,720.9 509,720.9 	"/>
</g>
</svg>
