<svg overflow="visible" viewBox="0 0 856  610" xmlns="http://www.w3.org/2000/svg"><g><defs><path id="path-1621576930622308" d="M511 5 C511 5 909 525 932 553 C955 581 999 645 1089 568 C1179 491 1363 322 1363 322 C1363 322 1363 -5 1363 -5 C1363 -5 507 0 507 0 C507 0 511 5 511 5 Z"></path><linearGradient id="gradient-1621576930637310" x1="50%" y1="100%" x2="50%" y2="0%"><stop offset="0%" stop-color="rgb(100,38,171)" stop-opacity="1"></stop><stop offset="100%" stop-color="rgb(114,118,232)" stop-opacity="1"></stop></linearGradient></defs> <path d="M4 10 C4 10 402 530 425 558 C448 586 492 650 582 573 C672 496 856 327 856 327 C856 327 856 0 856 0 C856 0 0 5 0 5 C0 5 4 10 4 10 Z" style="stroke: rgb(140, 140, 140); stroke-width: 0; stroke-linecap: butt; stroke-linejoin: miter; fill: url(&quot;#gradient-1621576930637310&quot;);"
 transform="rotate(1 20 100)
            translate(15 -120)
            scale(1 1)">></path></g></svg>