<?xml version="1.0" encoding="utf-8"?>
<!-- Generator: Adobe Illustrator 19.0.0, SVG Export Plug-In . SVG Version: 6.00 Build 0)  -->
<svg version="1.1" id="Layer_1" xmlns="http://www.w3.org/2000/svg" xmlns:xlink="http://www.w3.org/1999/xlink" x="0px" y="0px"
	 viewBox="0 0 831.4 656.8" style="enable-background:new 0 0 831.4 656.8;" xml:space="preserve">
<style type="text/css">
	.st0{fill:#4F6AFF;}
	.st1{fill:#251B2D;}
	.st2{fill:#FA3A6A;}
	.st3{fill:#98CCFE;}
	.st4{fill:#FFFFFF;}
	.st5{fill:#231F20;}
	.st6{fill:#13316B;}
	.st7{fill:#E97388;}
	.st8{fill:#FFE9C2;}
	.st9{fill:#19305F;}
	.st10{fill:#44BCC6;}
	.st11{fill:#88EAED;}
	.st12{fill:#33ACAF;}
	.st13{fill:#0F0D0D;}
	.st14{fill:#100B0D;}
	.st15{fill:#FFF6E1;}
	.st16{fill:#FFF1CF;}
</style>
<g>
	<g>
		<g>
			<g>
				<path class="st0" d="M404.9,325.6c0,0-45-77.9-19-64.1c26,13.8,14.7,37,37.3,37.7c22.6,0.7,33.9,11.4,34.3,26.5
					c0.4,15,17.3,3.9,19.5,24.5c2.2,20.6-4.2,30.8-16,25.3c-11.8-5.5-3.1,3.3-17.2-7.1C429.6,358,404.9,325.6,404.9,325.6z"/>
			</g>
			<g>
				<g>
					<path class="st1" d="M344.2,275.9c0,0-5.3-19.1,0-29c5.3-9.9,25.2-14.4,34.1-3.5l-3.1,11.8c0,0-7.3,12.8-7.6,13.1
						c-0.3,0.4-7.4,7.4-8,7.1C359,275.1,344.2,275.9,344.2,275.9z"/>
					<path d="M344,276.2l-0.1-0.2c-0.1-0.2-5.2-19.3,0-29.2c3-5.8,11.3-9.9,19.6-9.9c6.2,0,11.5,2.3,14.9,6.4l0.1,0.1l-3.2,11.9
						c-0.8,1.3-7.3,12.8-7.6,13.2c-0.1,0.1-7.1,7.2-8.1,7.2h-0.1l-0.1,0c0,0-0.2,0-1.1,0c-3.6,0-14,0.5-14.1,0.6L344,276.2z
						 M363.6,237.3c-8.2,0-16.2,4.1-19.2,9.7c-4.9,9.2-0.5,26.7,0,28.7c1.4-0.1,10.6-0.5,14-0.5c0.9,0,1.2,0,1.3,0.1
						c0.8-0.2,7.2-6.3,7.7-7c0.2-0.3,5.5-9.5,7.6-13.1l3.1-11.6C374.7,239.5,369.6,237.3,363.6,237.3z"/>
				</g>
				<g>
					<path class="st2" d="M348,305.8l3.1-23.9c0,0-7.5,1.1-7.9-6.1c-0.5-7.2,6.7-8.1,9.7-6.9c0,0,6.8-10.4,1.3-21.7
						c0,0,13.6,7,24-3.7c0,0,26.2,41.6-2.9,43.4c0,0,1.8,29.3,1.8,29C377.1,315.4,348,305.8,348,305.8z"/>
					<path d="M377.8,318.1l-1-1.9l-0.1,0l0-0.2c-1.9-0.9-18-6.3-28.8-9.8l-0.4-0.1l3.1-23.7c-0.1,0-0.3,0-0.5,0
						c-2.1,0-7-0.6-7.3-6.6c-0.1-2.3,0.4-4.2,1.7-5.6c1.4-1.5,3.5-2.3,5.9-2.3c0.8,0,1.7,0.1,2.4,0.3c1-1.8,5.9-11.1,1.1-20.9
						l-0.6-1.2l1.2,0.6c0,0,4.3,2.2,9.8,2.2c5.3,0,9.9-2,13.6-5.8l0.4-0.4l0.3,0.5c0.6,1,15.6,25.1,9.4,37.3c-2,4-6.1,6.3-12.2,6.7
						c0.6,9.6,1.7,27,1.8,28.4l0,0l0,0.1L377.8,318.1z M348.6,305.4c19.9,6.6,26.1,8.8,28,9.6l-0.2-1.6l0.1,0.2
						c-0.4-6.6-1.6-25.8-1.7-26.8l0-0.5l0.5,0c5.9-0.4,9.9-2.5,11.9-6.3c5.5-10.8-6.9-32.4-9-35.9c-3.8,3.8-8.5,5.7-13.8,5.7
						c-4.1,0-7.4-1.1-9.1-1.8c4.6,11-1.8,20.9-1.8,21l-0.2,0.3l-0.3-0.1c-0.7-0.2-1.5-0.4-2.4-0.4c-1,0-3.6,0.2-5.2,2
						c-1.1,1.2-1.6,2.8-1.5,4.9c0.3,5,4.2,5.7,6.4,5.7c0.6,0,1-0.1,1-0.1l0.6-0.1L348.6,305.4z"/>
				</g>
				<g>
					<path class="st1" d="M346.5,247.6c0,0,2.1-14-9.2-13.1c-11.3,1-15.8-0.5-21.2-6.9c-5.5-6.4-9.8-8.1-14.2-5.1
						c0,0,0.2,15.2-3.6,20.9l4.1,6.7l-4.8-2.3c0,0-4.9,2.1-4,7.6c0.9,5.5,8.8,1.8,13.3-0.7c4.6-2.4,5.8-0.5,7.7,3.5
						c1.8,4,8.5,8.6,16.1-2.5c7.6-11.1,12.7-9.1,14.6-5.7C347.3,253.2,346.5,247.6,346.5,247.6z"/>
					<path d="M321.1,262.8c-3.1,0-5.6-2.3-6.7-4.6c-1.2-2.7-2.2-4.4-4.1-4.4c-0.9,0-1.9,0.3-3.2,1c-2.8,1.5-7,3.5-10,3.5
						c-2.1,0-3.4-1-3.7-3c-0.9-5.6,4.1-7.8,4.1-7.8l0.1,0l4.2,2l-3.8-6.1l0.1-0.1c3.7-5.6,3.6-20.6,3.6-20.7l0-0.1l0.1-0.1
						c1.5-1,2.9-1.5,4.4-1.5c3.1,0,6.3,2.1,10.1,6.6c4.6,5.4,8.3,7.1,15.5,7.1c1.6,0,3.4-0.1,5.5-0.3c3.1-0.3,5.5,0.6,7.1,2.5
						c3.2,3.7,2.3,10.2,2.3,10.8c0.1,0.6,0.4,2.9-0.1,3.4c-0.1,0.1-0.2,0.2-0.3,0.2l0,0c-0.3,0-0.7-0.3-1.1-1.2
						c-0.6-0.9-1.8-2.5-4-2.5c-2.1,0-5.5,1.4-10.2,8.3C326.9,261.6,323.4,262.8,321.1,262.8z M310.3,253.4c2.2,0,3.3,2,4.6,4.7
						c1,2.1,3.3,4.3,6.2,4.3c3.1,0,6.4-2.4,9.4-6.9c4.8-7,8.4-8.5,10.6-8.5c2.4,0,3.8,1.7,4.4,2.7c0.5,0.9,0.7,0.9,0.7,0.9
						c0.2-0.2,0.2-1.6,0-3.1l0,0l0,0c0-0.1,1-6.8-2.1-10.5c-1.5-1.8-3.8-2.6-6.8-2.3c-2.2,0.2-4,0.3-5.6,0.3
						c-7.2,0-11.2-1.8-15.9-7.3c-3.7-4.4-6.8-6.4-9.8-6.4c-1.4,0-2.7,0.4-4,1.4c0,1.6,0,15.2-3.6,20.8l4.4,7.2l-5.4-2.6
						c-0.7,0.3-4.5,2.4-3.8,7.3c0.3,1.8,1.3,2.6,3.2,2.6c2.9,0,7-2,9.8-3.5C308.2,253.7,309.4,253.4,310.3,253.4z"/>
				</g>
			</g>
			<g>
				<path class="st3" d="M281.7,327.5c0,0-14-21.3,7.7-34.4c21.6-13.1,27.7-1.4,33.3-20.3c5.7-18.9,23.8-7,16.1,11.7
					c-7.7,18.8-20,45.5-20,45.5s-5.9,8.3-9.8,6.8C305,335.2,281.7,327.5,281.7,327.5z"/>
			</g>
			<g>
				<path class="st2" d="M538,284.8c-9-2.3-19.3,7.7-19.3,7.7l5.2-6.6c-4.3-1.6-11.4,4.7-11.4,4.7l1.6-3.8
					c-11.4-2-14.8,13.7-14.8,13.7l-7.9-16.9c0,0-5.1,2.2-5.3,7.6c-0.1,5.4,4.2,12.7,0,12.7c-4.2,0-10.7-18.6-15.3-15.6
					c-4.6,3,0,21.1,0,21.1L437,343.4l-10-14.6l-34.7,5.7l-6.5,10l10,29c0,0,16,32.3,31.2,38.5c15.2,6.2,28.7-13,28.7-13L539,285.1
					c-0.2-0.1-0.5-0.2-0.7-0.2C538.1,284.9,538,284.8,538,284.8z"/>
				<path d="M433.2,413.7C433.2,413.7,433.2,413.7,433.2,413.7c-2.2,0-4.3-0.4-6.4-1.3c-15.2-6.2-30.8-37.4-31.4-38.7l0-0.1
					l-10.1-29.2L392,334l35.2-5.8l9.9,14.4l33.3-33.3c-0.6-2.3-4.3-18.4,0.3-21.4c0.4-0.3,0.9-0.4,1.3-0.4c2.6,0,5.2,4.2,8,8.6
					c2.2,3.4,4.6,7.3,6.2,7.3c0.5,0,0.9-0.1,1.1-0.4c0.6-0.8,0.1-3-0.5-5.4c-0.5-2.1-1.1-4.4-1.1-6.5c0.1-5.7,5.3-7.9,5.6-8l0.4-0.2
					l7.5,16.2c1-3.5,4.6-13,12.9-13c0.7,0,1.4,0.1,2.1,0.2l0.6,0.1l-1.1,2.6c2-1.5,5.6-3.9,8.7-3.9c0.6,0,1.2,0.1,1.7,0.3l0.6,0.2
					l-2.8,3.6c3.2-2.4,8.3-5.4,13.4-5.4c1,0,2,0.1,2.9,0.3l0.3,0.1c0.3,0.1,0.6,0.2,0.8,0.2l0.6,0.2l-0.4,0.5l-83.2,113.9
					C455.7,399.9,445.8,413.7,433.2,413.7z M396.2,373.3c0.5,1.1,16.3,32.2,30.9,38.3c2,0.8,4,1.2,6,1.2c12.1,0,22-13.9,22.1-14.1
					l82.9-113.4c0,0-0.1,0-0.1,0l-0.2-0.1c-0.8-0.2-1.7-0.3-2.6-0.3c-7.9,0-16.1,7.9-16.2,7.9l-0.7-0.6l4.8-6
					c-0.2,0-0.5-0.1-0.7-0.1c-4,0-9.5,4.7-9.5,4.8l-1.5,1.3l2.2-5.1c-0.4-0.1-0.9-0.1-1.3-0.1c-9.3,0-12.3,13.4-12.3,13.5l-0.3,1.3
					l-8.2-17.8c-1.2,0.6-4.5,2.7-4.6,7c0,2,0.5,4.2,1,6.3c0.7,2.7,1.3,5,0.3,6.2c-0.4,0.5-1,0.7-1.8,0.7c-2.1,0-4.4-3.6-7-7.7
					c-2.4-3.8-5.2-8.2-7.2-8.2c-0.3,0-0.5,0.1-0.8,0.3c-3.6,2.3-1.1,15.7,0.2,20.6l0.1,0.3l-0.2,0.2l-34.3,34.3l-10.2-14.9
					l-34.2,5.6l-6.3,9.7L396.2,373.3z"/>
			</g>
			<g>
				<path class="st4" d="M350,296.1l-22.1-2.9c0,0-11.9-3-22.2,12.7c-10.3,15.7-11.1,17.6-11.1,17.6l39.6,20.9l-44.7,69.4l106.5-0.7
					l10.1-68.4l24.7-12.2l-14.8-22c0,0-6.4-8-15.7-9.2C390.8,300.2,350,296.1,350,296.1z"/>
				<path d="M396.2,413.7l-0.5-0.1l-107.2,0.6l44.8-69.6l-39.5-20.8l0.2-0.4c0-0.1,0.9-2.1,11.2-17.7c7.5-11.5,15.9-13.2,20.2-13.2
					c1.4,0,2.3,0.2,2.5,0.2l22.1,2.9c0.4,0,40.9,4,50.1,5.2c9.4,1.2,15.8,9.1,16,9.4l15.1,22.4l-24.9,12.3L396.2,413.7z
					 M290.1,413.6l105.3-0.9l10.1-68.2l24.4-12.1l-14.5-21.5c0,0-6.4-7.8-15.4-9c-9.2-1.2-49.7-5.2-50.1-5.2l-22.2-2.9
					c0,0-0.9-0.2-2.3-0.2c-4.1,0-12.1,1.7-19.4,12.8c-8.1,12.3-10.3,16.1-10.9,17.2l39.6,20.9L290.1,413.6z"/>
			</g>
			<g>
				<path class="st2" d="M367.9,377.4c0,0,8.7-0.8,11.7-3.8c2.9-3,5.7-3.1,6.8-0.6c1.1,2.5,0,10.7-8.5,12.3
					c-8.5,1.6-10.8-2.4-10.8-2.4L367.9,377.4z"/>
				<path d="M374.1,386.2c-5.7,0-7.3-2.9-7.4-3.1l-0.1-0.1l1-6l0.4,0c0.1,0,8.6-0.8,11.4-3.7c1.6-1.6,3.2-2.5,4.6-2.5
					c1.3,0,2.3,0.7,2.9,2c0.7,1.5,0.6,4.6-0.9,7.4c-1.1,2.1-3.4,4.7-8,5.6C376.6,386,375.3,386.2,374.1,386.2z M367.5,382.8
					c0.4,0.5,2,2.5,6.5,2.5c1.1,0,2.4-0.1,3.7-0.4c4.2-0.8,6.3-3.2,7.3-5.1c1.4-2.7,1.4-5.4,0.9-6.6c-0.4-1-1.1-1.5-2-1.5
					c-1.2,0-2.6,0.8-4,2.2c-2.7,2.8-9.9,3.7-11.6,3.9L367.5,382.8z"/>
			</g>
			<g>
				<g>
					<path class="st2" d="M400.9,402.5c0-0.2-0.1-0.3-0.3-0.3h-12.2c-0.2,0-0.3,0.1-0.3,0.3v6.1c0,0.2,0.1,0.3,0.3,0.3h12.2
						c0.2,0,0.3-0.1,0.3-0.3V402.5z"/>
				</g>
				<g>
					<path class="st1" d="M377.2,414.3l3.4-5.3c0,0,0.5-1,2.3-0.9c1.8,0,78,0,78,0v6.2H377.2z"/>
				</g>
			</g>
			<g>
				
					<rect x="338.5" y="327.7" transform="matrix(0.8571 0.5151 -0.5151 0.8571 221.8898 -126.3908)" class="st5" width="0.5" height="18"/>
			</g>
			<g>
				<rect x="375.5" y="352" class="st5" width="22.3" height="0.5"/>
			</g>
			<g>
				
					<rect x="342.6" y="351.3" transform="matrix(0.9911 0.133 -0.133 0.9911 49.8351 -43.1846)" class="st5" width="11.3" height="0.5"/>
			</g>
			<g>
				<path class="st1" d="M265.7,273h-46.6c-2.5,0-4.6-2.1-4.6-4.6v-0.1c0-2.5,2.1-4.6,4.6-4.6h46.6c2.5,0,4.6,2.1,4.6,4.6v0.1
					C270.3,271,268.2,273,265.7,273z M219.1,264.3c-2.3,0-4.1,1.8-4.1,4.1v0.1c0,2.3,1.8,4.1,4.1,4.1h46.6c2.3,0,4.1-1.8,4.1-4.1
					v-0.1c0-2.3-1.8-4.1-4.1-4.1H219.1z"/>
			</g>
			<g>
				<path class="st1" d="M311.9,271.3h-19c-2,0-3.7-1.7-3.7-3.7c0-2,1.7-3.7,3.7-3.7h19c2,0,3.7,1.7,3.7,3.7
					C315.6,269.6,313.9,271.3,311.9,271.3z M292.9,264.3c-1.8,0-3.3,1.5-3.3,3.3c0,1.8,1.5,3.3,3.3,3.3h19c1.8,0,3.3-1.5,3.3-3.3
					c0-1.8-1.5-3.3-3.3-3.3H292.9z"/>
			</g>
			<g>
				<path class="st1" d="M289.8,440.2h-46.6c-2.5,0-4.6-2.1-4.6-4.6v-0.1c0-2.5,2.1-4.6,4.6-4.6h46.6c2.5,0,4.6,2.1,4.6,4.6v0.1
					C294.4,438.1,292.3,440.2,289.8,440.2z M243.2,431.5c-2.3,0-4.1,1.8-4.1,4.1v0.1c0,2.3,1.8,4.1,4.1,4.1h46.6
					c2.3,0,4.1-1.8,4.1-4.1v-0.1c0-2.3-1.8-4.1-4.1-4.1H243.2z"/>
			</g>
			<g>
				<path class="st1" d="M410.5,453.3h-46.6c-2.5,0-4.6-2.1-4.6-4.6v-0.1c0-2.5,2.1-4.6,4.6-4.6h46.6c2.5,0,4.6,2.1,4.6,4.6v0.1
					C415.1,451.3,413,453.3,410.5,453.3z M363.9,444.6c-2.3,0-4.1,1.8-4.1,4.1v0.1c0,2.3,1.8,4.1,4.1,4.1h46.6
					c2.3,0,4.1-1.8,4.1-4.1v-0.1c0-2.3-1.8-4.1-4.1-4.1H363.9z"/>
			</g>
			<g>
				<path class="st1" d="M336,438.4h-19c-2,0-3.7-1.7-3.7-3.7c0-2,1.7-3.7,3.7-3.7h19c2,0,3.7,1.7,3.7,3.7
					C339.7,436.8,338,438.4,336,438.4z M317,431.5c-1.8,0-3.3,1.5-3.3,3.3c0,1.8,1.5,3.3,3.3,3.3h19c1.8,0,3.3-1.5,3.3-3.3
					c0-1.8-1.5-3.3-3.3-3.3H317z"/>
			</g>
			<g>
				<path class="st1" d="M231.6,457h-19c-2,0-3.7-1.7-3.7-3.7c0-2,1.7-3.7,3.7-3.7h19c2,0,3.7,1.7,3.7,3.7
					C235.3,455.4,233.7,457,231.6,457z M212.6,450.1c-1.8,0-3.3,1.5-3.3,3.3c0,1.8,1.5,3.3,3.3,3.3h19c1.8,0,3.3-1.5,3.3-3.3
					c0-1.8-1.5-3.3-3.3-3.3H212.6z"/>
			</g>
			<g>
				<path class="st1" d="M265.7,351h-32.8c-2.5,0-4.6-2-4.6-4.6v-51c0-2.5,2.1-4.6,4.6-4.6h32.8c2.5,0,4.6,2,4.6,4.6v51
					C270.3,348.9,268.2,351,265.7,351z M232.9,291.3c-2.3,0-4.1,1.8-4.1,4.1v51c0,2.3,1.8,4.1,4.1,4.1h32.8c2.3,0,4.1-1.8,4.1-4.1
					v-51c0-2.3-1.8-4.1-4.1-4.1H232.9z"/>
			</g>
			<g>
				<g>
					<g>
						<polygon class="st0" points="260.5,414.6 267.8,382.4 228.1,385.1 235.1,414.6 						"/>
					</g>
					<g>
						<path class="st6" d="M267.8,382.4l-39.7,2.7l1,4.1c2.2,1.9,5.5,4.2,9.9,5.3c7.5,1.7,19.8,1.8,27.3-5.6L267.8,382.4z"/>
					</g>
					<g>
						<path class="st7" d="M226,373.9l1.3,11.4c0,0,2.9,5,11.7,7c8.7,2,22.7,0.9,29.2-7.7l1.4-11.3L226,373.9z"/>
					</g>
					<g>
						<ellipse class="st4" cx="247.8" cy="373.9" rx="21.8" ry="12.9"/>
					</g>
					<g>
						<ellipse class="st8" cx="247.8" cy="373.9" rx="20.4" ry="11.8"/>
					</g>
					<g>
						<path class="st9" d="M247.9,374.9c-7.2,0-13.6,2.2-17.2,5.4c3.7,3.2,9.9,5.3,17.1,5.3c7.2,0,13.6-2.2,17.2-5.4
							C261.3,377.1,255.1,374.9,247.9,374.9z"/>
					</g>
					<g>
						<g>
							<g>
								<path class="st10" d="M236.9,372.2c0.4-1.9,0.3-3.6,0.2-5.1c-0.2-1.5-0.5-2.8-0.9-4.1c-0.9-2.5-2.3-4.5-4-6.1
									c-1.7-1.6-3.6-3-5.5-4.4c-1.9-1.4-3.8-2.7-5.9-3.8c-4-2.4-8.3-4.4-12.8-5.9c-1.1-0.4-2.3-0.7-3.4-1
									c-1.2-0.3-2.3-0.6-3.5-0.8c-1.2-0.3-2.4-0.4-3.6-0.6c-1.2-0.1-2.5-0.2-3.7-0.2c-0.3,0-0.6,0.3-0.6,0.6c0,0.1,0,0.2,0.1,0.3
									l0,0c1.4,2.2,2.9,4,4.4,5.8c1.5,1.8,3,3.5,4.5,5.2c3.1,3.3,6.2,6.4,9.3,9.3c1.6,1.5,3.2,2.9,4.8,4.3
									c1.6,1.4,3.2,2.8,4.9,4.2c1.7,1.3,3.7,2.2,6.1,2.8c1.2,0.3,2.5,0.4,4,0.5c1.5,0,3,0,5-0.3l0,0
									C236.5,372.9,236.8,372.6,236.9,372.2z"/>
							</g>
							<g>
								<path class="st11" d="M235.1,369.5c-2.3-2.6-4.8-5-7.4-7.2c-1.3-1.1-2.7-2.2-4-3.3c-1.4-1.1-2.8-2.1-4.1-3.1
									c-2.8-2-5.7-3.9-8.7-5.6c-3-1.8-6.1-3.3-9.3-4.7c2.6,2.3,5.4,4.4,8.1,6.4c2.7,2.1,5.5,4.1,8.3,6.1c2.8,2,5.6,4,8.4,5.9
									C229.3,365.8,232.1,367.7,235.1,369.5z"/>
							</g>
							<g>
								<g>
									<path class="st12" d="M193.1,340.7c0.4,0.4,0.7,0.8,1.1,1.3c1.5,1.7,3.1,3.2,4.6,4.8c3.1,3,6.2,5.9,9.4,8.6
										c1.6,1.4,3.2,2.7,4.8,4c1.6,1.3,3.2,2.6,4.9,3.8c1.7,1.2,3.7,2,6,2.4c1.2,0.2,2.5,0.3,3.8,0.3c1.4,0,2.9-0.1,4.8-0.5l0,0
										c0.4-0.1,0.6-0.4,0.7-0.7c0.3-1.9,0.2-3.5,0-4.9c-0.1-0.8-0.3-1.6-0.5-2.3c1.5,1.5,2.6,3.4,3.4,5.6
										c0.4,1.2,0.8,2.6,0.9,4.1c0.2,1.5,0.2,3.1-0.2,5.1c-0.1,0.4-0.4,0.7-0.7,0.7l0,0c-1.9,0.3-3.5,0.4-5,0.3
										c-1.4-0.1-2.8-0.2-4-0.5c-2.4-0.6-4.4-1.5-6.1-2.8c-1.7-1.3-3.3-2.7-4.9-4.2c-1.6-1.4-3.2-2.9-4.8-4.3
										c-3.2-2.9-6.3-6-9.3-9.3c-1.5-1.7-3-3.3-4.5-5.2c-1.5-1.8-3-3.6-4.4-5.8l0,0c-0.1-0.1-0.1-0.2-0.1-0.3
										C193.1,340.8,193.1,340.8,193.1,340.7z"/>
								</g>
							</g>
						</g>
						<g>
							<g>
								<path class="st10" d="M261.7,375c-0.4-1.9-0.3-3.6-0.2-5.1c0.2-1.5,0.5-2.8,0.9-4.1c0.9-2.5,2.3-4.5,4-6.1
									c1.7-1.6,3.6-3,5.5-4.4c1.9-1.4,3.8-2.7,5.9-3.8c4-2.4,8.3-4.4,12.8-5.9c1.1-0.4,2.3-0.7,3.4-1c1.2-0.3,2.3-0.6,3.5-0.8
									c1.2-0.3,2.4-0.4,3.6-0.6c1.2-0.1,2.5-0.2,3.7-0.2c0.3,0,0.6,0.3,0.6,0.6c0,0.1,0,0.2-0.1,0.3l0,0c-1.4,2.2-2.9,4-4.4,5.8
									c-1.5,1.8-3,3.5-4.5,5.2c-3.1,3.3-6.1,6.4-9.3,9.3c-1.6,1.5-3.2,2.9-4.8,4.3c-1.6,1.4-3.2,2.8-4.9,4.2
									c-1.7,1.3-3.7,2.2-6.1,2.8c-1.2,0.3-2.5,0.4-4,0.5c-1.5,0-3,0-5-0.3l0,0C262.1,375.7,261.8,375.4,261.7,375z"/>
							</g>
							<g>
								<path class="st11" d="M263.5,372.3c2.3-2.6,4.8-5,7.4-7.2c1.3-1.1,2.7-2.2,4-3.3c1.4-1.1,2.8-2.1,4.1-3.1
									c2.8-2,5.7-3.9,8.7-5.6c3-1.8,6.1-3.3,9.3-4.7c-2.6,2.3-5.4,4.4-8.1,6.4c-2.7,2.1-5.5,4.1-8.3,6.1c-2.8,2-5.6,4-8.4,5.9
									C269.4,368.7,266.5,370.5,263.5,372.3z"/>
							</g>
							<g>
								<g>
									<path class="st12" d="M305.5,343.6c-0.4,0.4-0.7,0.8-1.1,1.3c-1.5,1.7-3.1,3.2-4.6,4.8c-3.1,3-6.2,5.9-9.4,8.6
										c-1.6,1.4-3.2,2.7-4.8,4c-1.6,1.3-3.2,2.6-4.9,3.8c-1.7,1.2-3.7,2-6,2.4c-1.2,0.2-2.5,0.3-3.8,0.3c-1.4,0-2.9-0.1-4.8-0.5
										l0,0c-0.4-0.1-0.6-0.4-0.7-0.7c-0.3-1.9-0.2-3.5,0-4.9c0.1-0.8,0.3-1.6,0.5-2.3c-1.5,1.5-2.6,3.4-3.4,5.6
										c-0.4,1.2-0.8,2.6-0.9,4.1c-0.2,1.5-0.2,3.1,0.2,5.1c0.1,0.4,0.4,0.7,0.7,0.7l0,0c1.9,0.3,3.5,0.4,5,0.3
										c1.4-0.1,2.8-0.2,4-0.5c2.4-0.6,4.4-1.5,6.1-2.8c1.7-1.3,3.3-2.7,4.9-4.2c1.6-1.4,3.2-2.9,4.8-4.3c3.2-2.9,6.3-6,9.3-9.3
										c1.5-1.7,3-3.3,4.5-5.2c1.5-1.8,3-3.6,4.4-5.8l0,0c0.1-0.1,0.1-0.2,0.1-0.3C305.5,343.7,305.5,343.6,305.5,343.6z"/>
								</g>
							</g>
						</g>
						<g>
							<path class="st10" d="M247.8,380.4c-3.9-3.6-5.9-7.2-7.6-10.9c-1.6-3.7-2.5-7.4-2.8-11c-0.4-3.7,0-7.3,0.3-11
								c0.2-1.8,0.4-3.7,0.6-5.5c0.3-1.8,0.6-3.7,0.9-5.5c1.4-7.3,3.4-14.5,6.4-21.5c0.7-1.7,1.6-3.5,2.5-5.2c0.9-1.7,1.8-3.4,2.9-5
								c1.1-1.6,2.1-3.3,3.3-4.8c1.3-1.5,2.6-3,4-4.4c0.3-0.2,0.7-0.2,0.9,0c0.1,0.1,0.2,0.2,0.2,0.4l0,0c0.8,7.8,1.3,14.9,1.7,21.9
								c0.3,7,0.5,14,0.4,20.9c0,1.7-0.1,3.5-0.1,5.2c0,1.7-0.1,3.5-0.2,5.2c-0.2,3.5-0.2,6.9-0.9,10.4c-0.7,3.4-1.8,6.9-3.5,10.4
								c-1.8,3.5-4,6.9-7.8,10.5l0,0C248.6,380.7,248.1,380.7,247.8,380.4z"/>
						</g>
						<g>
							<path class="st11" d="M247.5,376.1c-0.5-5.7-0.6-11.5-0.5-17.2c0.1-5.7,0.4-11.5,0.9-17.2c0.6-5.7,1.3-11.4,2.4-17.1
								c1.1-5.6,2.6-11.3,4.7-16.6c-1.3,5.6-2.2,11.2-3,16.9c-0.2,1.4-0.4,2.8-0.6,4.2l-0.5,4.3c-0.3,2.8-0.6,5.7-0.9,8.5
								c-0.6,5.7-1,11.4-1.4,17.1L247.5,376.1z"/>
						</g>
						<g>
							<g>
								<path class="st12" d="M260.2,359.5c0.7-3.4,0.8-6.9,0.9-10.4c0.1-1.7,0.1-3.5,0.2-5.2c0-1.7,0.1-3.5,0.1-5.2
									c0-0.7,0-1.3,0-2c-4.1,5.3-11.4,15.1-13.3,21c0,0-5.4-13.6-9.1-20.2c-0.3,1.5-0.5,3-0.7,4.4c-0.2,1.8-0.5,3.7-0.6,5.5
									c-0.3,3.7-0.7,7.3-0.3,11c0.3,3.7,1.2,7.4,2.8,11c1.7,3.7,3.7,7.3,7.6,10.9c0.3,0.3,0.8,0.3,1.1,0l0,0
									c3.8-3.6,5.9-7.1,7.8-10.5C258.4,366.4,259.5,362.9,260.2,359.5z"/>
							</g>
						</g>
						<g>
							<path class="st10" d="M238.6,382.4c-2-1.2-3.5-2.4-4.9-3.6c-1.3-1.2-2.4-2.5-3.4-3.8c-1.9-2.6-3.1-5.2-3.9-8
								c-1.4-5.6-2.6-11.2-3.8-16.7l-3.6-16.7c-1.3-5.6-2.5-11.1-4.5-17.2l0,0c-0.1-0.3,0.1-0.7,0.4-0.8c0.2,0,0.3,0,0.4,0
								c3.1,1.3,5.7,3.3,8.1,5.5c2.4,2.2,4.6,4.7,6.5,7.3c3.9,5.2,6.9,10.8,9.3,16.6c2.4,5.8,4.3,11.7,5.6,17.7
								c0.6,3,0.6,6.2-0.1,9.5c-0.4,1.6-0.9,3.3-1.7,5c-0.8,1.7-1.8,3.4-3.4,5.2C239.4,382.5,238.9,382.6,238.6,382.4L238.6,382.4z"
								/>
						</g>
						<g>
							<path class="st11" d="M238.7,376.1c-0.9-4.3-1.9-8.6-3-12.8c-1.1-4.2-2.3-8.4-3.8-12.5c-1.4-4.1-2.9-8.2-4.6-12.2
								c-1.6-4.1-3.5-8-5.3-12c2.6,3.6,5,7.3,6.9,11.3c1.1,2,1.9,4,2.8,6c0.4,1,0.8,2.1,1.2,3.1c0.4,1,0.8,2.1,1.1,3.1
								c1.4,4.2,2.5,8.5,3.3,12.8C238.3,367.3,238.8,371.7,238.7,376.1z"/>
						</g>
						<g>
							<g>
								<path class="st12" d="M245,362.6c0-0.1-0.1-0.2-0.1-0.4c-0.3,1.3-0.7,2.6-1.2,4c-0.7,1.5-1.5,3.1-2.8,4.8
									c-0.2,0.3-0.7,0.4-1,0.2l0,0c-1.9-1-3.3-2-4.5-3c-1.2-1-2.3-2.1-3.2-3.2c-1.8-2.2-3-4.5-3.8-6.9c-1.5-4.9-2.8-9.8-4.2-14.7
									l-4-14.7c-1.2-4.2-2.4-8.4-4-12.8c-0.3-0.1-0.6-0.3-0.9-0.4c-0.1-0.1-0.3-0.1-0.4,0c-0.3,0.1-0.5,0.5-0.4,0.8l0,0
									c2,6.1,3.2,11.6,4.5,17.2l3.6,16.7c1.2,5.6,2.4,11.1,3.8,16.7c0.8,2.8,2,5.4,3.9,8c0.9,1.3,2.1,2.6,3.4,3.8
									c1.3,1.2,2.8,2.5,4.9,3.6l0,0c0.4,0.2,0.8,0.1,1.1-0.2c1.6-1.8,2.6-3.5,3.4-5.2c0.8-1.7,1.4-3.4,1.7-5
									C245.6,368.8,245.6,365.6,245,362.6z"/>
							</g>
						</g>
						<g>
							<g>
								<path class="st10" d="M254.7,380.2c-1.5-2-2.4-3.9-3.1-5.7c-0.7-1.8-1.1-3.5-1.2-5.2c-0.4-3.3,0.1-6.4,1.1-9.2
									c1.1-2.8,2.4-5.4,3.8-8.1c1.4-2.6,2.9-5.2,4.5-7.7c3.3-5,7-9.7,11.3-13.9c1.1-1.1,2.2-2.1,3.3-3.1c1.2-1,2.3-2,3.6-2.9
									c1.2-1,2.5-1.8,3.8-2.7c1.3-0.8,2.7-1.6,4.1-2.4c0.4-0.2,0.8,0,1,0.3c0.1,0.1,0.1,0.3,0.1,0.4l0,0c-0.3,3.2-1.1,6.1-1.7,9
									c-0.7,2.9-1.5,5.7-2.2,8.4c-1.6,5.5-3.4,10.7-5.3,15.9c-1,2.6-2,5.1-3,7.6c-1,2.5-2.1,5-3.2,7.5c-1.2,2.4-2.9,4.6-5.4,6.6
									c-1.2,1-2.6,1.9-4.2,2.8c-1.6,0.9-3.4,1.7-5.8,2.4l0,0C255.5,380.8,255,380.6,254.7,380.2z"/>
							</g>
							<g>
								<path class="st11" d="M255.1,376.1c1.1-4.3,2.7-8.4,4.4-12.4c0.8-2,1.8-4,2.7-6c1-2,2-3.9,3-5.9c2.1-3.9,4.3-7.6,6.7-11.3
									c2.4-3.7,5-7.2,7.9-10.5c-1.7,4.1-3.6,8-5.6,11.9c-2,3.9-3.9,7.8-6,11.6c-2.1,3.8-4.1,7.7-6.3,11.4
									C259.7,368.7,257.5,372.4,255.1,376.1z"/>
							</g>
							<g>
								<g>
									<path class="st12" d="M286.6,319.7c-0.2,0.7-0.4,1.4-0.6,2.1c-0.8,2.8-1.6,5.4-2.5,8c-1.8,5.2-3.7,10.2-5.8,15.1
										c-1,2.4-2.1,4.9-3.2,7.2c-1.1,2.4-2.2,4.8-3.4,7.1c-1.3,2.3-3,4.4-5.5,6.2c-1.2,0.9-2.6,1.8-4.2,2.5
										c-1.6,0.8-3.4,1.5-5.7,2.1l0,0c-0.5,0.1-0.9-0.1-1.2-0.5c-1.4-2-2.1-3.8-2.7-5.6c-0.3-1-0.5-2-0.7-2.9
										c-0.8,2.6-1.1,5.3-0.8,8.3c0.2,1.7,0.6,3.4,1.2,5.2c0.7,1.8,1.5,3.7,3.1,5.7c0.3,0.4,0.8,0.6,1.3,0.4l0,0
										c2.4-0.7,4.2-1.5,5.8-2.4c1.6-0.9,3-1.8,4.2-2.8c2.4-2,4.1-4.2,5.4-6.6c1.1-2.5,2.2-5,3.2-7.5c1-2.5,2-5.1,3-7.6
										c1.9-5.1,3.7-10.4,5.3-15.9c0.8-2.8,1.6-5.5,2.2-8.4c0.6-2.9,1.4-5.8,1.7-9l0,0c0-0.1,0-0.3-0.1-0.4
										C286.7,319.8,286.7,319.8,286.6,319.7z"/>
								</g>
							</g>
						</g>
						<g>
							<g>
								<path class="st10" d="M248,381c0.3-1.7,0.9-3.1,1.5-4.3c0.6-1.2,1.3-2.2,2.1-3.1c1.6-1.7,3.3-3,5.3-3.7c2-0.7,4-1.3,6-1.8
									c2-0.5,4.1-0.9,6.1-1.2c4.1-0.6,8.3-0.9,12.5-0.7c1.1,0.1,2.1,0.2,3.2,0.3c1.1,0.2,2.1,0.3,3.2,0.5c1.1,0.2,2.1,0.4,3.2,0.7
									c1.1,0.3,2.1,0.6,3.2,1c0.3,0.1,0.4,0.4,0.3,0.7c0,0.1-0.1,0.2-0.2,0.2l0,0c-1.8,1.3-3.7,2.3-5.5,3.4
									c-1.8,1-3.6,1.9-5.4,2.8c-3.6,1.7-7.2,3.3-10.8,4.7c-1.8,0.7-3.6,1.4-5.4,2c-1.8,0.7-3.6,1.3-5.4,1.8
									c-1.8,0.5-3.8,0.6-6,0.3c-1.1-0.2-2.2-0.5-3.4-0.9c-1.2-0.4-2.5-1-4-1.9l0,0C248,381.7,247.9,381.3,248,381z"/>
							</g>
							<g>
								<path class="st11" d="M250.3,379.3c2.8-1.4,5.6-2.6,8.5-3.6c1.4-0.5,2.9-0.9,4.4-1.4c1.5-0.4,3-0.8,4.4-1.2
									c3-0.7,6-1.3,9-1.8c3-0.5,6.1-0.8,9.2-0.8c-2.9,1-5.9,1.9-8.8,2.7c-2.9,0.8-5.9,1.6-8.8,2.3c-3,0.7-5.9,1.4-8.9,2.1
									C256.4,378.2,253.4,378.8,250.3,379.3z"/>
							</g>
							<g>
								<g>
									<path class="st12" d="M294.5,369.3c-0.4,0.2-0.9,0.5-1.3,0.7c-1.8,0.9-3.6,1.7-5.4,2.5c-3.6,1.5-7.1,2.8-10.6,4
										c-1.8,0.6-3.5,1.2-5.3,1.7c-1.8,0.6-3.5,1.1-5.3,1.6c-1.8,0.4-3.7,0.5-5.8,0c-1-0.2-2.1-0.5-3.3-1c-1.2-0.5-2.4-1.1-3.8-2
										l0,0c-0.3-0.2-0.4-0.5-0.3-0.8c0.4-1.7,1-2.9,1.6-4c0.4-0.6,0.8-1.2,1.2-1.7c-1.7,0.8-3.3,1.9-4.7,3.5
										c-0.8,0.9-1.5,1.9-2.1,3.1c-0.6,1.2-1.2,2.5-1.5,4.3c-0.1,0.3,0.1,0.7,0.4,0.9l0,0c1.5,0.9,2.8,1.5,4,1.9
										c1.2,0.4,2.4,0.7,3.4,0.9c2.2,0.3,4.1,0.2,6-0.3c1.8-0.6,3.6-1.2,5.4-1.8c1.8-0.6,3.6-1.3,5.4-2c3.6-1.4,7.2-2.9,10.8-4.7
										c1.8-0.9,3.6-1.8,5.4-2.8c1.8-1,3.7-2,5.5-3.4l0,0c0.1-0.1,0.1-0.1,0.2-0.2C294.5,369.4,294.5,369.3,294.5,369.3z"/>
								</g>
							</g>
						</g>
						<g>
							<g>
								<path class="st10" d="M248.3,381c-0.3-1.7-0.9-3.1-1.5-4.3c-0.6-1.2-1.3-2.2-2.1-3.1c-1.6-1.7-3.3-3-5.3-3.7
									c-1.9-0.7-4-1.3-6-1.8c-2-0.5-4.1-0.9-6.1-1.2c-4.1-0.6-8.3-0.9-12.5-0.7c-1.1,0.1-2.1,0.2-3.2,0.3
									c-1.1,0.2-2.1,0.3-3.2,0.5c-1.1,0.2-2.1,0.4-3.2,0.7c-1.1,0.3-2.1,0.6-3.2,1c-0.3,0.1-0.4,0.4-0.3,0.7
									c0,0.1,0.1,0.2,0.2,0.2l0,0c1.8,1.3,3.7,2.3,5.5,3.4c1.8,1,3.6,1.9,5.4,2.8c3.6,1.7,7.2,3.3,10.8,4.7c1.8,0.7,3.6,1.4,5.4,2
									c1.8,0.7,3.6,1.3,5.4,1.8c1.8,0.5,3.8,0.6,6,0.3c1.1-0.2,2.2-0.5,3.4-0.9c1.2-0.4,2.5-1,4-1.9l0,0
									C248.2,381.7,248.4,381.3,248.3,381z"/>
							</g>
							<g>
								<path class="st11" d="M245.9,379.3c-2.8-1.4-5.6-2.6-8.5-3.6c-1.4-0.5-2.9-0.9-4.4-1.4c-1.5-0.4-3-0.8-4.4-1.2
									c-3-0.7-6-1.3-9-1.8c-3-0.5-6.1-0.8-9.2-0.8c2.9,1,5.9,1.9,8.8,2.7c2.9,0.8,5.9,1.6,8.8,2.3c3,0.7,5.9,1.4,8.9,2.1
									C239.9,378.2,242.9,378.8,245.9,379.3z"/>
							</g>
							<g>
								<g>
									<path class="st12" d="M201.8,369.3c0.4,0.2,0.9,0.5,1.3,0.7c1.8,0.9,3.6,1.7,5.4,2.5c3.6,1.5,7.1,2.8,10.6,4
										c1.8,0.6,3.5,1.2,5.3,1.7c1.8,0.6,3.5,1.1,5.3,1.6c1.8,0.4,3.7,0.5,5.8,0c1-0.2,2.1-0.5,3.3-1c1.2-0.5,2.4-1.1,3.8-2l0,0
										c0.3-0.2,0.4-0.5,0.3-0.8c-0.4-1.7-1-2.9-1.6-4c-0.4-0.6-0.8-1.2-1.2-1.7c1.7,0.8,3.3,1.9,4.7,3.5c0.8,0.9,1.5,1.9,2.1,3.1
										c0.6,1.2,1.2,2.5,1.5,4.3c0.1,0.3-0.1,0.7-0.4,0.9l0,0c-1.5,0.9-2.8,1.5-4,1.9c-1.2,0.4-2.4,0.7-3.4,0.9
										c-2.2,0.3-4.1,0.2-6-0.3c-1.8-0.6-3.6-1.2-5.4-1.8c-1.8-0.6-3.6-1.3-5.4-2c-3.6-1.4-7.2-2.9-10.8-4.7
										c-1.8-0.9-3.6-1.8-5.4-2.8c-1.8-1-3.7-2-5.5-3.4l0,0c-0.1-0.1-0.1-0.1-0.2-0.2C201.8,369.4,201.8,369.3,201.8,369.3z"/>
								</g>
							</g>
						</g>
					</g>
				</g>
			</g>
			<g>
				<path class="st2" d="M294.5,323.6l-34.9,57.1c0,0-4.3,13.9,2.6,21.9c6.9,8,29,6,29,6l74.8,0.2c0,0,14.5,1.8,15-18.8
					c0,0,5.2-0.2,7.8,3.3c2.6,3.5,6.2,5.4,8.1,3c1.9-2.3-3.4-12.6-14.7-16.8c-11.3-4.2-46.4-8.6-46.4-8.6l-18.2-1l16.4-25.4
					L294.5,323.6z"/>
				<path d="M367,409.4c-0.5,0-0.8,0-0.9,0l-74.8-0.2c0,0-2.5,0.2-6.1,0.2c-8.1,0-18.7-1.1-23.3-6.4c-7-8.1-2.9-21.8-2.7-22.4l0-0.1
					l35.1-57.5l0.4,0.2l40,21.1l-16.2,25.2l17.4,1c0.4,0,35.3,4.5,46.5,8.6c9.1,3.4,14.1,10.6,15.2,14.3c0.4,1.4,0.3,2.5-0.2,3.2
					c-0.6,0.8-1.5,1.2-2.5,1.2l0,0c-1.9,0-4.3-1.6-6.3-4.2c-2-2.7-5.7-3-7-3.1C381,408,370.3,409.4,367,409.4z M291.2,408.2
					l74.9,0.2l0,0c0,0,0.3,0,0.8,0c3.1,0,13.3-1.3,13.7-18.4l0-0.4l0.4,0c0,0,0.1,0,0.2,0c0.9,0,5.5,0.2,8,3.4
					c1.8,2.4,4,3.9,5.6,3.9l0,0c0.7,0,1.3-0.3,1.8-0.8c0.3-0.4,0.4-1.3,0.1-2.4c-1-3.6-5.8-10.4-14.6-13.7
					c-11.1-4.1-45.9-8.5-46.3-8.6l-19-1.1l16.5-25.7l-38.8-20.4l-34.6,56.7c-0.3,0.9-3.9,14,2.5,21.4c4.5,5.3,16.1,6,22.6,6
					C288.7,408.4,291.2,408.2,291.2,408.2z"/>
			</g>
			<g>
				<g>
					<path class="st4" d="M341.3,371.7c0,0-7.8,12.9-5.4,37.1l-12.2,0c0,0-3-22.8,6.8-38.1C330.4,370.6,336.9,370.6,341.3,371.7z"/>
				</g>
				<g>
					<path class="st5" d="M336.4,409.2l-13.1,0l-0.1-0.4c0-0.2-2.9-23.2,6.8-38.4l0.1-0.2l0.3,0c0.7,0,6.7,0,10.9,1l0.6,0.1
						l-0.3,0.5c-0.1,0.1-7.7,13-5.3,36.8L336.4,409.2z M324.1,408.3l11.3,0c-2-21.1,3.8-33.6,5.2-36.3c-3.8-0.8-8.7-0.9-9.9-0.9
						C322,385,323.8,405.2,324.1,408.3z"/>
				</g>
			</g>
			<g>
				<g>
					
						<rect x="321.4" y="382.6" transform="matrix(0.9902 0.1394 -0.1394 0.9902 57.6486 -42.1255)" class="st1" width="16.5" height="16"/>
				</g>
				<g>
					<path class="st5" d="M337.1,400.2l-17.3-2.4l2.4-16.8l17.3,2.4L337.1,400.2z M320.9,397l15.5,2.2l2.1-14.9L323,382L320.9,397z"
						/>
				</g>
			</g>
			<g>
				
					<rect x="310.5" y="365.6" transform="matrix(0.419 0.908 -0.908 0.419 519.3611 -65.6865)" class="st5" width="0.9" height="14.8"/>
			</g>
			<g>
				
					<rect x="314.9" y="369.4" transform="matrix(0.9119 0.4104 -0.4104 0.9119 181.7944 -96.3708)" class="st5" width="0.9" height="11.6"/>
			</g>
			<g>
				<g>
					<path d="M381,270l-0.5-0.8c0.7-0.5,1.1-1.1,1.3-2c0.6-3.7-4-9.5-4.1-9.6l0.7-0.6c0.2,0.3,4.9,6.2,4.3,10.3
						C382.5,268.5,381.9,269.4,381,270z"/>
				</g>
				<g>
					<path d="M374.7,275.3c-3,0-4.9-2.9-4.9-2.9l0.8-0.5c0.1,0.1,2.2,3.5,5.6,2.2l0.3,0.9C375.9,275.2,375.3,275.3,374.7,275.3z"/>
				</g>
				<g>
					<g>
						<path d="M367.7,264c1.5,0,1.5-2.3,0-2.3C366.3,261.7,366.3,264,367.7,264L367.7,264z"/>
					</g>
				</g>
				<g>
					<g>
						<path d="M383,258.6c1.5,0,1.5-2.3,0-2.3S381.5,258.6,383,258.6L383,258.6z"/>
					</g>
				</g>
				<g>
					<g>
						<path d="M366.2,253.1c-1.1,0.9-1.9,1.9-2.5,3.2c-0.3,0.7,0.8,1,1.1,0.3c0.5-1.1,1.3-2,2.2-2.7
							C367.6,253.5,366.8,252.7,366.2,253.1L366.2,253.1z"/>
					</g>
				</g>
				<g>
					<g>
						<path d="M377.7,250.3c1.3-0.3,2.5,0,3.7,0.4c0.7,0.2,1-0.9,0.3-1.1c-1.4-0.5-2.8-0.8-4.3-0.4
							C376.6,249.3,376.9,250.5,377.7,250.3L377.7,250.3z"/>
					</g>
				</g>
				<g>
					<path d="M369,269.1c-4.6,0-8.3-3.7-8.3-8.3c0-4.6,3.7-8.3,8.3-8.3s8.3,3.7,8.3,8.3C377.3,265.4,373.5,269.1,369,269.1z
						 M369,253.4c-4.1,0-7.4,3.3-7.4,7.4c0,4.1,3.3,7.4,7.4,7.4c4.1,0,7.4-3.3,7.4-7.4C376.3,256.7,373,253.4,369,253.4z"/>
				</g>
				<g>
					<path d="M385.9,262.8c-4.3,0-7.8-3.5-7.8-7.8c0-4.3,3.5-7.8,7.8-7.8c4.3,0,7.8,3.5,7.8,7.8
						C393.6,259.3,390.1,262.8,385.9,262.8z M385.9,248.2c-3.8,0-6.8,3.1-6.8,6.8c0,3.8,3.1,6.8,6.8,6.8c3.8,0,6.8-3.1,6.8-6.8
						C392.7,251.3,389.6,248.2,385.9,248.2z"/>
				</g>
				<g>
					<rect x="377.2" y="256.5" transform="matrix(0.3328 0.943 -0.943 0.3328 495.1397 -184.0956)" width="0.9" height="2.7"/>
				</g>
				<g>
					<rect x="356.8" y="260.7" transform="matrix(0.4731 0.881 -0.881 0.4731 422.4519 -174.2587)" width="0.2" height="10.7"/>
				</g>
			</g>
			<g>
				<path class="st13" d="M375.3,286.8c0,0-7,0.3-10.6-4.6c0,0,2.3,9.7,11,11.6L375.3,286.8z"/>
				<path d="M376,294l-0.3-0.1c-8.8-1.9-11.2-11.6-11.2-11.7l-0.3-1.1l0.7,0.9c3.1,4.3,9,4.5,10.2,4.5c0.1,0,0.2,0,0.2,0l0.2,0
					L376,294z M365.3,283.2c0.9,2.5,3.7,8.6,10.2,10.2l-0.4-6.4h0C374,287,368.7,286.8,365.3,283.2z"/>
			</g>
			<g>
				<g>
					<g>
						<path class="st1" d="M533.4,402.5H422.1c-3.7,0-5.9-3-4.8-6.8l19.2-67c1.1-3.7,5-6.8,8.7-6.8h111.2c3.7,0,5.9,3,4.8,6.8
							l-19.2,67C541.1,399.4,537.1,402.5,533.4,402.5z M445.1,322.5c-3.4,0-6.9,2.8-7.9,6.1l-19.2,67c-1,3.4,1,6.1,4.4,6.1h111.2
							c3.4,0,6.9-2.8,7.9-6.1l19.2-67c1-3.4-1-6.1-4.4-6.1H445.1z"/>
					</g>
				</g>
				<g>
					<path class="st6" d="M536.9,399.1c-1,3.6-4.8,6.5-8.3,6.5H417.4c-3.6,0-5.6-2.9-4.6-6.5l19.2-67c1-3.6,4.8-6.5,8.3-6.5h111.2
						c3.6,0,5.6,2.9,4.6,6.5L536.9,399.1z"/>
				</g>
				<g>
					<path class="st4" d="M485.8,358.8c0.3-0.9,0.7-1.8,1.3-2.6c-0.5-0.2-1-0.2-1.6-0.2c-3.4,0-7,2.8-8,6.2c-1,3.4,1,6.2,4.4,6.2
						c2.5,0,5.1-1.5,6.7-3.6C486.2,364,484.9,361.6,485.8,358.8z"/>
				</g>
				<g>
					<polygon class="st0" points="486,374.8 472.9,374.8 473.3,373.4 486.4,373.4 					"/>
				</g>
				<g>
					<polygon class="st0" points="485.5,376.8 472.4,376.8 472.8,375.4 485.9,375.4 					"/>
				</g>
				<g>
					<polygon class="st0" points="485,378.4 471.9,378.4 472.2,377.4 485.3,377.4 					"/>
				</g>
				<g>
					<path class="st0" d="M473.1,380.5c-1,0-2.3,0.8-2.9,1.7l-19,31c-0.6,1-0.2,1.7,0.8,1.7h30.6c1,0,1.8-0.8,1.8-1.8l-0.1-30.9
						c0-1-0.8-1.8-1.8-1.8H473.1z"/>
				</g>
				<g>
					<path class="st1" d="M477.1,400.6c-0.7,2.6-3.4,4.7-6,4.7c-2.6,0-4.1-2.1-3.3-4.7c0.7-2.6,3.4-4.7,6-4.7
						C476.3,395.9,477.8,398,477.1,400.6z"/>
				</g>
			</g>
			<g>
				<g>
					<path class="st5" d="M218,415.5c43.8,0,87.7,0,131.5,0c25.4,0,50.8,0,76.2,0c24,0,48,0,72,0c16.5,0,33,0,49.5,0
						c1,0,1-2.3,0-2.3c-17.3,0-34.7,0-52,0c-23.8,0-47.7,0-71.5,0c-26.2,0-52.5,0-78.7,0c-42.3,0-84.6,0-126.9,0
						C217.1,413.2,217.1,415.5,218,415.5L218,415.5z"/>
				</g>
			</g>
		</g>
		<g>
			<g>
				<path class="st0" d="M452.2,242.6c-0.6-5.6,0.9-10.5,1.8-10.9l0,0c0,0,0.1,0,0.1,0c0,0,0,0,0,0c0,0,0,0,0,0
					c35.6-3.4,43.8-18.7,43.8-18.7l5.5,48.4c0,0-11.4-13.1-47-8.4l0-0.1C455.4,252.6,452.8,248.3,452.2,242.6z"/>
				<path class="st0" d="M447.6,238.6L447.6,238.6C447.6,238.6,447.6,238.6,447.6,238.6C447.7,238.6,447.7,238.6,447.6,238.6
					L447.6,238.6c1.7-0.2,3.1-0.4,4.5-0.6c-0.1,1.4-0.1,3,0.1,4.7c0.2,1.7,0.6,3.2,1,4.6c-1.4,0.1-2.9,0.2-4.5,0.4l0,0
					c-0.4-0.1-1.5-1.9-1.8-4.4C446.6,240.9,447.2,238.8,447.6,238.6z"/>
				<path class="st14" d="M496.1,237.7c0.2,1.4,0.3,2.8,0.6,4.1c1.8,11.6,5.1,20.1,7.9,19.8c3.1-0.4,4.4-11.7,2.8-25.2
					c-1.5-13.6-5.3-24.3-8.4-24c-2.6,0.3-3.9,8.3-3.4,19C495.7,233.4,495.9,235.5,496.1,237.7z"/>
				<path class="st15" d="M496.1,237.7c0.2,1.4,0.3,2.8,0.6,4.1c0.7,0.2,1.4,0.2,2.1,0.2c3.1-0.3,5.3-3.1,4.9-6.2
					c-0.3-3.1-3.1-5.3-6.2-4.9c-0.7,0.1-1.3,0.3-1.9,0.6C495.7,233.4,495.9,235.5,496.1,237.7z"/>
				<path class="st2" d="M499,212.5c0.5-0.1,1.1,0.2,1.6,0.7c-2,3.2-2.7,12.9-1.4,24.2c1.3,11.3,4.1,20.6,6.8,23.2
					c-0.4,0.6-0.9,1-1.4,1.1c-3.1,0.4-6.9-10.4-8.4-23.9C494.6,224.1,495.8,212.8,499,212.5z"/>
			</g>
			<g>
				<path class="st16" d="M452.2,242.6c-0.6-5.6,0.9-10.5,1.8-10.9l0,0c0,0,0.1,0,0.1,0c0,0,0,0,0,0c0,0,0,0,0,0
					c2.9-0.3,5.6-0.6,8.1-1.1l3,21.5c-2.8,0.2-5.7,0.4-8.8,0.8l0-0.1C455.4,252.6,452.8,248.3,452.2,242.6z"/>
			</g>
			
				<rect x="476.7" y="251.1" transform="matrix(-0.9936 0.1128 -0.1128 -0.9936 985.2119 477.999)" class="st0" width="4.8" height="31.5"/>
			
				<ellipse transform="matrix(-0.9936 0.1129 -0.1129 -0.9936 990.5135 508.8915)" class="st14" cx="480.9" cy="282.5" rx="2.4" ry="0.6"/>
		</g>
		<g>
			<polygon class="st0" points="512.8,232.2 526.9,223.3 527.7,228.8 			"/>
			<polygon class="st0" points="532.4,238.2 517.1,242.9 533.3,242 			"/>
			<polygon class="st0" points="530.7,255.2 518.3,253.1 529.8,260.3 			"/>
		</g>
	</g>
</g>
</svg>
