<?xml version="1.0" encoding="utf-8"?>
<!-- Generator: Adobe Illustrator 19.0.0, SVG Export Plug-In . SVG Version: 6.00 Build 0)  -->
<svg version="1.1" id="Layer_1" xmlns="http://www.w3.org/2000/svg" xmlns:xlink="http://www.w3.org/1999/xlink" x="0px" y="0px"
	 viewBox="0 0 658.4 295.9" style="enable-background:new 0 0 658.4 295.9;" xml:space="preserve">
<style type="text/css">
	.st0{fill:#B7F5F2;}
	.st1{fill:#FFFEFB;}
	.st2{fill:#00569F;}
	.st3{fill:none;stroke:#FFFEFB;stroke-width:1.4089;stroke-linecap:round;stroke-linejoin:round;stroke-miterlimit:10;}
	.st4{fill:none;stroke:#00569F;stroke-width:2;stroke-miterlimit:10;}
	.st5{fill:#FFFFFF;}
	.st6{fill:#F69E22;}
	.st7{fill:#FFFFDD;}
	.st8{fill:#FF6253;}
	.st9{fill:#F74037;}
	.st10{fill:#EFCF96;}
	.st11{fill:#B82D26;}
	.st12{fill:#FAB341;}
	.st13{fill:#FBFCF4;}
	.st14{fill:#FDC46D;}
	.st15{fill:#FFFCDA;}
	.st16{opacity:0.5;fill:#DF8F1C;}
	.st17{fill:#33333D;}
	.st18{fill:#D28849;}
	.st19{fill:#282D29;}
	.st20{fill:#4A3A3B;}
	.st21{fill:#EBA96F;}
	.st22{fill:#091C09;}
	.st23{fill:#445938;}
	.st24{fill:#040E05;}
	.st25{fill:#0C1E17;}
	.st26{fill:#031634;}
	.st27{fill:#D99661;}
	.st28{fill:#29486D;}
	.st29{fill:#0B2954;}
	.st30{fill:#960866;}
	.st31{fill:#860154;}
	.st32{fill:#7F0B50;}
	.st33{fill:#7C024F;}
	.st34{fill:#00334A;}
	.st35{fill:#02719C;}
	.st36{fill:#4F5A4A;}
	.st37{fill:#005482;}
	.st38{fill:#FF7828;}
	.st39{fill:#F0B17B;}
	.st40{fill:#E6752F;}
	.st41{fill:#F57625;}
	.st42{fill:#F07226;}
	.st43{fill:#FB4B58;}
	.st44{fill:#DC142E;}
	.st45{fill:#DD081A;}
	.st46{fill:#D93347;}
	.st47{fill:#F48404;}
	.st48{fill:#E96503;}
	.st49{fill:#BB5600;}
	.st50{fill:#CB4512;}
	.st51{fill:#42943F;}
	.st52{fill:#2E5C04;}
	.st53{fill:#225D0B;}
	.st54{fill:#3E9C10;}
	.st55{fill:#FBD9B3;}
	.st56{fill:#F0BE00;}
	.st57{fill:#D6941A;}
	.st58{fill:#EFA900;}
	.st59{fill:#F4AA00;}
	.st60{fill:#DD9C72;}
	.st61{fill:#A7ADBB;}
	.st62{fill:#B2B4B1;}
	.st63{fill:#A1907E;}
	.st64{fill:#727A87;}
	.st65{fill:#FAE9BD;}
	.st66{fill:#142752;}
	.st67{fill:#0E2050;}
	.st68{fill:#001430;}
	.st69{fill:#031D2E;}
	.st70{fill:#DB8940;}
	.st71{fill:#064914;}
	.st72{fill:#007600;}
	.st73{fill:#063103;}
	.st74{fill:#003302;}
	.st75{fill:#D1490D;}
	.st76{fill:#AF3708;}
	.st77{fill:#EC5909;}
	.st78{fill:#D4925E;}
	.st79{fill:#C10625;}
	.st80{fill:#A1002A;}
	.st81{fill:#BF0005;}
	.st82{fill:#E73255;}
	.st83{fill:#D74305;}
	.st84{fill:#E06A46;}
	.st85{fill:#EAB0A4;}
	.st86{fill:#FEFFF8;}
	.st87{fill:none;stroke:#0A4472;stroke-width:1.4089;stroke-linecap:round;stroke-linejoin:round;stroke-miterlimit:10;}
	.st88{fill:#0A4472;}
	.st89{fill:#BF1717;}
	.st90{fill:#4C9CD7;}
	.st91{fill:#F0D8CC;}
	.st92{fill:#D6C3B5;}
	.st93{fill:#E88821;}
	.st94{fill:#C16614;}
	.st95{fill:#479BDB;}
	.st96{fill:#F6FFFF;}
	.st97{opacity:0.3;fill:#204F72;}
	.st98{fill:#F1F1F1;}
	.st99{fill:none;stroke:#00569F;stroke-width:0.543;stroke-linecap:round;stroke-linejoin:round;stroke-dasharray:2.6869,2.6869;}
	.st100{fill:none;stroke:#DF8F1C;stroke-width:0.543;stroke-linecap:round;stroke-linejoin:round;stroke-miterlimit:10;}
</style>
<g>
	<path class="st0" d="M570.3,224.4c15.9-16,20-37.2-5.9-58.9c-10-8.4-21.7-14.5-32.5-21.7c-50.7-33.8-82.2-91.9-140-115.5
		C285.4-14.9,152.6,26,81,112.9c-14.8,18-27.8,39.4-27.1,62.7c0.6,21.4,12,40,28.9,52.7c20.9,15.7,43.1,18.2,68.4,21.1
		c60.2,6.9,120.7,10.8,181.3,11.8c61.5,1,123.7,1.3,184.4-10C535.7,247.6,557.1,237.8,570.3,224.4z"/>
	<rect x="265.7" y="196" class="st1" width="46.2" height="0.9"/>
	<rect x="265.7" y="176.3" class="st2" width="46.2" height="19.7"/>
	<rect x="265.7" y="175.5" class="st1" width="46.2" height="0.9"/>
	<rect x="265.7" y="155.8" class="st2" width="46.2" height="19.7"/>
	<rect x="265.7" y="154.9" class="st1" width="46.2" height="0.9"/>
	<rect x="265.7" y="135.2" class="st2" width="46.2" height="19.7"/>
	<rect x="265.7" y="196.9" class="st2" width="46.2" height="19.7"/>
	<g>
		<path class="st3" d="M297.2,179.4c0,1-3.4,1.9-7.5,1.9c-4.2,0-7.5-0.8-7.5-1.9"/>
		<path class="st3" d="M297.2,158.9c0,1-3.4,1.9-7.5,1.9c-4.2,0-7.5-0.8-7.5-1.9"/>
		<path class="st3" d="M297.2,138.3c0,1-3.4,1.9-7.5,1.9c-4.2,0-7.5-0.8-7.5-1.9"/>
		<path class="st3" d="M297.2,200c0,1-3.4,1.9-7.5,1.9c-4.2,0-7.5-0.8-7.5-1.9"/>
	</g>
	<line class="st4" x1="194.4" y1="135.2" x2="194.4" y2="217.1"/>
	<path class="st5" d="M313,129.3H161.9c-1.6,0-3,1.3-3,3l0,0c0,1.6,1.3,3,3,3H313c1.6,0,3-1.3,3-3l0,0
		C315.9,130.6,314.6,129.3,313,129.3z"/>
	<g>
		<rect x="278.2" y="97.2" class="st6" width="25.1" height="31.7"/>
		<rect x="278.2" y="97.2" class="st7" width="24.8" height="31.7"/>
		<rect x="277.2" y="97.2" class="st8" width="25.1" height="31.7"/>
		<polygon class="st9" points="277.2,98.2 277.2,128.9 302.3,128.9 302.3,126.5 		"/>
		<rect x="284.7" y="103.2" class="st10" width="14.3" height="4.2"/>
	</g>
	<g>
		<rect x="283" y="56.6" class="st11" width="25.1" height="31.7"/>
		<rect x="283" y="56.6" class="st7" width="24.8" height="31.7"/>
		<rect x="281.9" y="56.6" class="st8" width="25.1" height="31.7"/>
		<polygon class="st9" points="281.9,57.6 281.9,88.3 307.1,88.3 307.1,85.9 		"/>
		<rect x="289.4" y="62.6" class="st10" width="14.3" height="4.2"/>
	</g>
	<g>
		<rect x="285.2" y="92" class="st6" width="25.1" height="37"/>
		<rect x="285.2" y="92" class="st7" width="24.8" height="37"/>
		<rect x="284.2" y="92" class="st12" width="25.1" height="37"/>
		<rect x="287" y="92" class="st13" width="1.8" height="37"/>
		<rect x="288.8" y="92" class="st14" width="1.8" height="37"/>
		<rect x="291.7" y="99" class="st15" width="14.3" height="4.9"/>
		<polygon class="st16" points="284.2,93.1 284.2,128.9 309.4,128.9 309.4,126.1 		"/>
	</g>
	<g>
		<g>
			<polygon class="st17" points="223.8,107.4 226.3,114.8 227.2,114.6 224.8,107 223.7,105.1 223.5,105.2 			"/>
			<path class="st18" d="M223.7,105.1l-0.2,0.1l0.2,2.1c0.1,0,0.1,0,0.2,0.1c0,0,0.1,0.1,0.2,0.1c0.1,0,0.1-0.2,0.3-0.2
				c0.1,0,0.2,0.2,0.3,0c0-0.1,0-0.1,0-0.2l0,0L223.7,105.1z"/>
			<path class="st19" d="M224.2,107.4c-0.1,0-0.1-0.1-0.2-0.1c-0.1-0.1-0.1-0.1-0.2-0.1l0,0.1l2.5,7.4l0.3,0L224.2,107.4
				C224.2,107.4,224.2,107.4,224.2,107.4z"/>
			<path class="st20" d="M224.8,107.1c0,0.1,0,0.2,0,0.2c0,0.1-0.1,0.1-0.1,0.1l2.4,7.3l0.2,0L224.8,107.1z"/>
			<path class="st19" d="M224,105.7l-0.4-0.7l-0.2,0.1l0.1,0.9C223.8,106,223.9,105.9,224,105.7z"/>
		</g>
		<g>
			<polygon class="st21" points="224.5,104.2 225.9,106.2 229.2,115 228.1,115.3 224.9,106.8 224.4,104.3 			"/>
			<path class="st22" d="M225.5,106.4c0.1,0,0.2,0.1,0.3,0c0.1,0,0.1-0.2,0.1-0.2c0,0,0-0.1,0-0.1l0,0l3.4,8.9l-1.1,0.3l-3.2-8.5
				l0-0.2c0.1,0,0.2,0.1,0.2,0.1C225.3,106.7,225.2,106.4,225.5,106.4z"/>
			<path class="st23" d="M224.9,105c-0.1,0.1-0.2,0.1-0.3,0.2l-0.2-0.9l0.1,0L224.9,105C225,104.9,224.9,104.9,224.9,105z"/>
			<path class="st24" d="M225.7,106.5c0.1,0,0.1-0.2,0.1-0.2c0,0,0-0.1,0-0.1l0,0l3.4,8.9l-0.2,0.1L225.7,106.5
				C225.7,106.5,225.7,106.5,225.7,106.5z"/>
			<path class="st25" d="M225.1,106.7c0.1,0,0.1,0,0.2,0l3.3,8.6l-0.4,0.1l-3.2-8.5l0-0.2C224.9,106.6,225,106.7,225.1,106.7z"/>
		</g>
		<g>
			<polygon class="st26" points="223.3,107.3 225.7,114.7 226.8,114.5 224.4,106.9 223.3,104.9 223.1,105 			"/>
			<path class="st27" d="M223.3,104.9l-0.2,0.1l0.2,2.1c0.1,0,0.2,0,0.2,0.1c0.1,0,0.1,0.1,0.2,0.1c0.1,0,0.2-0.2,0.3-0.2
				c0.1,0,0.2,0.2,0.3,0c0-0.1,0-0.2,0-0.2l0,0L223.3,104.9z"/>
			<path class="st28" d="M223.7,107.3c-0.1,0-0.1-0.1-0.2-0.1c-0.1,0-0.2-0.1-0.2-0.1l0,0.1l2.5,7.5l0.3-0.1L223.7,107.3
				C223.7,107.3,223.7,107.3,223.7,107.3z"/>
			<path class="st29" d="M224.4,106.9c0,0.1,0,0.2,0,0.2c0,0.1-0.1,0.1-0.1,0.1l2.3,7.4l0.2-0.1L224.4,106.9z"/>
			<path class="st26" d="M223.6,105.6l-0.4-0.7l-0.2,0.1l0.1,0.9C223.3,105.9,223.5,105.8,223.6,105.6z"/>
		</g>
		<g>
			<polygon class="st26" points="230,107.3 231.9,118 233,117.9 231.1,107 230.3,105 230.1,105 			"/>
			<path class="st27" d="M230.3,105l-0.2,0.1l-0.1,2.1c0.1,0,0.1,0.1,0.2,0.1c0,0,0.1,0.1,0.2,0.1c0.1,0,0.2-0.2,0.4-0.2
				c0.1,0,0.2,0.2,0.3,0.1c0-0.1,0-0.1,0.1-0.2l0,0L230.3,105z"/>
			<path class="st28" d="M230.4,107.4c-0.1,0-0.1-0.1-0.2-0.1c-0.1-0.1-0.1-0.1-0.2-0.1l0,0.1l1.9,10.7l0.3,0L230.4,107.4
				C230.4,107.4,230.4,107.4,230.4,107.4z"/>
			<path class="st29" d="M231.1,107.1c0,0.1,0,0.2-0.1,0.2c0,0.1-0.1,0.1-0.1,0.1l1.8,10.5l0.2,0L231.1,107.1z"/>
			<path class="st26" d="M230.5,105.7l-0.3-0.7l-0.2,0.1l0,0.9C230.2,105.9,230.4,105.8,230.5,105.7z"/>
		</g>
		<g>
			<polygon class="st21" points="226.9,105.1 227,107.3 230.2,118.6 231.2,118.3 228.1,107.4 227,105.1 			"/>
			<path class="st30" d="M227.5,107.4c-0.1,0-0.1,0.2-0.2,0.1c-0.1,0-0.1-0.1-0.2-0.1c0,0-0.1,0-0.1,0l0,0l3.2,11.3l1-0.3l-3.1-10.9
				l-0.1-0.2c-0.1,0.1-0.1,0.1-0.1,0.2C227.7,107.6,227.6,107.3,227.5,107.4z"/>
			<path class="st31" d="M227,105.9c0.1,0,0.2,0,0.3,0l-0.4-0.8l-0.1,0L227,105.9C227,105.9,227,105.9,227,105.9z"/>
			<path class="st32" d="M227.3,107.5c-0.1,0-0.1-0.1-0.2-0.1c0,0-0.1,0-0.1,0l0,0l3.2,11.3l0.2-0.1L227.3,107.5
				C227.3,107.5,227.3,107.5,227.3,107.5z"/>
			<path class="st33" d="M227.9,107.4c0,0.1-0.1,0.1-0.1,0l3.1,11l0.4-0.1l-3.1-10.9l-0.1-0.2C228,107.3,227.9,107.3,227.9,107.4z"
				/>
		</g>
		<g>
			<polygon class="st34" points="226.7,107.5 228.9,115 229.9,114.9 227.7,107.2 226.8,105.2 226.6,105.3 			"/>
			<path class="st27" d="M226.8,105.2l-0.2,0.1l0.1,2.1c0.1,0,0.1,0,0.2,0.1c0,0,0.1,0.1,0.2,0.1c0.1,0,0.2-0.2,0.3-0.2
				c0.1,0,0.2,0.2,0.3,0c0-0.1,0-0.1,0-0.2l0,0L226.8,105.2z"/>
			<path class="st35" d="M227.1,107.6c-0.1,0-0.1-0.1-0.2-0.1c-0.1-0.1-0.1-0.1-0.2-0.1l0,0.1l2.2,7.5l0.3,0L227.1,107.6
				C227.1,107.6,227.1,107.6,227.1,107.6z"/>
			<path class="st36" d="M227.8,107.3c0,0.1,0,0.2,0,0.2c0,0.1-0.1,0.1-0.1,0.1l2,7.4l0.2,0L227.8,107.3z"/>
			<path class="st37" d="M227.1,105.9l-0.3-0.7l-0.2,0.1l0.1,0.9C226.8,106.2,227,106,227.1,105.9z"/>
		</g>
		<g>
			<polygon class="st38" points="223.8,108.9 226.7,117.5 227.7,117.3 224.9,108.4 223.8,106.5 223.7,106.6 			"/>
			<path class="st39" d="M223.8,106.5l-0.2,0.1l0.2,2.1c0.1,0,0.2,0,0.2,0.1c0.1,0,0.1,0.1,0.2,0.1c0.1,0,0.2-0.2,0.3-0.2
				c0.1,0,0.2,0.2,0.3,0c0-0.1,0-0.2,0-0.2l0,0L223.8,106.5z"/>
			<path class="st40" d="M224.3,108.9c-0.1,0-0.1-0.1-0.2-0.1c-0.1,0-0.2-0.1-0.2-0.1l0,0.1l2.8,8.7l0.3-0.1L224.3,108.9
				C224.3,108.9,224.3,108.9,224.3,108.9z"/>
			<path class="st41" d="M224.9,108.5c0,0.1,0,0.2,0,0.2c0,0.1-0.1,0.1-0.1,0.1l2.7,8.6l0.2-0.1L224.9,108.5z"/>
			<path class="st42" d="M224.2,107.2l-0.4-0.7l-0.2,0.1l0.1,0.9C223.9,107.5,224.1,107.3,224.2,107.2z"/>
		</g>
		<polygon class="st43" points="225.1,110 227.3,117.5 228.4,117.3 226.2,109.6 225.1,107.6 225,107.7 		"/>
		<path class="st27" d="M225.1,107.6l-0.2,0.1l0.1,2.1c0.1,0,0.2,0,0.2,0.1c0.1,0,0.1,0.1,0.2,0.1c0.1,0,0.2-0.2,0.3-0.2
			c0.1,0,0.2,0.2,0.3,0c0-0.1,0-0.2,0-0.2l0,0L225.1,107.6z"/>
		<path class="st44" d="M225.5,110c-0.1,0-0.1-0.1-0.2-0.1c-0.1-0.1-0.2-0.1-0.2-0.1l0,0.1l2.2,7.5l0.3-0.1L225.5,110
			C225.5,110,225.5,110,225.5,110z"/>
		<path class="st45" d="M226.2,109.6c0,0.1,0,0.2,0,0.2c0,0.1-0.1,0.1-0.1,0.1l2.1,7.4l0.2,0L226.2,109.6z"/>
		<path class="st46" d="M225.5,108.3l-0.4-0.7l-0.2,0.1l0.1,0.9C225.2,108.6,225.3,108.5,225.5,108.3z"/>
		<g>
			<polygon class="st47" points="227.5,109.9 227.9,117.8 229,117.8 228.7,109.8 228.1,107.6 227.9,107.7 			"/>
			<path class="st18" d="M228.1,107.6l-0.2,0.1l-0.4,2.1c0.1,0,0.1,0.1,0.2,0.1c0,0,0.1,0.1,0.2,0.1c0.1,0,0.2-0.2,0.4-0.1
				c0.1,0,0.2,0.2,0.3,0.1c0,0,0.1-0.1,0.1-0.2l0,0L228.1,107.6z"/>
			<path class="st48" d="M227.9,110.1c-0.1,0-0.1-0.1-0.2-0.1c-0.1-0.1-0.1-0.1-0.2-0.1l0,0.1l0.4,7.8l0.3,0L227.9,110.1
				C227.9,110.1,227.9,110.1,227.9,110.1z"/>
			<path class="st49" d="M228.7,109.8c0,0.1-0.1,0.2-0.1,0.2c0,0.1-0.1,0.1-0.1,0l0.3,7.7l0.3,0L228.7,109.8z"/>
			<path class="st50" d="M228.3,108.4l-0.2-0.7l-0.2,0.1l-0.2,0.9C228,108.6,228.2,108.5,228.3,108.4z"/>
		</g>
		<g>
			<polygon class="st21" points="229,106.1 230.1,108.2 232.5,117.4 231.3,117.5 229,108.7 228.8,106.1 			"/>
			<path class="st22" d="M229.7,108.4c0.1,0,0.2,0.1,0.3,0.1c0.1,0,0.1-0.1,0.1-0.2c0,0,0-0.1,0.1-0.1l0,0l2.4,9.2l-1.2,0.2
				l-2.3-8.8l0-0.2c0.1,0,0.1,0.1,0.2,0.1C229.5,108.7,229.4,108.4,229.7,108.4z"/>
			<path class="st23" d="M229.3,106.9c-0.1,0.1-0.2,0.1-0.4,0.1l-0.1-0.9l0.1,0L229.3,106.9C229.3,106.8,229.3,106.8,229.3,106.9z"
				/>
			<path class="st24" d="M229.9,108.5c0.1,0,0.1-0.1,0.1-0.2c0,0,0-0.1,0.1-0.1l0,0l2.4,9.2l-0.2,0L229.9,108.5
				C229.9,108.5,229.9,108.5,229.9,108.5z"/>
			<path class="st25" d="M229.2,108.6c0.1,0,0.1,0,0.2,0l2.3,8.9l-0.4,0.1l-2.3-8.8l0-0.2C229.1,108.5,229.2,108.6,229.2,108.6z"/>
		</g>
		<g>
			<polygon class="st51" points="228.7,110.6 229,118.4 230.1,118.5 229.8,110.5 229.3,108.3 229.1,108.4 			"/>
			<path class="st18" d="M229.3,108.3l-0.2,0l-0.4,2.1c0.1,0,0.1,0.1,0.2,0.1c0,0,0.1,0.1,0.2,0.1c0.1,0,0.2-0.2,0.4-0.1
				c0.1,0,0.2,0.3,0.3,0.1c0,0,0.1-0.1,0.1-0.2l0,0L229.3,108.3z"/>
			<path class="st52" d="M229.1,110.7c-0.1,0-0.1-0.1-0.2-0.1c-0.1-0.1-0.1-0.1-0.2-0.1l0,0.1l0.3,7.8l0.3,0L229.1,110.7
				C229.1,110.7,229.1,110.7,229.1,110.7z"/>
			<path class="st53" d="M229.8,110.5c0,0.1-0.1,0.2-0.1,0.2c0,0.1-0.1,0.1-0.1,0l0.2,7.7l0.2,0L229.8,110.5z"/>
			<path class="st54" d="M229.5,109l-0.2-0.7l-0.2,0l-0.2,0.9C229.1,109.2,229.3,109.2,229.5,109z"/>
		</g>
		<g>
			<polygon class="st55" points="232.7,104.1 232.3,106.5 232.7,115 233.8,114.8 233.4,106.1 232.9,104.2 			"/>
			<path class="st56" d="M233.2,106.4c-0.1,0.1-0.1,0-0.2,0c-0.1,0-0.1,0.1-0.2,0.2c-0.2,0.1-0.3-0.2-0.4-0.2c0,0-0.1,0-0.1,0l0,0.1
				l0.5,8.5l1.1-0.2l-0.4-8.7l0,0c0,0,0,0,0,0C233.3,106.2,233.3,106.4,233.2,106.4z"/>
			<path class="st57" d="M232.7,104.1l-0.1,0.7c0,0.1,0.1,0.1,0.2,0.2c0.1,0,0.2,0,0.3-0.1l-0.2-0.7L232.7,104.1z"/>
			<path class="st58" d="M232.4,106.4c0,0-0.1,0-0.1,0l0,0.1l0.5,8.5l0.3-0.1l-0.4-8.3C232.6,106.5,232.5,106.4,232.4,106.4z"/>
			<path class="st59" d="M233.4,106.1c0,0.1-0.1,0.2-0.1,0.3c0,0,0,0,0,0l0.3,8.4l0.3,0L233.4,106.1L233.4,106.1
				C233.4,106.1,233.4,106.1,233.4,106.1z"/>
		</g>
		<g>
			<polygon class="st60" points="234.2,104.6 233.4,106.9 232.4,115.3 233.5,115.4 234.5,106.8 234.4,104.7 			"/>
			<path class="st61" d="M234.4,107c-0.1,0.1-0.1,0-0.2,0c-0.1,0-0.1,0.1-0.2,0.1c-0.2,0-0.2-0.2-0.4-0.3c0,0-0.1,0-0.1,0l0,0.1
				l-1,8.5l1.1,0l1.1-8.6l0,0c0,0,0,0,0,0C234.5,106.8,234.4,107,234.4,107z"/>
			<path class="st62" d="M234.2,104.6l-0.2,0.7c0,0.1,0.1,0.1,0.2,0.2c0.1,0.1,0.2,0,0.3-0.1l-0.1-0.7L234.2,104.6z"/>
			<path class="st63" d="M233.6,106.8c0,0-0.1,0-0.1,0l0,0.1l-1,8.5l0.3,0l1.1-8.3C233.7,107,233.7,106.9,233.6,106.8z"/>
			<path class="st64" d="M234.5,106.8c0,0.1-0.1,0.2-0.2,0.2c0,0,0,0,0,0l-1.1,8.3l0.3,0L234.5,106.8L234.5,106.8
				C234.5,106.7,234.5,106.8,234.5,106.8z"/>
		</g>
		<g>
			<polygon class="st65" points="235.5,104.7 234.7,107 233.7,115.4 234.8,115.5 235.8,106.9 235.6,104.8 			"/>
			<path class="st66" d="M235.6,107.1c-0.1,0.1-0.1,0-0.2,0c-0.1,0-0.1,0.1-0.2,0.1c-0.2,0-0.2-0.2-0.4-0.3c0,0-0.1,0-0.1,0l0,0.1
				l-1,8.5l1.1,0l1.1-8.6l0,0c0,0,0,0,0,0C235.7,106.9,235.7,107.1,235.6,107.1z"/>
			<path class="st67" d="M235.5,104.7l-0.2,0.7c0,0.1,0.1,0.1,0.2,0.2c0.1,0.1,0.2,0,0.3-0.1l-0.1-0.7L235.5,104.7z"/>
			<path class="st68" d="M234.8,106.9c0,0-0.1,0-0.1,0l0,0.1l-1,8.5l0.3,0l1-8.3C235,107.1,234.9,107,234.8,106.9z"/>
			<path class="st69" d="M235.8,106.9c0,0.1-0.1,0.2-0.2,0.2c0,0,0,0,0,0l-1.1,8.3l0.3,0L235.8,106.9L235.8,106.9
				C235.8,106.8,235.8,106.9,235.8,106.9z"/>
		</g>
		<g>
			<polygon class="st70" points="235.8,106.4 234.7,108.6 232.8,116.8 233.8,117 235.9,108.6 236,106.5 			"/>
			<path class="st71" d="M235.7,108.8c-0.1,0-0.1-0.1-0.2-0.1c-0.1,0-0.1,0.1-0.2,0.1c-0.2,0-0.2-0.2-0.3-0.3c0,0-0.1,0-0.1,0l0,0.1
				l-2,8.3l1.1,0.1l2-8.4l0,0c0,0,0,0,0,0C235.8,108.6,235.8,108.7,235.7,108.8z"/>
			<path class="st72" d="M235.8,106.4l-0.3,0.6c0,0.1,0.1,0.2,0.1,0.2c0.1,0.1,0.2,0,0.3,0l0-0.7L235.8,106.4z"/>
			<path class="st73" d="M234.9,108.5c0,0-0.1,0-0.1,0l0,0.1l-2,8.3l0.3,0l2-8.1C235,108.7,235,108.6,234.9,108.5z"/>
			<path class="st74" d="M235.9,108.6c-0.1,0.1-0.1,0.2-0.2,0.2c0,0,0,0-0.1,0l-2.1,8.1l0.3,0L235.9,108.6L235.9,108.6
				C235.9,108.5,235.9,108.6,235.9,108.6z"/>
		</g>
		<g>
			<polygon class="st60" points="235.2,107.3 234,109.3 231.4,117.4 232.5,117.7 235.1,109.4 235.4,107.4 			"/>
			<path class="st75" d="M234.9,109.6c-0.1,0-0.1-0.1-0.2-0.1c-0.1,0-0.1,0.1-0.2,0.1c-0.2,0-0.2-0.3-0.3-0.3c0,0-0.1,0-0.1,0l0,0.1
				l-2.6,8.1l1.1,0.2l2.7-8.2l0,0c0,0,0,0,0,0C235.1,109.5,235,109.6,234.9,109.6z"/>
			<path class="st76" d="M235.2,107.3l-0.4,0.6c0,0.1,0.1,0.2,0.1,0.2c0.1,0.1,0.2,0.1,0.3,0l0.1-0.7L235.2,107.3z"/>
			<path class="st76" d="M234.2,109.3c0,0-0.1,0-0.1,0l0,0.1l-2.6,8.1l0.3,0.1l2.6-7.9C234.3,109.5,234.3,109.3,234.2,109.3z"/>
			<path class="st77" d="M235.1,109.4c-0.1,0.1-0.1,0.2-0.2,0.2c0,0,0,0-0.1,0l-2.7,8l0.3,0.1L235.1,109.4L235.1,109.4
				C235.1,109.4,235.1,109.4,235.1,109.4z"/>
		</g>
		<g>
			<polygon class="st78" points="235,107.2 233.7,109.2 231,117.2 232,117.5 234.8,109.3 235.1,107.3 			"/>
			<path class="st79" d="M234.6,109.5c-0.1,0-0.1-0.1-0.2-0.1c-0.1,0-0.1,0.1-0.2,0.1c-0.2,0-0.2-0.3-0.3-0.3c0,0-0.1,0-0.1,0l0,0.1
				l-2.7,8.1l1.1,0.2l2.8-8.2l0,0c0,0,0,0,0,0C234.8,109.4,234.7,109.5,234.6,109.5z"/>
			<path class="st80" d="M235,107.2l-0.4,0.6c0,0.1,0.1,0.2,0.1,0.2c0.1,0.1,0.2,0.1,0.3,0l0.1-0.7L235,107.2z"/>
			<path class="st81" d="M233.9,109.2c0,0-0.1,0-0.1,0l0,0.1l-2.7,8.1l0.3,0.1l2.8-7.9C234,109.4,234,109.2,233.9,109.2z"/>
			<path class="st82" d="M234.8,109.3c-0.1,0.1-0.1,0.2-0.2,0.2c0,0,0,0-0.1,0l-2.8,7.9l0.3,0.1L234.8,109.3L234.8,109.3
				C234.8,109.3,234.8,109.3,234.8,109.3z"/>
		</g>
		<g>
			<polygon class="st17" points="231.4,109.7 229.9,117.4 230.9,117.7 232.6,109.9 232.6,107.7 232.4,107.7 			"/>
			<path class="st18" d="M232.6,107.7h-0.2l-0.9,1.9c0.1,0,0.1,0.1,0.2,0.2c0,0.1,0,0.1,0.1,0.2c0.1,0,0.3-0.1,0.4,0
				c0.1,0.1,0.1,0.3,0.3,0.2c0.1,0,0.1-0.1,0.1-0.2l0,0V107.7z"/>
			<path class="st19" d="M231.8,109.9c-0.1,0-0.1-0.1-0.1-0.2c0-0.1-0.1-0.1-0.2-0.2l0,0.1l-1.6,7.7l0.3,0.1L231.8,109.9
				C231.8,110,231.8,110,231.8,109.9z"/>
			<path class="st20" d="M232.6,109.9c0,0.1-0.1,0.1-0.1,0.2c-0.1,0-0.1,0-0.1,0l-1.6,7.5l0.2,0.1L232.6,109.9z"/>
			<path class="st19" d="M232.6,108.4v-0.8h-0.2l-0.4,0.8C232.2,108.5,232.4,108.5,232.6,108.4z"/>
		</g>
		<g>
			<polygon class="st83" points="233.1,129.3 227.3,129.3 225.5,115.6 234.8,115.6 			"/>
			<polygon class="st84" points="232.6,129.3 231.9,129.3 232.6,115.6 233.8,115.6 			"/>
			<polygon class="st85" points="231.8,129.3 231.5,129.3 231.8,115.6 232.3,115.6 			"/>
			<path class="st86" d="M234.8,115.6h-9.3c-0.3,0-0.6-0.3-0.6-0.6v-0.2c0-0.3,0.3-0.6,0.6-0.6h9.3c0.3,0,0.6,0.3,0.6,0.6v0.2
				C235.4,115.3,235.1,115.6,234.8,115.6z"/>
		</g>
	</g>
	<g>
		<path class="st87" d="M253.8,86.5l24.9,24.9c6.3,6.3,1.8,17.1-7.1,17.1h-26.8"/>
		<path class="st2" d="M245.8,114.8L245.8,114.8c-1.1-0.2-1.7-1.3-1.5-2.4l14.3-64.5c0.2-1.1,1.3-1.7,2.4-1.5l0,0
			c1.1,0.2,1.7,1.3,1.5,2.4l-14.3,64.5C247.9,114.3,246.8,115,245.8,114.8z"/>
	</g>
	<path class="st88" d="M314.5,91.2H277c-0.8,0-1.4-0.6-1.4-1.4v0c0-0.8,0.6-1.4,1.4-1.4h37.6c0.8,0,1.4,0.6,1.4,1.4v0
		C315.9,90.6,315.3,91.2,314.5,91.2z"/>
	<g>
		<g>
			<path class="st89" d="M305.2,71.5H282c-2.4,0-4.4,2-4.4,4.4V76c0,2.4,2,4.4,4.4,4.4h23.2c-0.6-1.1-1-2.7-1-4.5
				S304.6,72.6,305.2,71.5z"/>
			<path class="st90" d="M278.8,76L278.8,76c0-2,1.1-3.6,3.6-3.6h22.4c0.1-0.3,0.2-0.6,0.4-0.9H282c-2.4,0-4.4,2-4.4,4.4V76
				c0,2.4,2,4.4,4.4,4.4h23.2c-0.1-0.3-0.3-0.6-0.4-0.9h-22.4C279.9,79.5,278.8,77.9,278.8,76z"/>
			<path class="st91" d="M304.8,72.3h-22.4c-2.5,0-3.6,1.6-3.6,3.6v0h25.4C304.2,74.6,304.5,73.4,304.8,72.3z"/>
			<path class="st92" d="M278.8,75.9L278.8,75.9c0,2,1.1,3.6,3.6,3.6h22.4c-0.4-1-0.6-2.2-0.6-3.6H278.8z"/>
		</g>
		<g>
			<path class="st93" d="M278.7,80.5h29.4c2.9,0,5.2,0.9,5.2,3.9v0.1c0,2.9-2.3,3.9-5.2,3.9h-29.4c0.7-1.3,1.2-1.8,1.2-3.9
				S279.5,81.9,278.7,80.5z"/>
			<path class="st93" d="M311.9,84.5L311.9,84.5c0-2.4-1.3-2.9-4.3-2.9h-28.4c-0.1-0.4-0.3-0.7-0.5-1.1h29.4c2.9,0,5.2,0.9,5.2,3.9
				v0.1c0,2.9-2.3,3.9-5.2,3.9h-29.4c0.2-0.3,0.3-0.7,0.5-1.1h28.4C310.6,87.3,311.9,86.8,311.9,84.5z"/>
			<path class="st91" d="M279.2,81.6h28.4c3,0,4.3,0.5,4.3,2.8v0h-32C279.9,82.9,279.7,82.8,279.2,81.6z"/>
			<path class="st92" d="M311.9,84.4L311.9,84.4c0,2.4-1.3,2.8-4.3,2.8h-28.4c0.4-1.2,0.7-1.3,0.7-2.8H311.9z"/>
		</g>
	</g>
	<line class="st87" x1="203.7" y1="128.6" x2="222.7" y2="128.6"/>
	<line class="st87" x1="194.4" y1="128.6" x2="197.1" y2="128.6"/>
	<g>
		<path class="st94" d="M114.5,148.8c7.3,8,17.1,6.6,26.2,3.3c-6.1-7.2-8.7-18-10.2-26.6c-1.6-9.2-2.6-18.6-5.9-27.4
			c-1.4-3.6-3.7-7.5-7.5-8.2c-1.8-0.3-3.5,0.1-5.1,1c-1.6,2.6-3.1,5.4-4.3,8.3C101.1,114.7,102.9,136.1,114.5,148.8z"/>
		<path class="st12" d="M179.1,158c-2.3-5.4-7.4-10.5-13.2-11.6c-7.6-1.5-15,1.5-21.9,4.4c-1.1,0.5-2.2,0.9-3.3,1.3
			c-9.1,3.3-18.9,4.8-26.2-3.3c-11.6-12.8-13.5-34.1-6.9-49.7c1.2-2.8,2.6-5.6,4.3-8.3c-1,0.6-2,1.3-2.9,2.1
			c-4,3.6-6.3,8.7-8.2,13.7c-7,18.8-8.7,40.1-1.9,59c3.1,8.6,8,16.8,15.4,22.1c1.8,1.3,3.7,2.4,5.6,3.3c2.3,1.1,4.7,2,7.2,2.7
			c3.8,1.1,7.8,1.7,11.8,2c7.1,0.6,14.5,0.2,21.2-2c2.5-0.8,4.8-1.9,7-3.3c0.5-0.3,0.9-0.6,1.3-0.9C178.1,182.8,184,169.2,179.1,158
			z"/>
		<path class="st94" d="M112.6,216.6h4.1l10.6-22.8c-2.5-0.7-4.9-1.6-7.2-2.7L112.6,216.6z"/>
		<path class="st94" d="M160.2,193.8l10.6,22.8h4.1l-7.6-26.2C165.1,191.8,162.7,192.9,160.2,193.8z"/>
		<path class="st16" d="M156.1,173.2c-7.2-0.8-14.3,0.5-21.5,0.4c-9.6-0.1-20.1-2-27.2-8.9c-5-4.8-7.3-12.1-9.4-18.6
			c-1.4-4.5-2.4-9-3-13.7c-1,11.3,0.2,22.6,4,33.2c3.1,8.6,8,16.8,15.4,22.1c1.8,1.3,3.7,2.4,5.6,3.3c2.3,1.1,4.7,2,7.2,2.7
			c3.8,1.1,7.8,1.7,11.8,2c7.1,0.6,14.5,0.2,21.2-2c2.5-0.8,4.8-1.9,7-3.3c0.5-0.3,0.9-0.6,1.3-0.9c2.1-1.5,4-3.4,5.7-5.4
			C170.2,177.8,164,174.1,156.1,173.2z"/>
	</g>
	<g>
		<path class="st95" d="M56.1,172.2c0.9,2.4,1.9,4.8,2.8,7.3c0.4,0.9,1.5,5.6,2.8,5.1c0.6-0.3,0.9-0.9,1-1.6
			c1.7-5.4,2.6-11.1,2.6-16.8c0-2.3-0.1-4.7-1.4-6.6c-0.9-1.3-2.2-2.3-2.9-3.7c-1.1-2.7,0.7-5.6,0.7-8.5c0-1-0.4-2-1.3-2.4
			c-0.4-0.1-0.9-0.1-1.4-0.2c-1.6-0.2-2.5-2.1-2.5-3.7c0-1.6,0.6-3.2,0.7-4.9c0.1-1.6-0.7-3.5-2.3-3.9c-1.2-0.3-2.6,0.4-3.6-0.4
			c-1.1-0.8-0.7-2.5-0.2-3.8c0.5-1.3,1-2.7,0.8-4.1c-0.2-1.4-1.3-2.7-2.6-2.8c-0.9,0-1.8,0.5-2.7,0.3c-1.5-0.3-2-2.3-1.8-3.8
			c0.3-2.1,1.2-4.1,1.8-6.2c0.5-2.1,0.6-4.5-0.7-6.2c-1.2-1.6-3.5-2-5.1-0.8c-1.5,1-1.8,2.9-1.9,4.6c-0.2,3.7,1,7.4,1.8,10.9
			C45.4,137.6,49.7,155.2,56.1,172.2z"/>
		<g>
			<path class="st96" d="M62.2,184.5c-1-2.5-1.9-5-2.7-7.5l-1.2-3.8l-0.6-1.9c-0.2-0.6-0.3-1.3-0.4-1.9c-0.6-2.6-1.1-5.2-1.7-7.8
				c-0.6-2.6-1.3-5.1-2.1-7.6c-0.4-1.3-0.7-2.6-1.2-3.8c-0.5-1.2-1.1-2.4-1.7-3.6c-1.3-2.4-1.7-5.1-2-7.7c-0.3-2.6-0.6-5.3-1.3-7.8
				c-0.7-2.5-1.7-5-2.7-7.4l0.1-0.1c1.1,2.4,2.1,4.9,2.9,7.4c0.8,2.6,1.1,5.2,1.4,7.8c0.4,2.6,0.8,5.2,2,7.6
				c0.6,1.2,1.2,2.3,1.7,3.6c0.4,1.3,0.8,2.5,1.2,3.8c0.8,2.5,1.5,5.1,2.1,7.7c0.6,2.6,1.1,5.2,1.7,7.8c0.2,0.6,0.2,1.3,0.4,1.9
				l0.6,1.9l1.2,3.8c0.8,2.5,1.7,5,2.4,7.6L62.2,184.5z"/>
		</g>
		<g>
			<path class="st96" d="M59.5,175.3c0-0.6,0.1-1.1,0.2-1.7c0.1-0.6,0.2-1.1,0.3-1.7c0.1-1.1,0.2-2.2,0.3-3.4
				c0.1-2.3,0.1-4.5,0.2-6.8l0.1,0c0.2,2.3,0.3,4.5,0.2,6.8c0,1.1-0.1,2.3-0.3,3.4c-0.1,0.6-0.2,1.1-0.3,1.7
				c-0.1,0.6-0.3,1.1-0.6,1.6L59.5,175.3z"/>
		</g>
		<g>
			<path class="st96" d="M56.4,164.8c-0.3,0-0.6-0.3-0.8-0.5c-0.2-0.2-0.4-0.4-0.6-0.7c-0.4-0.5-0.7-1-0.9-1.5
				c-0.5-1-0.8-2.1-1.1-3.3l0.1,0c0.5,1,0.9,2.1,1.4,3.1c0.3,0.5,0.5,1,0.9,1.4c0.2,0.2,0.3,0.4,0.5,0.6c0.2,0.2,0.4,0.4,0.5,0.7
				L56.4,164.8z"/>
		</g>
		<g>
			<path class="st96" d="M52,147.8c0-0.4,0.1-0.7,0.2-1.1c0-0.4,0-0.8,0-1.2c0-0.8-0.1-1.6-0.1-2.4c0-1.6-0.1-3.2,0-4.8l0.1,0
				c0.2,1.6,0.3,3.2,0.4,4.8c0,0.8,0.1,1.6,0.1,2.4c0,0.4,0,0.8-0.1,1.2c-0.1,0.4-0.2,0.9-0.6,1.1L52,147.8z"/>
		</g>
		<g>
			<path class="st96" d="M48.3,137.4c-0.3-0.2-0.5-0.6-0.6-0.9l-0.5-1c-0.3-0.7-0.6-1.3-0.9-2c-0.5-1.4-1.1-2.7-1.4-4.1l0.1,0
				c0.6,1.3,1.2,2.7,1.8,4c0.3,0.7,0.6,1.3,0.9,2l0.4,1c0.2,0.3,0.3,0.7,0.3,1.1L48.3,137.4z"/>
		</g>
		<path class="st95" d="M53.7,99.7c1.3-1.4,2.9-2.3,4.6-3.1c0.5,1.1,0.2,2.4-0.1,3.6c-0.5,1.9-1.1,3.8-2.3,5.3
			c-1.4,1.7-3.4,2.7-5.4,3.7c0.3-0.1,0.8-4.4,1-5.1C51.9,102.5,52.5,100.9,53.7,99.7z"/>
		<path class="st95" d="M56.6,110.7c0.3,2.7-1.1,5.2-2.5,7.5c0.1-0.1-0.3-1.8-0.3-2.1c0-0.6,0-1,0.2-1.6
			C54.4,113,55.4,111.6,56.6,110.7z"/>
		<path class="st95" d="M77.3,128.5c-1.2-5.1-2.2-10.2-1.9-15.6c0.1-2.7,0.5-5.4,1.2-8c0.3-1.3,0.7-2.5,1.2-3.8c0.3-0.8,1-2,1.1-2.8
			c0-0.4-0.2-0.9-0.7-1c-0.3,0-0.6,0.1-0.8,0.3c-1.5,1.1-2.7,2.4-4,3.8c-4.8,5.5-11.6,12.3-8.9,20.3c0.8,2.3,2.3,4.5,2.2,6.9
			c-0.1,2.5-1.9,4.5-2.9,6.7c-1.3,2.8-1.5,6-0.6,8.9c0.9,2.9,2.8,5.5,2.9,8.6c0.1,2.7-1.3,5.1-2.2,7.6c-2.5,6.8-1.8,14.3,0.3,21.2
			c0,0.2,0.1,0.4,0.3,0.4c0.1,0,0.3-0.1,0.4-0.2c1.9-1.7,3.7-3.4,5.6-5.1c1.3-1.2,2.6-2.4,3.4-3.9c1.8-3.4,0.8-7.5-0.3-11.2
			c-1-3.7-2.1-7.8-0.2-11.2c1.3-2.5,3.9-4.1,5.1-6.7c1.3-2.7,0.8-5.9,0.2-8.8C78.4,132.8,77.8,130.6,77.3,128.5z"/>
		<g>
			<path class="st96" d="M64.9,181.5c-0.1-2.1,0-4.3,0.2-6.4c0.2-2.1,0.4-4.3,0.8-6.4c0.4-2.1,0.9-4.2,1.6-6.2c0.8-2,1.6-4,2.3-6
				c1.4-4,2.3-8.2,2.7-12.5c0.4-4.2,0.3-8.5-0.3-12.8l0.1,0c0.7,4.2,0.9,8.5,0.6,12.8c-0.3,4.3-1.2,8.5-2.6,12.6c-0.7,2-1.5,4-2.3,6
				c-0.7,2-1.3,4.1-1.6,6.1c-0.4,2.1-0.6,4.2-0.8,6.3c-0.2,2.1-0.3,4.3-0.6,6.4L64.9,181.5z"/>
		</g>
		<path class="st95" d="M91.4,141.1c0.8-1.1,1.8-2.3,3.2-2.3c0.4,1.4-0.4,2.8-0.9,4.2c-0.9,2.1-1.4,4.4-1.3,6.7c0.1,3,1,6.2-0.3,8.9
			c-1.4,3-4.9,4.4-8.1,5.4c-3.2,1-6.7,2.2-8.3,5.2c-0.5,0.9-0.7,1.9-1.2,2.8c-1.7,3.2-5.8,4.4-8.1,7.3c-0.9,1.1-1.7,2.5-3.1,2.5
			c0-1.2,0.6-2.2,1.2-3.2c6.2-10,13.5-19,20.3-28.4C87,147.2,89.2,144.2,91.4,141.1z"/>
		<g>
			<path class="st96" d="M64.5,179.7c1-1.3,2.2-2.4,3.3-3.7c1.1-1.2,2.1-2.5,3.2-3.7c2.1-2.5,4.1-5.1,6.3-7.6
				c2.1-2.5,4.4-4.9,6.8-7.1c1.2-1.1,2.6-2.1,3.6-3.3c1.1-1.2,1.8-2.7,2.2-4.3l0.1,0c-0.3,1.6-1,3.2-2.1,4.5
				c-1.1,1.3-2.4,2.2-3.6,3.4c-2.4,2.2-4.6,4.6-6.7,7.1l-6.3,7.6c-1.1,1.2-2.1,2.5-3.2,3.7c-1.1,1.2-2.3,2.4-3.5,3.4L64.5,179.7z"/>
		</g>
		<g>
			<path class="st96" d="M81,161.1c0.3-0.3,0.8-0.3,1.2-0.3l1.2,0c0.8,0,1.5-0.1,2.3-0.3c1.5-0.4,2.9-1,4.4-1.6l0.1,0.1
				c-1.3,0.8-2.8,1.5-4.3,2c-0.8,0.2-1.6,0.3-2.4,0.3l-1.2,0c-0.4,0-0.7,0-1.1-0.1L81,161.1z"/>
		</g>
		<g>
			<path class="st96" d="M86.8,155.2c-0.2-0.3-0.2-0.6-0.1-0.9c0-0.3,0.1-0.6,0.1-0.9c0.1-0.6,0.2-1.1,0.5-1.7
				c0.4-1.1,1-2.1,1.8-2.9l0.1,0.1c-0.6,1-1.1,2-1.4,3c-0.2,0.5-0.3,1.1-0.4,1.6c-0.1,0.3-0.1,0.5-0.1,0.8c0,0.3,0,0.5-0.2,0.8
				L86.8,155.2z"/>
		</g>
		<path class="st95" d="M89.5,139.8c0.2,1.4-0.6,2.6-1.4,3.7c-1.2,1.7-2.4,3.5-4.2,4.7c0,0,0.3-2.4,0.4-2.7c0.3-0.8,0.5-1.4,1-2.1
			C86.4,142,87.9,140.7,89.5,139.8z"/>
		<path class="st2" d="M65.1,216.6L65.1,216.6c-8.1,0-14.4-7.2-13.3-15.2l3.4-26.1H75l3.4,26.1C79.5,209.4,73.2,216.6,65.1,216.6z"
			/>
	</g>
	<path class="st97" d="M265,55.3c-11.7,0-21.2,7.2-21.2,16.2s9.5,16.2,21.2,16.2s21.2-7.2,21.2-16.2S276.8,55.3,265,55.3z M255.1,59
		c-0.4,0-0.7-0.2-0.7-0.4c0-0.2,0.3-0.4,0.7-0.4s0.7,0.2,0.7,0.4C255.7,58.9,255.4,59,255.1,59z M269.6,57.4c-0.4,0-0.7-0.2-0.7-0.4
		s0.3-0.4,0.7-0.4s0.7,0.2,0.7,0.4S270,57.4,269.6,57.4z"/>
	<path class="st98" d="M263.3,54.3c-11.3,0-20.4,7-20.4,15.6s9.1,15.6,20.4,15.6c11.3,0,20.4-7,20.4-15.6S274.5,54.3,263.3,54.3z
		 M253.7,57.9c-0.3,0-0.6-0.2-0.6-0.4s0.3-0.4,0.6-0.4s0.6,0.2,0.6,0.4S254,57.9,253.7,57.9z M267.7,56.4c-0.3,0-0.6-0.2-0.6-0.4
		s0.3-0.4,0.6-0.4s0.6,0.2,0.6,0.4S268,56.4,267.7,56.4z"/>
	<g>
		<ellipse class="st99" cx="263.3" cy="69.9" rx="17.4" ry="13.3"/>
	</g>
	<g>
		<g>
			<path class="st12" d="M260.4,60.4c0.9-0.3,2-0.5,3.1-0.5c1,0,1.8,0.1,2.6,0.4c0.8,0.3,1.5,0.7,2,1.1c0.6,0.5,1,1.1,1.3,1.8
				s0.5,1.4,0.5,2.3c0,1.4-0.4,2.6-1.3,3.6c-0.9,1-2.1,1.6-3.7,1.9v3.5h-3.1v-6.6h0.4c0.9,0,1.6-0.3,2.2-0.8
				c0.6-0.5,0.9-1.2,0.9-2.1c0-0.8-0.2-1.4-0.7-1.9c-0.5-0.5-1.1-0.7-1.9-0.7c-0.7,0-1.3,0.2-1.8,0.7c-0.5,0.4-0.8,1.1-0.9,2
				l-2.4-2.9C258.5,61.3,259.5,60.8,260.4,60.4z M263.5,76.3c0.7,0,1.3,0.2,1.7,0.5c0.4,0.4,0.6,0.9,0.6,1.5c0,1.5-0.9,2.2-2.8,2.2
				c-0.7,0-1.3-0.2-1.7-0.6c-0.4-0.4-0.6-0.9-0.6-1.6C260.7,77.1,261.6,76.3,263.5,76.3z"/>
		</g>
	</g>
	<path class="st100" d="M253.7,57.3c0.5-2.3,1.3-4.5,2.4-6.6c0.9-1.7,2.3-4.8,4.7-4.3c1.9,0.4,3.3,2.6,4.3,4.1
		c1,1.6,1.9,3.3,2.5,5.2"/>
</g>
</svg>
