<?xml version="1.0" encoding="utf-8"?>
<!-- Generator: Adobe Illustrator 19.0.0, SVG Export Plug-In . SVG Version: 6.00 Build 0)  -->
<svg version="1.1" id="Layer_1" xmlns="http://www.w3.org/2000/svg" xmlns:xlink="http://www.w3.org/1999/xlink" x="0px" y="0px"
	 viewBox="0 0 1125.9 841.9" style="enable-background:new 0 0 1125.9 841.9;" xml:space="preserve">
<style type="text/css">
	.st0{fill:#EAEAEA;}
	.st1{fill:#FFFFFF;}
	.st2{fill:#EFC9AC;}
	.st3{fill:#CCA687;}
	.st4{fill:#231F20;}
	.st5{fill:#58595B;}
	.st6{fill:#247C2C;}
	.st7{fill:#96D82E;}
	.st8{fill:#074165;}
	.st9{fill:#AAC1CC;}
	.st10{fill:#C1272D;}
	.st11{fill:#000102;}
	.st12{fill:#4CA190;}
	.st13{fill:#1E6061;}
	.st14{fill:#EDDEDA;}
	.st15{fill:#020202;}
	.st16{fill:none;stroke:#541C21;stroke-width:0.5;stroke-linecap:round;stroke-linejoin:round;stroke-miterlimit:10;}
	.st17{opacity:0.3;}
	.st18{fill:#F47779;}
	.st19{fill:#FFF4F1;}
	.st20{fill:#51150B;}
</style>
<g>
	<g>
		<path d="M603.1,455.8H255.2c-1.9,0-3.4-1.5-3.4-3.4V211.9c0-1.9,1.5-3.4,3.4-3.4h347.9c1.9,0,3.4,1.5,3.4,3.4v240.5
			C606.5,454.2,605,455.8,603.1,455.8z"/>
		<path class="st0" d="M593.5,396.9h-327c-1.5,0-2.8-1.3-2.8-2.8V221.4c0-1.5,1.3-2.8,2.8-2.8h327c1.5,0,2.8,1.3,2.8,2.8v172.7
			C596.3,395.7,595,396.9,593.5,396.9z"/>
		<path class="st1" d="M506.1,218.1h-239c-1.5,0-2.8,1.3-2.8,2.8v172.7c0,1.5,1.3,2.8,2.8,2.8h60.7
			C387.2,336.9,446.7,277.5,506.1,218.1z"/>
		<path class="st0" d="M604.2,456.6H255.3c-1.9,0-3.4-1.5-3.4-3.4l-0.1-40.5c16.9,0,349.5,1.1,354.8,1.1l1.1,39.3
			C607.6,455.1,606.1,456.6,604.2,456.6z"/>
		<rect x="387.4" y="456.6" width="81" height="34.1"/>
		<path d="M472.1,500.9h-88.5c-3.6,0-6.5-2.9-6.5-6.5v-2.3c0-3.6,2.9-6.5,6.5-6.5h88.5c3.6,0,6.5,2.9,6.5,6.5v2.3
			C478.6,498,475.7,500.9,472.1,500.9z"/>
	</g>
	<g>
		<g>
			<path class="st2" d="M728.1,510l17.7-1.3c0,0,71.5,285.5,71.3,290.3c-0.2,4.8-5.7,4.7-5.7,4.7s-5.5,0.9-6.5-3.8
				c-1-4.7-94.5-288.6-94.5-288.6L728.1,510z"/>
			<path class="st3" d="M805,799.9c-1-4.7-94.5-288.6-94.5-288.6l17.7-1.3h0.1l83.2,293.7C811.4,803.6,806,804.6,805,799.9z"/>
		</g>
		<g>
			<path class="st2" d="M126.9,510l-17.7-1.3c0,0-71.5,285.5-71.3,290.3c0.2,4.8,5.7,4.7,5.7,4.7s5.5,0.9,6.5-3.8
				c1-4.7,94.5-288.6,94.5-288.6L126.9,510z"/>
			<path class="st3" d="M50.1,799.9c1-4.7,94.5-288.6,94.5-288.6l-17.7-1.3h-0.1L43.6,803.6C43.6,803.6,49.1,804.6,50.1,799.9z"/>
		</g>
		<polygon class="st3" points="795.7,521.5 63.9,521.5 36.8,493.2 824.7,493.2 		"/>
		<path class="st2" d="M53,508.1h755.2l16.4-16.1H36.8l15.4,16.1C52.5,508.1,52.7,508.1,53,508.1z"/>
	</g>
	<g>
		<polygon class="st3" points="507.1,684.9 361.6,577.2 359.5,580 505,687.7 		"/>
		<polygon class="st3" points="521,717.1 365.1,601.7 363,604.5 518.9,719.9 		"/>
		<polygon class="st3" points="339.2,687 484.6,579.3 486.7,582.1 341.2,689.8 		"/>
		<polygon class="st3" points="325.2,719.2 481.1,603.8 483.2,606.6 327.3,722 		"/>
		<g>
			<path class="st2" d="M368.3,557.3l-14.2-1.1c0,0-57.4,248.8-57.3,252.9c0.1,4.2,4.6,4.1,4.6,4.1s4.4,0.8,5.2-3.3
				c0.8-4.1,75.9-251.5,75.9-251.5L368.3,557.3z"/>
			<path class="st3" d="M306.6,809.9c0.8-4.1,75.9-251.5,75.9-251.5l-14.2-1.1h-0.1l-66.8,255.9C301.4,813.2,305.8,814,306.6,809.9z
				"/>
		</g>
		<g>
			<path class="st2" d="M478.3,557.3l14.2-1.1c0,0,57.4,248.8,57.3,252.9c-0.1,4.2-4.6,4.1-4.6,4.1s-4.4,0.8-5.2-3.3
				c-0.8-4.1-75.9-251.5-75.9-251.5L478.3,557.3z"/>
			<path class="st3" d="M540,809.9c-0.8-4.1-75.9-251.5-75.9-251.5l14.2-1.1h0.1l66.8,255.9C545.1,813.2,540.8,814,540,809.9z"/>
		</g>
		<g>
			<path class="st1" d="M512.8,477.8c-19.5-22.1-16.1-69.7-30.6-103.7c-11.9-27.9-45.4-31.8-57.1-32.2v-0.1c0,0-0.7,0-2,0
				c-1.3,0-2,0-2,0v0.1c-11.7,0.5-45.3,4.4-57.1,32.2c-14.4,34-11,81.6-30.6,103.7c-19.5,22.1-62.9,91.8,22.9,90.1
				c36.1-0.7,54-0.5,62.6-0.1c0.4,0,0.7,0,1.1,0c1.7,0,3.4,0.1,5.1,0.3v-0.1c7.7-0.5,25.4-0.8,64.8-0.1
				C575.7,569.6,532.4,499.9,512.8,477.8z"/>
		</g>
	</g>
	<g>
		<g>
			<polygon class="st4" points="102.5,463.9 106.6,463.9 106.6,445 213.6,61.3 209.6,60.1 102.5,444.4 			"/>
			<rect x="98" y="462.3" class="st4" width="13.1" height="13.3"/>
			<rect x="100.9" y="449" class="st5" width="7.3" height="13.3"/>
			<rect x="89.6" y="475.5" class="st5" width="84" height="4.9"/>
			<rect x="77.1" y="480.5" class="st4" width="109" height="9.1"/>
			<polygon class="st4" points="415.7,70.9 417.8,70.9 417.8,60.6 148.3,60.6 148.3,62.7 415.7,62.7 			"/>
			<path class="st4" d="M205.1,62.2c0,3.2,2.6,5.8,5.8,5.8c3.2,0,5.8-2.6,5.8-5.8c0-3.2-2.6-5.8-5.8-5.8
				C207.7,56.4,205.1,59,205.1,62.2z"/>
			<path class="st4" d="M412.6,70.9c0,2.3,1.9,4.2,4.2,4.2c2.3,0,4.2-1.9,4.2-4.2c0-2.3-1.9-4.2-4.2-4.2
				C414.5,66.8,412.6,68.6,412.6,70.9z"/>
			<rect x="139.9" y="58.5" class="st5" width="39.6" height="6.3"/>
			<g>
				<path class="st1" d="M363.5,133.8c0,0,24.5,4.2,53.3,4.2c28.9,0,53.3-4.2,53.3-4.2l-3.5-57.7c0,0-24.2-3.5-49.8-3.5
					c-25.6,0-49.8,3.5-49.8,3.5L363.5,133.8z"/>
			</g>
		</g>
	</g>
	<g id="cup">
		<path class="st1" d="M174.4,449c1.1,0.6,1.8,1.8,1.9,3.1c0.2,1.8-0.8,3.8-2.5,5.3c-2.1,1.9-5.9,3.7-9.3,5c-0.4,1.2-1,2.7-1.8,4.1
			c4.3-1.4,10.1-3.8,13.2-6.6c2.6-2.3,3.9-5.2,3.6-8.1c-0.2-2.4-1.3-4.4-3.3-5.6c-3.1-1.8-6.4-1-8.5,0c-0.2,1.1-0.7,4.2-0.7,4.2
			C167.1,450.4,171.2,447.1,174.4,449z"/>
		<path class="st1" d="M141.8,470.2h17.9c4.5-3.2,5.8-8.4,6.4-10.6c0.7-2.9,2.3-12.4,2.7-15.2c-1.5,0-34.7,0-36.1,0
			c0.4,2.8,2,12.3,2.7,15.2C136,461.7,137.3,467,141.8,470.2z"/>
		<g>
			<path class="st3" d="M167.5,475c7.6-1.4,12.8-3.6,15.4-4.9c-4.5,0-58.8,0-63.4,0c2.7,1.3,7.8,3.5,15.4,4.9H167.5z"/>
		</g>
	</g>
	<g>
		<g>
			<path class="st6" d="M824.2,409.4c0,0-0.7,0.6-1.8,1.8c-0.5,0.6-1.2,1.3-1.9,2.2c-0.7,0.8-1.5,1.9-2.3,3
				c-0.4,0.6-0.8,1.2-1.2,1.8c-0.2,0.3-0.4,0.6-0.6,0.9c-0.2,0.3-0.4,0.7-0.6,1c-0.4,0.7-0.8,1.4-1.2,2.1c-0.4,0.7-0.8,1.5-1.2,2.2
				c-0.2,0.4-0.4,0.8-0.6,1.1c-0.2,0.4-0.4,0.8-0.5,1.2c-0.4,0.8-0.7,1.6-1.1,2.4c-0.6,1.7-1.3,3.3-1.9,5c-0.5,1.7-1.1,3.4-1.5,5.1
				c-0.4,1.7-0.8,3.4-1.1,5c-0.3,1.6-0.6,3.2-0.8,4.7c-0.2,1.5-0.3,3-0.5,4.3c-0.1,0.7-0.1,1.3-0.2,1.9c-0.1,0.6-0.1,1.2-0.1,1.7
				c0,1.1-0.1,2-0.1,2.8c-0.1,1.5-0.1,2.4-0.1,2.4l-8.5-0.7c0,0,0.2-0.9,0.5-2.6c0.2-0.8,0.3-1.8,0.6-3c0.1-0.6,0.2-1.2,0.4-1.8
				c0.2-0.6,0.3-1.3,0.5-2c0.4-1.4,0.7-2.9,1.2-4.5c0.5-1.6,1-3.2,1.6-4.9c0.6-1.7,1.3-3.4,2-5.1c0.7-1.7,1.6-3.4,2.4-5.1
				c0.9-1.7,1.8-3.3,2.7-4.9c0.5-0.8,1-1.6,1.5-2.3c0.2-0.4,0.5-0.8,0.7-1.1c0.3-0.4,0.5-0.7,0.8-1.1c0.5-0.7,1-1.4,1.5-2.1
				c0.5-0.7,1.1-1.3,1.6-1.9c0.3-0.3,0.5-0.6,0.7-0.9c0.3-0.3,0.5-0.6,0.8-0.9c0.5-0.6,1-1.1,1.5-1.6c1-1,1.9-1.9,2.7-2.6
				c0.8-0.8,1.6-1.4,2.2-1.9C823.4,409.9,824.2,409.4,824.2,409.4z"/>
			<path class="st6" d="M791.3,459.9c0,0,0-0.3,0-0.9c0-0.3,0-0.7,0-1.1c0-0.4,0-0.9,0-1.4c0.1-2.1,0.2-5.1,0.5-8.7
				c0.2-1.8,0.3-3.7,0.6-5.7c0.2-2,0.5-4.2,0.9-6.3c0.3-2.2,0.8-4.5,1.2-6.7c0.5-2.3,1-4.6,1.5-6.9c0.3-1.1,0.6-2.3,0.9-3.4l0.4-1.7
				c0.2-0.6,0.3-1.1,0.5-1.7c0.7-2.2,1.3-4.4,2.1-6.5c0.8-2.1,1.5-4.1,2.3-5.9c0.4-0.9,0.8-1.8,1.2-2.7c0.2-0.4,0.4-0.9,0.6-1.3
				c0.2-0.4,0.4-0.8,0.6-1.2c0.8-1.5,1.6-3,2.2-4.2c0.7-1.2,1.4-2.3,1.9-3.1c1.1-1.7,1.7-2.7,1.7-2.7s-0.5,1.1-1.3,2.9
				c-0.4,0.9-0.9,2-1.4,3.3c-0.5,1.3-1,2.8-1.5,4.4c-0.1,0.4-0.3,0.8-0.4,1.2c-0.1,0.4-0.2,0.9-0.4,1.3c-0.2,0.9-0.5,1.8-0.7,2.8
				c-0.6,1.9-0.9,3.9-1.3,6c-0.5,2.1-0.7,4.3-1.1,6.5c-0.1,0.6-0.2,1.1-0.2,1.7l-0.2,1.7c-0.1,1.1-0.2,2.3-0.3,3.4
				c-0.2,2.3-0.3,4.5-0.4,6.7c0,2.2-0.1,4.4-0.1,6.5c0,2.1,0,4.2,0.1,6.1c0.1,1.9,0.2,3.8,0.3,5.4c0.3,3.4,0.6,6.1,0.8,8.1
				c0.1,0.5,0.1,0.9,0.2,1.3c0.1,0.4,0.1,0.6,0.1,0.9c0.1,0.5,0.1,0.8,0.1,0.8L791.3,459.9z"/>
			<path class="st7" d="M788.8,461.2c0,0,0-0.3,0.1-0.7c0.1-0.5,0.2-1.2,0.4-2.1c0.4-1.8,0.9-4.3,1.7-7.3c0.4-1.5,0.8-3.1,1.3-4.8
				c0.5-1.7,1-3.5,1.6-5.3c0.5-1.8,1.2-3.7,1.9-5.6c0.7-1.9,1.4-3.8,2.1-5.7c0.8-1.9,1.5-3.8,2.4-5.6c0.4-0.9,0.8-1.8,1.3-2.7
				c0.2-0.4,0.4-0.9,0.6-1.3c0.2-0.4,0.4-0.9,0.7-1.3c0.4-0.8,0.9-1.7,1.3-2.5c0.2-0.4,0.4-0.8,0.6-1.2c0.2-0.4,0.5-0.8,0.7-1.1
				c0.9-1.5,1.7-2.9,2.6-4.2c0.9-1.2,1.6-2.4,2.3-3.4c0.7-1,1.4-1.8,2-2.5c1.1-1.4,1.7-2.1,1.7-2.1s-0.5,0.9-1.3,2.4
				c-0.4,0.8-0.9,1.7-1.4,2.8c-0.5,1.1-1,2.3-1.7,3.7c-0.6,1.3-1.1,2.9-1.7,4.4c-0.1,0.4-0.3,0.8-0.4,1.2c-0.1,0.4-0.3,0.8-0.4,1.3
				c-0.3,0.8-0.5,1.7-0.8,2.6c-0.1,0.4-0.3,0.9-0.4,1.3c-0.1,0.5-0.2,0.9-0.4,1.4c-0.2,0.9-0.5,1.8-0.7,2.8
				c-0.5,1.9-0.9,3.8-1.3,5.7c-0.4,1.9-0.7,3.8-1,5.7c-0.3,1.9-0.6,3.7-0.8,5.6c-0.2,1.8-0.4,3.6-0.6,5.2c-0.2,1.7-0.3,3.2-0.4,4.7
				c-0.2,2.9-0.3,5.3-0.3,7c0,0.8,0,1.5,0,1.9c0,0.4,0,0.7,0,0.7L788.8,461.2z"/>
			<path class="st6" d="M781.5,459.6c0,0,0-0.4,0-1c0-0.7,0.1-1.7,0.1-3c0.1-2.5,0.4-6.1,0.8-10.4c0.2-2.1,0.4-4.5,0.8-6.9
				c0.2-1.2,0.3-2.5,0.5-3.8c0.2-1.3,0.4-2.6,0.6-3.9c0.4-2.7,0.9-5.4,1.4-8.1c0.5-2.8,1.1-5.6,1.8-8.3c0.3-1.4,0.7-2.8,1-4.2
				c0.3-1.4,0.7-2.8,1.1-4.1c0.4-1.3,0.8-2.7,1.2-4c0.2-0.7,0.4-1.3,0.6-2c0.2-0.6,0.4-1.3,0.7-1.9c0.4-1.3,0.9-2.5,1.3-3.7
				c0.2-0.6,0.4-1.2,0.6-1.8c0.2-0.6,0.5-1.2,0.7-1.7c0.5-1.1,0.9-2.2,1.3-3.3c0.4-1.1,0.8-2.1,1.3-3c0.9-1.9,1.8-3.7,2.5-5.2
				c0.8-1.5,1.6-2.8,2.2-3.9c1.2-2.1,1.9-3.4,1.9-3.4s-0.5,1.3-1.5,3.6c-0.4,1.1-1.1,2.5-1.6,4.1c-0.5,1.6-1.1,3.4-1.8,5.4
				c-0.4,1-0.6,2-0.9,3.1c-0.3,1.1-0.6,2.2-0.9,3.4c-0.1,0.6-0.3,1.2-0.5,1.8c-0.1,0.6-0.3,1.2-0.4,1.8c-0.2,1.2-0.5,2.5-0.8,3.8
				c-0.1,0.6-0.3,1.3-0.4,1.9c-0.1,0.7-0.2,1.3-0.3,2c-0.2,1.3-0.4,2.7-0.6,4c-0.2,1.3-0.4,2.7-0.5,4.1c-0.2,1.4-0.3,2.8-0.5,4.1
				c-0.2,2.8-0.5,5.5-0.6,8.3c-0.1,2.7-0.3,5.4-0.3,8c0,1.3,0,2.6-0.1,3.8c0,1.3,0,2.5,0,3.7c0,2.4,0.1,4.6,0.1,6.7
				c0.1,4.1,0.4,7.6,0.6,9.9c0.1,1.2,0.2,2.1,0.2,2.7c0.1,0.6,0.1,1,0.1,1L781.5,459.6z"/>
			<path class="st7" d="M775.2,461.7c0,0,0-0.4-0.1-1.2c-0.1-0.8-0.2-1.9-0.3-3.4c-0.2-2.9-0.4-7-0.4-12c0-4.9,0.1-10.7,0.5-16.9
				c0.2-3.1,0.5-6.2,0.8-9.5c0.3-3.2,0.8-6.5,1.3-9.7c0.3-1.6,0.6-3.2,0.8-4.8c0.3-1.6,0.6-3.2,1-4.8c0.7-3.1,1.5-6.2,2.4-9.2
				c0.9-2.9,1.8-5.8,2.8-8.4c1-2.6,2-5.1,3.1-7.3c0.5-1.1,1.1-2.1,1.5-3.1c0.5-1,1-1.9,1.5-2.8c0.5-0.9,1-1.7,1.4-2.4
				c0.5-0.7,0.9-1.4,1.2-2c0.8-1.2,1.5-2.1,1.9-2.7c0.4-0.6,0.7-0.9,0.7-0.9s-0.2,0.4-0.6,1c-0.4,0.7-0.9,1.6-1.6,2.9
				c-0.3,0.6-0.6,1.3-1,2.1c-0.4,0.8-0.8,1.6-1.1,2.5c-0.4,0.9-0.8,1.9-1.2,2.9c-0.4,1-0.8,2.1-1.2,3.2c-0.8,2.3-1.5,4.8-2.2,7.4
				c-0.7,2.7-1.3,5.5-1.8,8.4c-0.5,2.9-0.9,6-1.3,9.1c-0.2,1.6-0.3,3.1-0.4,4.7c-0.1,1.6-0.2,3.2-0.3,4.7c-0.1,3.2-0.2,6.3-0.2,9.5
				c0,3.1,0.1,6.2,0.2,9.2c0.3,5.9,0.8,11.5,1.4,16.2c0.6,4.7,1.2,8.6,1.7,11.3c0.2,1.3,0.4,2.4,0.6,3.1c0.1,0.7,0.2,1,0.2,1
				L775.2,461.7z"/>
			<path class="st6" d="M770,459.3c0,0,0.1-1.2,0.3-3.2c0.2-2,0.4-5,0.6-8.5c0.2-3.5,0.4-7.7,0.5-12.1c0-1.1,0-2.2,0.1-3.4
				c0-1.1,0-2.3,0-3.5c0-2.3,0-4.7-0.1-7.1c0-2.4-0.2-4.7-0.2-7.1c-0.1-2.3-0.3-4.6-0.4-6.8c-0.2-2.2-0.4-4.4-0.6-6.4
				c-0.3-2-0.5-3.9-0.8-5.7c-0.3-1.8-0.6-3.4-0.9-4.8c-0.2-1.4-0.6-2.7-0.8-3.7c-0.5-2-0.8-3.2-0.8-3.2s0.5,1.1,1.3,3
				c0.4,1,0.9,2.1,1.4,3.5c0.5,1.4,1,2.9,1.6,4.7c0.5,1.7,1.1,3.6,1.6,5.6c0.5,2,1,4.1,1.6,6.3c0.5,2.2,1,4.5,1.5,6.8
				c0.4,2.3,0.9,4.7,1.3,7.1c0.4,2.4,0.8,4.8,1.2,7.1c0.2,1.2,0.3,2.3,0.5,3.5c0.2,1.2,0.3,2.3,0.5,3.4c0.6,4.5,1,8.7,1.4,12.3
				c0.3,3.6,0.6,6.6,0.7,8.8c0.1,2.1,0.2,3.4,0.2,3.4L770,459.3z"/>
			<path class="st7" d="M762.7,457.5c0,0,0.1-0.2,0.2-0.6c0-0.2,0.1-0.4,0.2-0.7c0.1-0.3,0.1-0.6,0.2-1c0.4-1.5,0.8-3.6,1.3-6.3
				c0.2-1.3,0.5-2.7,0.6-4.3c0.2-1.5,0.4-3.1,0.5-4.8c0.2-1.7,0.2-3.4,0.4-5.2c0-1.8,0.1-3.6,0.1-5.4c0-0.9-0.1-1.8-0.1-2.7l0-1.3
				c0-0.4-0.1-0.9-0.1-1.3c-0.2-1.8-0.2-3.5-0.5-5.2c-0.3-1.7-0.4-3.3-0.8-4.8c-0.2-0.8-0.3-1.5-0.5-2.2c-0.1-0.4-0.2-0.7-0.2-1.1
				c-0.1-0.3-0.2-0.7-0.3-1c-0.4-1.3-0.8-2.5-1.1-3.6c-0.4-1-0.8-1.9-1.1-2.7c-0.6-1.5-1-2.4-1-2.4s0.5,0.8,1.4,2.1
				c0.4,0.7,1,1.5,1.6,2.5c0.5,1,1.2,2.1,1.8,3.4c0.2,0.3,0.3,0.6,0.5,1c0.1,0.3,0.3,0.7,0.5,1c0.3,0.7,0.6,1.4,1,2.2
				c0.7,1.5,1.2,3.1,1.8,4.8c0.6,1.7,1.1,3.4,1.6,5.2c0.1,0.5,0.3,0.9,0.4,1.4l0.3,1.4c0.2,0.9,0.4,1.9,0.6,2.8
				c0.4,1.9,0.7,3.7,1,5.6c0.2,1.9,0.6,3.7,0.7,5.5c0.2,1.8,0.4,3.5,0.5,5.2c0.1,1.6,0.2,3.2,0.2,4.6c0.1,2.9,0.1,5.3,0,7
				c0,0.4,0,0.8,0,1.2c0,0.4,0,0.7-0.1,0.9c0,0.5,0,0.7,0,0.7L762.7,457.5z"/>
			<path class="st6" d="M759.3,457.3C759.3,457.3,759.3,457.2,759.3,457.3c0-0.1,0.1-0.1,0.1-0.2c0.1-0.1,0.2-0.4,0.3-0.7
				c0.3-0.7,0.6-1.7,0.9-3c0.6-2.5,1.1-6.1,0.5-9.5c-0.2-0.8-0.4-1.7-0.7-2.5c-0.3-0.8-0.7-1.5-1.2-2.3c-0.2-0.3-0.5-0.7-0.7-1
				c-0.3-0.3-0.5-0.6-0.8-0.9c-0.3-0.3-0.6-0.5-0.9-0.8c-0.3-0.2-0.6-0.5-0.9-0.7c-0.6-0.4-1.2-0.8-1.7-1.1c-0.5-0.3-1-0.6-1.4-0.7
				c-0.8-0.4-1.3-0.5-1.3-0.5s0.5,0,1.4,0.1c0.5,0,1,0.1,1.6,0.2c0.6,0.1,1.3,0.2,2.1,0.5c0.4,0.1,0.8,0.2,1.2,0.4
				c0.4,0.2,0.8,0.3,1.3,0.5c0.4,0.2,0.9,0.4,1.3,0.7c0.4,0.3,0.9,0.6,1.3,0.9c0.9,0.7,1.7,1.4,2.5,2.2c0.8,0.8,1.5,1.8,2.1,2.8
				c0.6,1,1.2,2.1,1.6,3.1c0.5,1.1,0.8,2.1,1.2,3.2c0.6,2.1,1,4.1,1.2,5.9c0.2,1.7,0.3,3.2,0.3,4.3c0,0.5,0,1,0,1.3
				c0,0.3,0,0.5,0,0.5L759.3,457.3z"/>
			<path class="st7" d="M789,462.2c0,0,0-0.3-0.1-0.8c0-0.3-0.1-0.6-0.1-1c0-0.4-0.1-0.8-0.1-1.3c-0.1-0.9-0.2-2.1-0.3-3.4
				c-0.1-1.3-0.2-2.7-0.2-4.3c-0.1-1.6,0-3.3,0-5.1c0-1.8,0.1-3.7,0.2-5.6c0.1-1,0.2-2,0.2-3c0-0.5,0.1-1,0.1-1.5
				c0.1-0.5,0.1-1,0.2-1.5c0.1-1,0.2-2,0.4-3.1c0.1-1,0.3-2,0.5-3.1c0.2-1,0.3-2,0.5-3.1c0.2-1,0.4-2,0.6-3c0.4-2,0.9-3.9,1.4-5.8
				c0.5-1.9,1.1-3.6,1.6-5.3c0.3-0.8,0.6-1.6,0.8-2.4c0.3-0.8,0.6-1.5,0.9-2.2c0.6-1.4,1.1-2.7,1.6-3.8c0.5-1.1,1-2.1,1.4-2.9
				c0.8-1.6,1.2-2.5,1.2-2.5s-0.3,1-0.8,2.7c-0.2,0.8-0.5,1.9-0.9,3.1c-0.3,1.2-0.5,2.5-0.9,4c-0.2,0.7-0.3,1.5-0.5,2.3
				c-0.1,0.8-0.2,1.6-0.4,2.5c-0.2,1.7-0.5,3.5-0.6,5.3c-0.2,1.9-0.3,3.8-0.4,5.7c0,1-0.1,1.9-0.1,2.9c0,1,0,2,0,3c0,1,0,2,0.1,2.9
				c0.1,1,0.1,1.9,0.2,2.9c0,0.5,0.1,1,0.1,1.4c0,0.5,0.1,0.9,0.1,1.4c0.1,0.9,0.2,1.9,0.3,2.8c0.2,1.8,0.5,3.6,0.8,5.2
				c0.3,1.6,0.6,3.2,0.9,4.6c0.3,1.4,0.6,2.7,0.9,3.8c0.3,1.1,0.5,2.1,0.8,2.9c0.1,0.4,0.2,0.7,0.3,1c0.1,0.3,0.2,0.5,0.2,0.7
				c0.1,0.4,0.2,0.6,0.2,0.6L789,462.2z"/>
		</g>
		<polygon class="st3" points="755.8,448.5 810.4,448.5 800.6,491.7 765.5,491.7 		"/>
		<path class="st2" d="M752.2,448.5c0,1.6,1.3,2.9,2.9,2.9h55.9c1.6,0,2.9-1.3,2.9-2.9l0,0c0-1.6-1.3-2.9-2.9-2.9h-55.9
			C753.5,445.6,752.2,446.9,752.2,448.5L752.2,448.5z"/>
	</g>
	<g>
		<g>
			<rect x="641.1" y="462.2" class="st8" width="76.2" height="14.9"/>
			<rect x="651.5" y="462.2" class="st9" width="3.5" height="14.9"/>
			<rect x="707" y="462.2" class="st9" width="3.5" height="14.9"/>
		</g>
		<g>
			<rect x="655" y="477" class="st10" width="76.2" height="14.9"/>
			<rect x="665.4" y="477" class="st1" width="3.5" height="14.9"/>
			<rect x="720.8" y="477" class="st1" width="3.5" height="14.9"/>
		</g>
		<g>
			<rect x="655" y="437.9" class="st8" width="68.3" height="13.3"/>
			<rect x="664.3" y="437.9" class="st9" width="3.1" height="13.3"/>
			<rect x="714" y="437.9" class="st9" width="3.1" height="13.3"/>
		</g>
		<g>
			<rect x="667.4" y="451.2" class="st10" width="68.3" height="13.3"/>
			<rect x="676.7" y="451.2" class="st1" width="3.1" height="13.3"/>
			<rect x="726.4" y="451.2" class="st1" width="3.1" height="13.3"/>
		</g>
	</g>
	<g>
		<circle cx="984.1" cy="148" r="86.9"/>
		<circle class="st1" cx="984.1" cy="148" r="74.5"/>
		<g>
			<path class="st4" d="M979.5,83.3L979.5,83.3l-1.8,0.8l-0.4-1.6l2.5-1.1h1.8v9.3h-2.1V83.3z"/>
			<path class="st4" d="M984.7,90.7v-1.3l1.2-1.1c2-1.8,3-2.9,3-4c0-0.8-0.5-1.4-1.5-1.4c-0.8,0-1.5,0.4-2,0.8l-0.6-1.6
				c0.7-0.5,1.8-1,3-1c2.1,0,3.3,1.2,3.3,2.9c0,1.6-1.1,2.8-2.5,4l-0.9,0.7v0h3.5v1.8H984.7z"/>
		</g>
		<g>
			<path class="st4" d="M1049.1,149.1c0.4,0.2,1.3,0.6,2.2,0.6c1.1,0,1.7-0.5,1.7-1.2c0-0.9-0.9-1.3-1.9-1.3h-0.9v-1.6h0.8
				c0.7,0,1.7-0.3,1.7-1.1c0-0.6-0.5-1-1.4-1c-0.8,0-1.6,0.3-1.9,0.6l-0.4-1.6c0.6-0.4,1.7-0.7,2.9-0.7c2,0,3.1,1,3.1,2.3
				c0,1-0.6,1.8-1.7,2.2v0c1.1,0.2,2,1,2,2.3c0,1.6-1.4,2.8-3.8,2.8c-1.2,0-2.2-0.3-2.8-0.7L1049.1,149.1z"/>
		</g>
		<g>
			<path class="st4" d="M915.2,149.6c0.3,0,0.5,0,0.9,0c0.7,0,1.3-0.2,1.8-0.6c0.6-0.4,1-1,1.2-1.7l0,0c-0.4,0.4-1,0.7-1.9,0.7
				c-1.6,0-2.9-1.1-2.9-2.9c0-1.8,1.5-3.3,3.5-3.3c2.4,0,3.5,1.8,3.5,4c0,1.9-0.6,3.3-1.6,4.3c-0.9,0.8-2.1,1.2-3.5,1.3
				c-0.4,0-0.7,0-1,0V149.6z M916.6,145c0,0.8,0.4,1.5,1.3,1.5c0.6,0,1-0.3,1.2-0.6c0.1-0.1,0.1-0.3,0.1-0.5c0-1-0.4-2-1.4-2
				C917.1,143.3,916.6,144,916.6,145z"/>
		</g>
		<g>
			<path class="st4" d="M986.7,202.8c-0.2,0-0.5,0-0.8,0c-1.9,0.2-2.8,1.1-3,2.2h0c0.5-0.5,1.1-0.7,2-0.7c1.6,0,2.9,1.1,2.9,3
				c0,1.8-1.4,3.4-3.4,3.4c-2.5,0-3.7-1.8-3.7-4.1c0-1.7,0.6-3.2,1.6-4.1c0.9-0.8,2.1-1.3,3.6-1.4c0.4,0,0.7,0,0.9,0V202.8z
				 M985.5,207.5c0-0.9-0.5-1.6-1.4-1.6c-0.6,0-1.1,0.4-1.3,0.8c-0.1,0.1-0.1,0.3-0.1,0.5c0,1,0.5,1.9,1.5,1.9
				C985,209.1,985.5,208.4,985.5,207.5z"/>
		</g>
		<circle class="st4" cx="986.5" cy="148" r="3.1"/>
		<path class="st4" d="M989.6,123.5C989,113,986.5,99,986.5,99s-2.5,14-3.1,24.5c-0.6,10.5,3.1,24.5,3.1,24.5S990.3,134,989.6,123.5
			z"/>
		<path class="st4" d="M995.9,170.8c5.7,8.8,23.8,33.8,23.8,33.8s-13.8-27.5-18.4-36.9c-4.6-9.4-14.8-19.7-14.8-19.7
			S990.2,162,995.9,170.8z"/>
	</g>
	<g>
		<g>
			<g>
				<rect x="771.8" y="19.6" class="st1" width="71.2" height="157"/>
			</g>
			<g>
				<path class="st11" d="M843.4,176.9h-72V19.2h72V176.9z M772.1,176.2h70.5V19.9h-70.5V176.2z"/>
			</g>
		</g>
		<g>
			<g>
				<polygon class="st11" points="792.6,146.4 791.9,146 800.3,130.1 800.4,130 822.7,113.4 822.7,50.9 823.4,50.9 823.4,113.8 
					800.9,130.6 				"/>
			</g>
			<g>
				<polygon class="st11" points="823,138.6 800.2,130.6 800.5,80.8 790.9,60.9 791.5,60.6 801.3,80.6 801.3,80.7 801,130.1 
					823.2,137.9 				"/>
			</g>
			<g>
				<path class="st12" d="M800.9,80.7c0,0-17.9,25-0.3,49.6C800.6,130.3,817.9,110.4,800.9,80.7z"/>
				<path class="st11" d="M800.6,130.9l-0.3-0.4c-17.6-24.6,0.1-49.8,0.3-50.1l0.3-0.5l0.3,0.5c17,29.6-0.2,49.9-0.3,50.1
					L800.6,130.9z M800.9,81.4c-2.3,3.6-15.7,26.2-0.3,48.3C802.8,126.9,815.9,108,800.9,81.4z"/>
			</g>
			<g>
				<path class="st10" d="M823.5,64c0,0-17.9,25-0.3,49.6C823.2,113.6,840.6,93.6,823.5,64z"/>
				<path class="st11" d="M823.2,114.2l-0.3-0.4c-17.6-24.6,0.1-49.8,0.3-50.1l0.3-0.5l0.3,0.5c17,29.6-0.2,49.9-0.3,50.1
					L823.2,114.2z M823.5,64.7c-2.3,3.6-15.7,26.2-0.2,48.3C825.4,110.1,838.5,91.3,823.5,64.7z"/>
			</g>
			<g>
				<path class="st10" d="M823.1,138.2c0,0-11.1,15.5-0.2,30.9C822.9,169.1,833.7,156.7,823.1,138.2z"/>
				<path class="st11" d="M822.9,169.7l-0.3-0.4c-11-15.4,0.1-31.2,0.2-31.3l0.3-0.5l0.3,0.5c10.6,18.5-0.1,31.2-0.2,31.3
					L822.9,169.7z M823.1,139c-1.7,2.7-9.3,16.2-0.1,29.5C824.6,166.3,832,154.9,823.1,139z"/>
			</g>
			<g>
				<path class="st10" d="M791.4,29.9c0,0-11.1,15.5-0.2,30.9C791.2,60.8,802,48.3,791.4,29.9z"/>
				<path class="st11" d="M791.2,61.3l-0.3-0.4c-11-15.4,0.1-31.2,0.2-31.3l0.3-0.5l0.3,0.5c10.6,18.5-0.1,31.2-0.2,31.3L791.2,61.3
					z M791.4,30.6c-1.7,2.7-9.3,16.2-0.1,29.5C792.9,57.9,800.2,46.5,791.4,30.6z"/>
			</g>
			<g>
				<g>
					<g>
						<line class="st13" x1="823.1" y1="26.8" x2="823.1" y2="50.9"/>
					</g>
					<g>
						<rect x="823" y="26.8" class="st11" width="0.2" height="24"/>
					</g>
				</g>
				<g>
					<g>
						<line class="st13" x1="835" y1="38.8" x2="811" y2="38.8"/>
					</g>
					<g>
						<rect x="811" y="38.8" class="st11" width="24" height="0.2"/>
					</g>
				</g>
				<g>
					<g>
						<line class="st13" x1="830.9" y1="46.8" x2="814" y2="29.8"/>
					</g>
					<g>
						
							<rect x="822.4" y="26.3" transform="matrix(-0.7017 0.7125 -0.7125 -0.7017 1426.8734 -520.8136)" class="st11" width="0.2" height="24"/>
					</g>
				</g>
				<g>
					<g>
						<line class="st13" x1="831.5" y1="30.4" x2="814.5" y2="47.3"/>
					</g>
					<g>
						
							<rect x="822.9" y="26.8" transform="matrix(0.7031 0.7111 -0.7111 0.7031 271.9859 -573.7151)" class="st11" width="0.2" height="24"/>
					</g>
				</g>
				<g>
					<circle class="st11" cx="823" cy="26.8" r="1.2"/>
				</g>
				<g>
					<circle class="st11" cx="823" cy="50.9" r="1.2"/>
				</g>
				<g>
					<circle class="st11" cx="811" cy="38.8" r="1.2"/>
				</g>
				<g>
					<circle class="st11" cx="835" cy="38.8" r="1.2"/>
				</g>
				<g>
					<circle class="st11" cx="831.5" cy="30.5" r="1.2"/>
				</g>
				<g>
					<circle class="st11" cx="814.5" cy="47.3" r="1.2"/>
				</g>
				<g>
					<circle class="st11" cx="814" cy="29.7" r="1.2"/>
				</g>
				<g>
					<circle class="st11" cx="830.9" cy="46.8" r="1.2"/>
				</g>
			</g>
			<g>
				<g>
					<g>
						<line class="st13" x1="792.3" y1="146.2" x2="792.3" y2="170.2"/>
					</g>
					<g>
						<rect x="792.2" y="146.2" class="st11" width="0.2" height="24"/>
					</g>
				</g>
				<g>
					<g>
						<line class="st13" x1="804.2" y1="158.2" x2="780.2" y2="158.2"/>
					</g>
					<g>
						<rect x="780.2" y="158.1" class="st11" width="24" height="0.2"/>
					</g>
				</g>
				<g>
					<g>
						<line class="st13" x1="800.2" y1="166.1" x2="783.2" y2="149.1"/>
					</g>
					<g>
						
							<rect x="791.6" y="145.6" transform="matrix(-0.7072 0.7071 -0.7071 -0.7072 1462.9561 -290.6702)" class="st11" width="0.2" height="24"/>
					</g>
				</g>
				<g>
					<g>
						<line class="st13" x1="800.7" y1="149.7" x2="783.7" y2="166.7"/>
					</g>
					<g>
						
							<rect x="792.1" y="146.2" transform="matrix(0.7111 0.7031 -0.7031 0.7111 340.1423 -511.3447)" class="st11" width="0.2" height="24"/>
					</g>
				</g>
				<g>
					<circle class="st11" cx="792.2" cy="146.2" r="1.2"/>
				</g>
				<g>
					<circle class="st11" cx="792.2" cy="170.2" r="1.2"/>
				</g>
				<g>
					<circle class="st11" cx="780.2" cy="158.1" r="1.2"/>
				</g>
				<g>
					<circle class="st11" cx="804.2" cy="158.1" r="1.2"/>
				</g>
				<g>
					<circle class="st11" cx="800.7" cy="149.8" r="1.2"/>
				</g>
				<g>
					<circle class="st11" cx="783.7" cy="166.7" r="1.2"/>
				</g>
				<g>
					<circle class="st11" cx="783.2" cy="149.1" r="1.2"/>
				</g>
				<g>
					<circle class="st11" cx="800.2" cy="166.1" r="1.2"/>
				</g>
			</g>
		</g>
	</g>
	<g>
		<g>
			<g>
				<rect x="664.8" y="106.9" class="st1" width="89.9" height="198.1"/>
			</g>
			<g>
				<path class="st11" d="M755.1,305.4h-90.6V106.5h90.6V305.4z M665.2,304.6h89.1V107.3h-89.1V304.6z"/>
			</g>
		</g>
		<g>
			<g>
				<polygon class="st11" points="691,266.8 690.3,266.5 700.9,246.4 701,246.4 729.1,225.3 729.1,146.4 729.9,146.4 729.9,225.7 
					701.5,246.9 				"/>
			</g>
			<g>
				<polygon class="st11" points="729.5,257 700.9,246.9 701.2,184.1 689,159 689.7,158.7 702,183.9 702,184 701.6,246.4 
					729.8,256.3 				"/>
			</g>
			<g>
				<path class="st12" d="M701.6,184c0,0-22.6,31.5-0.4,62.6C701.2,246.6,723.1,221.5,701.6,184z"/>
				<path class="st11" d="M701.2,247.2l-0.3-0.4c-22.1-31,0.1-62.7,0.4-63.1l0.3-0.5l0.3,0.5c11.2,19.4,10.5,35.5,7.9,45.6
					c-2.8,10.9-8.3,17.4-8.3,17.4L701.2,247.2z M701.6,184.7c-2.7,4.1-20.2,33-0.3,61.3c1.2-1.5,5.5-7.5,7.9-16.8
					C711.6,219.4,712.3,203.7,701.6,184.7z"/>
			</g>
			<g>
				<path class="st10" d="M730.1,162.9c0,0-22.6,31.5-0.4,62.6C729.8,225.5,751.6,200.3,730.1,162.9z"/>
				<path class="st11" d="M729.7,226.1l-0.3-0.4c-22.1-31,0.1-62.7,0.4-63.1l0.3-0.5l0.3,0.5c11.2,19.4,10.5,35.5,7.9,45.6
					c-2.8,10.9-8.3,17.4-8.3,17.4L729.7,226.1z M730.1,163.6c-2.7,4.1-20.2,33-0.3,61.3c1.2-1.5,5.5-7.5,7.9-16.8
					C740.1,198.3,740.8,182.6,730.1,163.6z"/>
			</g>
			<g>
				<path class="st10" d="M729.6,256.6c0,0-14.1,19.6-0.2,39C729.4,295.6,743,279.9,729.6,256.6z"/>
				<path class="st11" d="M729.4,296.2l-0.3-0.4c-13.8-19.4,0.1-39.2,0.2-39.4l0.3-0.5l0.3,0.5c13.3,23.2-0.1,39.2-0.3,39.4
					L729.4,296.2z M729.6,257.3c-2,3.1-12.1,20.5-0.2,37.6C731.3,292.5,741.1,277.9,729.6,257.3z"/>
			</g>
			<g>
				<path class="st10" d="M689.6,119.9c0,0-14.1,19.6-0.2,39C689.4,158.9,703,143.2,689.6,119.9z"/>
				<path class="st11" d="M689.4,159.5l-0.3-0.4c-13.8-19.4,0.1-39.2,0.2-39.4l0.3-0.5l0.3,0.5c13.4,23.2-0.1,39.2-0.3,39.4
					L689.4,159.5z M689.6,120.6c-2,3.1-12.1,20.5-0.2,37.6C691.3,155.8,701.1,141.1,689.6,120.6z"/>
			</g>
			<g>
				<g>
					<g>
						<line class="st13" x1="729.6" y1="116.1" x2="729.6" y2="146.4"/>
					</g>
					<g>
						<rect x="729.5" y="116.1" class="st11" width="0.2" height="30.3"/>
					</g>
				</g>
				<g>
					<g>
						<line class="st13" x1="744.7" y1="131.2" x2="714.4" y2="131.2"/>
					</g>
					<g>
						<rect x="714.4" y="131.1" class="st11" width="30.3" height="0.2"/>
					</g>
				</g>
				<g>
					<g>
						<line class="st13" x1="739.5" y1="141.2" x2="718.1" y2="119.8"/>
					</g>
					<g>
						
							<rect x="728.7" y="115.4" transform="matrix(-0.7041 0.7101 -0.7101 -0.7041 1334.6635 -295.0766)" class="st11" width="0.2" height="30.3"/>
					</g>
				</g>
				<g>
					<g>
						<line class="st13" x1="740.2" y1="120.5" x2="718.8" y2="141.9"/>
					</g>
					<g>
						
							<rect x="729.4" y="116.1" transform="matrix(0.7009 0.7132 -0.7132 0.7009 311.7787 -481.0732)" class="st11" width="0.2" height="30.3"/>
					</g>
				</g>
				<g>
					<circle class="st11" cx="729.5" cy="116.1" r="1.6"/>
				</g>
				<g>
					<circle class="st11" cx="729.5" cy="146.4" r="1.6"/>
				</g>
				<g>
					<circle class="st11" cx="714.4" cy="131.1" r="1.6"/>
				</g>
				<g>
					<circle class="st11" cx="744.7" cy="131.1" r="1.6"/>
				</g>
				<g>
					<circle class="st11" cx="740.1" cy="120.7" r="1.6"/>
				</g>
				<g>
					<circle class="st11" cx="718.8" cy="141.9" r="1.6"/>
				</g>
				<g>
					<circle class="st11" cx="718.2" cy="119.7" r="1.6"/>
				</g>
				<g>
					<circle class="st11" cx="739.5" cy="141.2" r="1.6"/>
				</g>
			</g>
			<g>
				<g>
					<g>
						<line class="st13" x1="690.8" y1="266.6" x2="690.8" y2="296.9"/>
					</g>
					<g>
						<rect x="690.7" y="266.6" class="st11" width="0.2" height="30.3"/>
					</g>
				</g>
				<g>
					<g>
						<line class="st13" x1="705.8" y1="281.8" x2="675.5" y2="281.8"/>
					</g>
					<g>
						<rect x="675.5" y="281.7" class="st11" width="30.3" height="0.2"/>
					</g>
				</g>
				<g>
					<g>
						<line class="st13" x1="700.7" y1="291.8" x2="679.2" y2="270.4"/>
					</g>
					<g>
						<polygon class="st11" points="679.2,270.5 679.3,270.3 700.8,291.7 700.6,291.9 						"/>
					</g>
				</g>
				<g>
					<g>
						<line class="st13" x1="701.4" y1="271.1" x2="680" y2="292.5"/>
					</g>
					<g>
						
							<rect x="690.6" y="266.6" transform="matrix(0.7071 0.7071 -0.7071 0.7071 401.586 -405.8577)" class="st11" width="0.2" height="30.3"/>
					</g>
				</g>
				<g>
					<circle class="st11" cx="690.7" cy="266.6" r="1.6"/>
				</g>
				<g>
					<circle class="st11" cx="690.7" cy="296.9" r="1.6"/>
				</g>
				<g>
					<circle class="st11" cx="675.5" cy="281.7" r="1.6"/>
				</g>
				<g>
					<circle class="st11" cx="705.8" cy="281.7" r="1.6"/>
				</g>
				<g>
					<circle class="st11" cx="701.3" cy="271.2" r="1.6"/>
				</g>
				<g>
					<path class="st11" d="M681.5,292.5c0-0.9-0.7-1.6-1.6-1.6c-0.9,0-1.6,0.7-1.6,1.6c0,0.9,0.7,1.6,1.6,1.6
						C680.8,294.1,681.5,293.4,681.5,292.5z"/>
				</g>
				<g>
					<circle class="st11" cx="679.3" cy="270.3" r="1.6"/>
				</g>
				<g>
					<circle class="st11" cx="700.7" cy="291.8" r="1.6"/>
				</g>
			</g>
		</g>
	</g>
	<g>
		<g>
			<g>
				<rect x="773.4" y="224.5" class="st1" width="51.4" height="113.4"/>
			</g>
			<g>
				<path class="st11" d="M825.2,338.3H773V224.2h52.2V338.3z M773.8,337.5h50.7V224.9h-50.7V337.5z"/>
			</g>
		</g>
		<g>
			<g>
				<polygon class="st11" points="788.5,316.1 787.8,315.8 794,304.2 810,292.3 810,247.1 810.8,247.1 810.8,292.6 794.5,304.8 				
					"/>
			</g>
			<g>
				<polygon class="st11" points="810.3,310.6 793.8,304.8 794.1,268.8 787.1,254.5 787.8,254.1 794.8,268.6 794.8,268.7 
					794.6,304.3 810.6,309.9 				"/>
			</g>
			<g>
				<path class="st12" d="M794.4,268.7c0,0-12.9,18-0.2,35.8C794.2,304.5,806.7,290.1,794.4,268.7z"/>
				<path class="st11" d="M794.2,305.1l-0.3-0.4c-12.7-17.8,0.1-36.1,0.2-36.3l0.3-0.5l0.3,0.5c12.3,21.4-0.1,36.1-0.3,36.3
					L794.2,305.1z M794.4,269.4c-1.9,3-11,18.9-0.2,34.5C796,301.5,804.9,288.2,794.4,269.4z"/>
			</g>
			<g>
				<path class="st10" d="M810.8,256.6c0,0-12.9,18-0.2,35.8C810.5,292.4,823.1,278,810.8,256.6z"/>
				<path class="st11" d="M810.5,293l-0.3-0.4c-12.7-17.8,0.1-36.1,0.2-36.3l0.3-0.5l0.3,0.5c12.3,21.4-0.1,36.1-0.3,36.3L810.5,293
					z M810.7,257.3c-1.9,3-11,18.9-0.2,34.5C812.3,289.4,821.2,276.1,810.7,257.3z"/>
			</g>
			<g>
				<path class="st10" d="M810.5,310.2c0,0-8,11.2-0.1,22.3C810.3,332.5,818.1,323.6,810.5,310.2z"/>
				<path class="st11" d="M810.3,333.1l-0.3-0.4c-8-11.2,0.1-22.6,0.1-22.7l0.3-0.5l0.3,0.5c7.7,13.4-0.1,22.6-0.2,22.7L810.3,333.1
					z M810.4,310.9c-1.4,2.2-6.4,11.7-0.1,21C811.7,330.1,816.5,322.1,810.4,310.9z"/>
			</g>
			<g>
				<path class="st10" d="M787.6,232c0,0-8,11.2-0.1,22.3C787.4,254.3,795.2,245.3,787.6,232z"/>
				<path class="st11" d="M787.4,254.9l-0.3-0.4c-8-11.2,0.1-22.6,0.1-22.7l0.3-0.5l0.3,0.5c7.7,13.4-0.1,22.6-0.2,22.7L787.4,254.9
					z M787.5,232.7c-1.4,2.2-6.4,11.7-0.1,21C788.8,251.9,793.6,243.8,787.5,232.7z"/>
			</g>
			<g>
				<g>
					<g>
						<line class="st13" x1="810.5" y1="229.8" x2="810.5" y2="247.1"/>
					</g>
					<g>
						<rect x="810.4" y="229.8" class="st11" width="0.1" height="17.3"/>
					</g>
				</g>
				<g>
					<g>
						<line class="st13" x1="819.1" y1="238.5" x2="801.7" y2="238.5"/>
					</g>
					<g>
						<rect x="801.7" y="238.4" class="st11" width="17.3" height="0.1"/>
					</g>
				</g>
				<g>
					<g>
						<line class="st13" x1="816.1" y1="244.2" x2="803.9" y2="231.9"/>
					</g>
					<g>
						
							<rect x="809.9" y="229.4" transform="matrix(-0.7015 0.7127 -0.7127 -0.7015 1547.853 -172.2103)" class="st11" width="0.1" height="17.3"/>
					</g>
				</g>
				<g>
					<g>
						<line class="st13" x1="816.5" y1="232.4" x2="804.3" y2="244.6"/>
					</g>
					<g>
						
							<rect x="810.3" y="229.8" transform="matrix(0.7015 0.7126 -0.7126 0.7015 411.8307 -506.345)" class="st11" width="0.1" height="17.3"/>
					</g>
				</g>
				<g>
					<circle class="st11" cx="810.4" cy="229.8" r="0.9"/>
				</g>
				<g>
					<circle class="st11" cx="810.4" cy="247.1" r="0.9"/>
				</g>
				<g>
					<circle class="st11" cx="801.7" cy="238.4" r="0.9"/>
				</g>
				<g>
					<circle class="st11" cx="819.1" cy="238.4" r="0.9"/>
				</g>
				<g>
					<circle class="st11" cx="816.5" cy="232.4" r="0.9"/>
				</g>
				<g>
					<circle class="st11" cx="804.3" cy="244.6" r="0.9"/>
				</g>
				<g>
					<circle class="st11" cx="803.9" cy="231.9" r="0.9"/>
				</g>
				<g>
					<circle class="st11" cx="816.1" cy="244.2" r="0.9"/>
				</g>
			</g>
			<g>
				<g>
					<g>
						<line class="st13" x1="788.2" y1="316" x2="788.2" y2="333.3"/>
					</g>
					<g>
						<rect x="788.2" y="316" class="st11" width="0.1" height="17.3"/>
					</g>
				</g>
				<g>
					<g>
						<line class="st13" x1="796.8" y1="324.6" x2="779.5" y2="324.6"/>
					</g>
					<g>
						<rect x="779.5" y="324.6" class="st11" width="17.3" height="0.1"/>
					</g>
				</g>
				<g>
					<g>
						<line class="st13" x1="793.9" y1="330.4" x2="781.6" y2="318.1"/>
					</g>
					<g>
						
							<rect x="787.7" y="315.6" transform="matrix(-0.7093 0.7049 -0.7049 -0.7093 1575.0751 -1.0988)" class="st11" width="0.1" height="17.3"/>
					</g>
				</g>
				<g>
					<g>
						<line class="st13" x1="794.3" y1="318.5" x2="782" y2="330.8"/>
					</g>
					<g>
						
							<rect x="788.1" y="316" transform="matrix(0.7108 0.7034 -0.7034 0.7108 456.3143 -460.5255)" class="st11" width="0.1" height="17.3"/>
					</g>
				</g>
				<g>
					<circle class="st11" cx="788.2" cy="316" r="0.9"/>
				</g>
				<g>
					<circle class="st11" cx="788.2" cy="333.3" r="0.9"/>
				</g>
				<g>
					<circle class="st11" cx="779.5" cy="324.6" r="0.9"/>
				</g>
				<g>
					<circle class="st11" cx="796.8" cy="324.6" r="0.9"/>
				</g>
				<g>
					<circle class="st11" cx="794.3" cy="318.6" r="0.9"/>
				</g>
				<g>
					<path class="st11" d="M782.9,330.8c0-0.5-0.4-0.9-0.9-0.9c-0.5,0-0.9,0.4-0.9,0.9c0,0.5,0.4,0.9,0.9,0.9
						C782.5,331.7,782.9,331.3,782.9,330.8z"/>
				</g>
				<g>
					<circle class="st11" cx="781.7" cy="318" r="0.9"/>
				</g>
				<g>
					<circle class="st11" cx="793.9" cy="330.4" r="0.9"/>
				</g>
			</g>
		</g>
	</g>
</g>
<g>
	<g>
		<g>
			<g>
				<g>
					<path class="st1" d="M714.2,766.6c-9.9,23.5-34.7,25.1-34.7,25.1c-13.1,0-24.8-6.5-33.3-13.3v0c-0.5-0.4-1-0.8-1.4-1.1
						c-0.3-0.3-0.6-0.5-0.9-0.8c-0.3-0.3-0.6-0.5-0.9-0.8c-7.2-6.3-11.5-12.1-11.5-12.1c-1.5-1.8-2.9-3.6-4.1-5.5
						c-12-18.7-7.8-42.9-3.4-58.9c0.4-1.4,0.7-2.7,1.1-3.9c5.1-17.1-6.2-23.3-6.2-23.3l51.9,3.1c-3.5,2.8-5.6,6.5-5.2,10.6
						c0.1,0.9,0.3,1.9,0.7,2.8c1.2,3.2,3.2,5.7,5.7,7.8c3.1,2.6,6.9,4.5,10.5,6c1,0.4,2,0.8,3,1.2c1.6,0.6,3.2,1.3,4.8,2
						c1.4,0.6,2.7,1.2,4,1.9c4.4,2.4,8.4,5.3,11.7,8.7c3.4,3.5,6.3,7.6,8.4,12.2c1.4,3.1,2.5,6.5,3.2,10.1c0.3,1.3,0.5,2.7,0.6,4.1
						c0,0.2,0,0.5,0,0.7C718.4,752.8,716.8,760.4,714.2,766.6z"/>
					<path id="XMLID_606_" class="st14" d="M642.6,775.3c1.1,1,2.4,2,3.6,3.1c-1.3-10.5-1.6-36.6,27.7-42
						C673.9,736.4,640.2,736.6,642.6,775.3z"/>
				</g>
				<path class="st14" d="M639,711.1c-1,18.8-4.8,37.5-3.9,56.4c0.1,1.1,1.8,1.1,1.7,0c-0.9-18.9,2.9-37.6,3.9-56.4
					C640.7,710,639,710,639,711.1L639,711.1z"/>
				<path id="XMLID_618_" class="st1" d="M666,803.7c15.4,1.3,31.5-2.2,41.1-15.3c5.3-7.2,7.8-16.4,6.9-25.4c0.3,2.6-3,8.5-4.6,10.8
					c-2.3,3.3-6.5,5.9-10,7.6c-3.9,1.9-8.5,3.3-12.9,3.5c-26.4,0-53.9-25-53.9-25c-11.7-5.3-23.8-2.8-33.1,6c-4.6,4.3-8,9-10.4,14.8
					c-1,2.3-4.8,13.7,0.8,13.6c5.5-0.1,9.9-6.7,15.3-8c6.8-1.6,14.2-1.2,20.6,1.5c7.9,3.4,14.9,8.5,22.8,11.9
					C653.7,801.8,659.7,803.2,666,803.7z"/>
			</g>
			<path class="st14" d="M685.5,703.7c-4.4,4.4-9.1,7.4-13,6.2c-4.1-1.3-4.1-5.5-3.3-8.7c0.5-1.9,1.5-3.5,2.7-4.6
				c3.1,2.6,6.9,4.5,10.5,6C683.5,702.9,684.5,703.3,685.5,703.7z"/>
			<path class="st14" d="M706,716.3c-5.7,6.8-12.3,13-17.7,11.3c-9.2-2.8-1.8-12.5,6-20C698.8,709.9,702.7,712.8,706,716.3z"/>
			<path class="st14" d="M718.2,742.6c-7.3,3.4-14.8,5.7-18.7,2.3c-7.6-6.5,4.3-12.7,14.8-16.5c1.4,3.1,2.5,6.5,3.2,10.1
				C717.9,739.9,718.1,741.3,718.2,742.6z"/>
		</g>
		<g>
			<path class="st1" d="M664.6,626l-48,7.8c0,0-6,2.1-7.8,10.1l3.2,33.4c0,0,37.1,19.9,53.5,8.2c0,0,21.9-15.6,19.4-21.9
				c0,0,0-3.9-4.3-13.5C680.6,650.2,671.7,630.3,664.6,626z"/>
			<g>
				<path class="st1" d="M654.5,628.5c-0.4-1.3,21.1-18.5,28.8-18.5c0,0,1.3,0.3,1.6,1.6c0,0-13.1,12.3-16.3,18.4
					C668.6,630,656.6,635.2,654.5,628.5z"/>
				<path class="st14" d="M675.5,640.7c0,0,14.9-19.5,9.3-29.1l-16.3,13.8l-1.6,7.3L675.5,640.7z"/>
			</g>
			<g>
				<path class="st1" d="M623.2,634c-0.4-1-17-11-28.4-8c0,0-1.9,0.8-2.4,2.4c-0.5,1.6,16.3,1.6,20.8,10.9
					C613.1,639.3,625.3,639.1,623.2,634z"/>
				<path class="st14" d="M592.3,628.6c0,0,8.9,22.2,12.9,25.4c0,0,5.6,3.7,9.3,1.9l1.3-17.9C615.9,638,601.1,624.3,592.3,628.6z"/>
			</g>
		</g>
		<path class="st15" d="M660.2,677.4c-3.1,2.2-6.6,0.1-7.6-3c4-0.4,7.5-2.4,5.6-5.5c-2.6-4.1-10.8-5.1-13.3-0.2
			c-2.2,4.1,2,5.9,6.4,5.9c0,3-1.2,6.3-4.9,5.4c-0.8-0.2-1.1,1.1-0.2,1.3c3.6,0.9,5.5-1.5,6.2-4.4c1.9,2.7,5.6,4,8.7,1.8
			C661.6,678,660.9,676.9,660.2,677.4z"/>
		<g>
			<path class="st16" d="M660.6,671.4c0,0,13.6-13.8,39.9-7.8"/>
			<path class="st16" d="M661,673.9c0,0,19.5-11.3,42.9,1.9"/>
			<g>
				<path class="st16" d="M661.3,675.7c0,0,25-4.1,37.7,8"/>
			</g>
		</g>
		<g>
			<path class="st16" d="M642.5,674.4c0,0-17.3-8.7-40.3,5.4"/>
			<path class="st16" d="M642.9,676.9c0,0-22.1-4.5-40.1,15.5"/>
			<g>
				<path class="st16" d="M643.2,678.6c0,0-25,4.1-33.2,19.7"/>
			</g>
		</g>
		<g>
			<g>
				<g class="st17">
					<g>
						<path class="st18" d="M634.6,668.5c0.1,1-1.2,2-3,2.2c-1.8,0.2-3.4-0.4-3.5-1.4c-0.1-1,1.2-2,3-2.2
							C632.9,666.8,634.5,667.4,634.6,668.5z"/>
					</g>
				</g>
				<g class="st17">
					<g>
						<path class="st18" d="M671.3,661.7c0.1,1-1.2,2-3,2.2c-1.8,0.2-3.4-0.4-3.5-1.4c-0.1-1,1.2-2,3-2.2
							C669.6,660,671.2,660.7,671.3,661.7z"/>
					</g>
				</g>
				<g>
					<g>
						
							<ellipse transform="matrix(0.9449 -0.3275 0.3275 0.9449 -181.1526 243.3625)" class="st19" cx="632.1" cy="659.6" rx="6.2" ry="6.4"/>
					</g>
					<path class="st20" d="M631.4,653.8c-0.7,0.3-2.2,1.1-1.8,2.2c0.4,1.1,1.2,0,1,2c-0.2,2-2.5,1.9-2.1,3c0.4,1,1.5,5.1,6.8,3.4
						C641.2,662.3,637.7,651.5,631.4,653.8z"/>
					<ellipse transform="matrix(0.945 -0.3271 0.3271 0.945 -181.485 244.111)" class="st19" cx="635.1" cy="661.7" rx="1" ry="1"/>
				</g>
				<g>
					<g>
						<path class="st19" d="M654.8,654.4c1.2,3.4,4.7,5.2,8,4c3.2-1.1,4.9-4.8,3.8-8.1c-1.2-3.4-4.7-5.2-8-4
							C655.3,647.4,653.6,651.1,654.8,654.4z"/>
					</g>
					<path class="st20" d="M657.5,647.4c0.7-0.2,2.4-0.5,2.7,0.6c0.3,1.1-1,0.8,0.4,2.2c1.4,1.4,3.2,0,3.5,1c0.3,1,2,4.9-3.2,6.8
						C655.2,660.1,651.2,649.5,657.5,647.4z"/>
					
						<ellipse transform="matrix(-0.9449 0.3274 -0.3274 -0.9449 1497.4724 1059.6675)" class="st19" cx="659.6" cy="655.9" rx="1" ry="1"/>
				</g>
			</g>
			<path class="st20" d="M626.3,653.5c0,0,2.4-5.8,6.8-4.8C633,648.6,629.8,649.2,626.3,653.5z"/>
			<path class="st20" d="M664.8,644.7c0,0-5.5-3.1-8.3,0.4C656.5,645.1,659.4,643.5,664.8,644.7z"/>
		</g>
	</g>
</g>
</svg>
